<?xml version="1.0" encoding="utf-8" standalone="no"?>
<!DOCTYPE svg PUBLIC "-//W3C//DTD SVG 1.1//EN"
  "http://www.w3.org/Graphics/SVG/1.1/DTD/svg11.dtd">
<!-- Created with matplotlib (http://matplotlib.org/) -->
<svg height="430pt" version="1.1" viewBox="0 0 648 430" width="648pt" xmlns="http://www.w3.org/2000/svg" xmlns:xlink="http://www.w3.org/1999/xlink">
 <defs>
  <style type="text/css">
*{stroke-linecap:butt;stroke-linejoin:round;}
  </style>
 </defs>
 <g id="figure_1">
  <g id="patch_1">
   <path d="M 0 430.56 
L 648 430.56 
L 648 0 
L 0 0 
z
" style="fill:#ffffff;"/>
  </g>
  <g id="axes_1">
   <g id="patch_2">
    <path d="M 81 383.1984 
L 583.2 383.1984 
L 583.2 51.6672 
L 81 51.6672 
z
" style="fill:#ffffff;"/>
   </g>
   <g id="matplotlib.axis_1">
    <g id="xtick_1">
     <g id="line2d_1">
      <path clip-path="url(#pcd59235f02)" d="M 81 383.1984 
L 81 51.6672 
" style="fill:none;stroke:#b0b0b0;stroke-linecap:square;stroke-width:0.8;"/>
     </g>
     <g id="line2d_2">
      <defs>
       <path d="M 0 0 
L 0 3.5 
" id="m4bbcf218aa" style="stroke:#000000;stroke-width:0.8;"/>
      </defs>
      <g>
       <use style="stroke:#000000;stroke-width:0.8;" x="81" xlink:href="#m4bbcf218aa" y="383.1984"/>
      </g>
     </g>
     <g id="text_1">
      <!-- 0 -->
      <defs>
       <path d="M 31.78125 66.40625 
Q 24.171875 66.40625 20.328125 58.90625 
Q 16.5 51.421875 16.5 36.375 
Q 16.5 21.390625 20.328125 13.890625 
Q 24.171875 6.390625 31.78125 6.390625 
Q 39.453125 6.390625 43.28125 13.890625 
Q 47.125 21.390625 47.125 36.375 
Q 47.125 51.421875 43.28125 58.90625 
Q 39.453125 66.40625 31.78125 66.40625 
z
M 31.78125 74.21875 
Q 44.046875 74.21875 50.515625 64.515625 
Q 56.984375 54.828125 56.984375 36.375 
Q 56.984375 17.96875 50.515625 8.265625 
Q 44.046875 -1.421875 31.78125 -1.421875 
Q 19.53125 -1.421875 13.0625 8.265625 
Q 6.59375 17.96875 6.59375 36.375 
Q 6.59375 54.828125 13.0625 64.515625 
Q 19.53125 74.21875 31.78125 74.21875 
z
" id="DejaVuSans-30"/>
      </defs>
      <g transform="translate(77.81875 397.796838)scale(0.1 -0.1)">
       <use xlink:href="#DejaVuSans-30"/>
      </g>
     </g>
    </g>
    <g id="xtick_2">
     <g id="line2d_3">
      <path clip-path="url(#pcd59235f02)" d="M 139.531469 383.1984 
L 139.531469 51.6672 
" style="fill:none;stroke:#b0b0b0;stroke-linecap:square;stroke-width:0.8;"/>
     </g>
     <g id="line2d_4">
      <g>
       <use style="stroke:#000000;stroke-width:0.8;" x="139.531469" xlink:href="#m4bbcf218aa" y="383.1984"/>
      </g>
     </g>
     <g id="text_2">
      <!-- 10000 -->
      <defs>
       <path d="M 12.40625 8.296875 
L 28.515625 8.296875 
L 28.515625 63.921875 
L 10.984375 60.40625 
L 10.984375 69.390625 
L 28.421875 72.90625 
L 38.28125 72.90625 
L 38.28125 8.296875 
L 54.390625 8.296875 
L 54.390625 0 
L 12.40625 0 
z
" id="DejaVuSans-31"/>
      </defs>
      <g transform="translate(123.625219 397.796838)scale(0.1 -0.1)">
       <use xlink:href="#DejaVuSans-31"/>
       <use x="63.623047" xlink:href="#DejaVuSans-30"/>
       <use x="127.246094" xlink:href="#DejaVuSans-30"/>
       <use x="190.869141" xlink:href="#DejaVuSans-30"/>
       <use x="254.492188" xlink:href="#DejaVuSans-30"/>
      </g>
     </g>
    </g>
    <g id="xtick_3">
     <g id="line2d_5">
      <path clip-path="url(#pcd59235f02)" d="M 198.062937 383.1984 
L 198.062937 51.6672 
" style="fill:none;stroke:#b0b0b0;stroke-linecap:square;stroke-width:0.8;"/>
     </g>
     <g id="line2d_6">
      <g>
       <use style="stroke:#000000;stroke-width:0.8;" x="198.062937" xlink:href="#m4bbcf218aa" y="383.1984"/>
      </g>
     </g>
     <g id="text_3">
      <!-- 20000 -->
      <defs>
       <path d="M 19.1875 8.296875 
L 53.609375 8.296875 
L 53.609375 0 
L 7.328125 0 
L 7.328125 8.296875 
Q 12.9375 14.109375 22.625 23.890625 
Q 32.328125 33.6875 34.8125 36.53125 
Q 39.546875 41.84375 41.421875 45.53125 
Q 43.3125 49.21875 43.3125 52.78125 
Q 43.3125 58.59375 39.234375 62.25 
Q 35.15625 65.921875 28.609375 65.921875 
Q 23.96875 65.921875 18.8125 64.3125 
Q 13.671875 62.703125 7.8125 59.421875 
L 7.8125 69.390625 
Q 13.765625 71.78125 18.9375 73 
Q 24.125 74.21875 28.421875 74.21875 
Q 39.75 74.21875 46.484375 68.546875 
Q 53.21875 62.890625 53.21875 53.421875 
Q 53.21875 48.921875 51.53125 44.890625 
Q 49.859375 40.875 45.40625 35.40625 
Q 44.1875 33.984375 37.640625 27.21875 
Q 31.109375 20.453125 19.1875 8.296875 
z
" id="DejaVuSans-32"/>
      </defs>
      <g transform="translate(182.156687 397.796838)scale(0.1 -0.1)">
       <use xlink:href="#DejaVuSans-32"/>
       <use x="63.623047" xlink:href="#DejaVuSans-30"/>
       <use x="127.246094" xlink:href="#DejaVuSans-30"/>
       <use x="190.869141" xlink:href="#DejaVuSans-30"/>
       <use x="254.492188" xlink:href="#DejaVuSans-30"/>
      </g>
     </g>
    </g>
    <g id="xtick_4">
     <g id="line2d_7">
      <path clip-path="url(#pcd59235f02)" d="M 256.594406 383.1984 
L 256.594406 51.6672 
" style="fill:none;stroke:#b0b0b0;stroke-linecap:square;stroke-width:0.8;"/>
     </g>
     <g id="line2d_8">
      <g>
       <use style="stroke:#000000;stroke-width:0.8;" x="256.594406" xlink:href="#m4bbcf218aa" y="383.1984"/>
      </g>
     </g>
     <g id="text_4">
      <!-- 30000 -->
      <defs>
       <path d="M 40.578125 39.3125 
Q 47.65625 37.796875 51.625 33 
Q 55.609375 28.21875 55.609375 21.1875 
Q 55.609375 10.40625 48.1875 4.484375 
Q 40.765625 -1.421875 27.09375 -1.421875 
Q 22.515625 -1.421875 17.65625 -0.515625 
Q 12.796875 0.390625 7.625 2.203125 
L 7.625 11.71875 
Q 11.71875 9.328125 16.59375 8.109375 
Q 21.484375 6.890625 26.8125 6.890625 
Q 36.078125 6.890625 40.9375 10.546875 
Q 45.796875 14.203125 45.796875 21.1875 
Q 45.796875 27.640625 41.28125 31.265625 
Q 36.765625 34.90625 28.71875 34.90625 
L 20.21875 34.90625 
L 20.21875 43.015625 
L 29.109375 43.015625 
Q 36.375 43.015625 40.234375 45.921875 
Q 44.09375 48.828125 44.09375 54.296875 
Q 44.09375 59.90625 40.109375 62.90625 
Q 36.140625 65.921875 28.71875 65.921875 
Q 24.65625 65.921875 20.015625 65.03125 
Q 15.375 64.15625 9.8125 62.3125 
L 9.8125 71.09375 
Q 15.4375 72.65625 20.34375 73.4375 
Q 25.25 74.21875 29.59375 74.21875 
Q 40.828125 74.21875 47.359375 69.109375 
Q 53.90625 64.015625 53.90625 55.328125 
Q 53.90625 49.265625 50.4375 45.09375 
Q 46.96875 40.921875 40.578125 39.3125 
z
" id="DejaVuSans-33"/>
      </defs>
      <g transform="translate(240.688156 397.796838)scale(0.1 -0.1)">
       <use xlink:href="#DejaVuSans-33"/>
       <use x="63.623047" xlink:href="#DejaVuSans-30"/>
       <use x="127.246094" xlink:href="#DejaVuSans-30"/>
       <use x="190.869141" xlink:href="#DejaVuSans-30"/>
       <use x="254.492188" xlink:href="#DejaVuSans-30"/>
      </g>
     </g>
    </g>
    <g id="xtick_5">
     <g id="line2d_9">
      <path clip-path="url(#pcd59235f02)" d="M 315.125874 383.1984 
L 315.125874 51.6672 
" style="fill:none;stroke:#b0b0b0;stroke-linecap:square;stroke-width:0.8;"/>
     </g>
     <g id="line2d_10">
      <g>
       <use style="stroke:#000000;stroke-width:0.8;" x="315.125874" xlink:href="#m4bbcf218aa" y="383.1984"/>
      </g>
     </g>
     <g id="text_5">
      <!-- 40000 -->
      <defs>
       <path d="M 37.796875 64.3125 
L 12.890625 25.390625 
L 37.796875 25.390625 
z
M 35.203125 72.90625 
L 47.609375 72.90625 
L 47.609375 25.390625 
L 58.015625 25.390625 
L 58.015625 17.1875 
L 47.609375 17.1875 
L 47.609375 0 
L 37.796875 0 
L 37.796875 17.1875 
L 4.890625 17.1875 
L 4.890625 26.703125 
z
" id="DejaVuSans-34"/>
      </defs>
      <g transform="translate(299.219624 397.796838)scale(0.1 -0.1)">
       <use xlink:href="#DejaVuSans-34"/>
       <use x="63.623047" xlink:href="#DejaVuSans-30"/>
       <use x="127.246094" xlink:href="#DejaVuSans-30"/>
       <use x="190.869141" xlink:href="#DejaVuSans-30"/>
       <use x="254.492188" xlink:href="#DejaVuSans-30"/>
      </g>
     </g>
    </g>
    <g id="xtick_6">
     <g id="line2d_11">
      <path clip-path="url(#pcd59235f02)" d="M 373.657343 383.1984 
L 373.657343 51.6672 
" style="fill:none;stroke:#b0b0b0;stroke-linecap:square;stroke-width:0.8;"/>
     </g>
     <g id="line2d_12">
      <g>
       <use style="stroke:#000000;stroke-width:0.8;" x="373.657343" xlink:href="#m4bbcf218aa" y="383.1984"/>
      </g>
     </g>
     <g id="text_6">
      <!-- 50000 -->
      <defs>
       <path d="M 10.796875 72.90625 
L 49.515625 72.90625 
L 49.515625 64.59375 
L 19.828125 64.59375 
L 19.828125 46.734375 
Q 21.96875 47.46875 24.109375 47.828125 
Q 26.265625 48.1875 28.421875 48.1875 
Q 40.625 48.1875 47.75 41.5 
Q 54.890625 34.8125 54.890625 23.390625 
Q 54.890625 11.625 47.5625 5.09375 
Q 40.234375 -1.421875 26.90625 -1.421875 
Q 22.3125 -1.421875 17.546875 -0.640625 
Q 12.796875 0.140625 7.71875 1.703125 
L 7.71875 11.625 
Q 12.109375 9.234375 16.796875 8.0625 
Q 21.484375 6.890625 26.703125 6.890625 
Q 35.15625 6.890625 40.078125 11.328125 
Q 45.015625 15.765625 45.015625 23.390625 
Q 45.015625 31 40.078125 35.4375 
Q 35.15625 39.890625 26.703125 39.890625 
Q 22.75 39.890625 18.8125 39.015625 
Q 14.890625 38.140625 10.796875 36.28125 
z
" id="DejaVuSans-35"/>
      </defs>
      <g transform="translate(357.751093 397.796838)scale(0.1 -0.1)">
       <use xlink:href="#DejaVuSans-35"/>
       <use x="63.623047" xlink:href="#DejaVuSans-30"/>
       <use x="127.246094" xlink:href="#DejaVuSans-30"/>
       <use x="190.869141" xlink:href="#DejaVuSans-30"/>
       <use x="254.492188" xlink:href="#DejaVuSans-30"/>
      </g>
     </g>
    </g>
    <g id="xtick_7">
     <g id="line2d_13">
      <path clip-path="url(#pcd59235f02)" d="M 432.188811 383.1984 
L 432.188811 51.6672 
" style="fill:none;stroke:#b0b0b0;stroke-linecap:square;stroke-width:0.8;"/>
     </g>
     <g id="line2d_14">
      <g>
       <use style="stroke:#000000;stroke-width:0.8;" x="432.188811" xlink:href="#m4bbcf218aa" y="383.1984"/>
      </g>
     </g>
     <g id="text_7">
      <!-- 60000 -->
      <defs>
       <path d="M 33.015625 40.375 
Q 26.375 40.375 22.484375 35.828125 
Q 18.609375 31.296875 18.609375 23.390625 
Q 18.609375 15.53125 22.484375 10.953125 
Q 26.375 6.390625 33.015625 6.390625 
Q 39.65625 6.390625 43.53125 10.953125 
Q 47.40625 15.53125 47.40625 23.390625 
Q 47.40625 31.296875 43.53125 35.828125 
Q 39.65625 40.375 33.015625 40.375 
z
M 52.59375 71.296875 
L 52.59375 62.3125 
Q 48.875 64.0625 45.09375 64.984375 
Q 41.3125 65.921875 37.59375 65.921875 
Q 27.828125 65.921875 22.671875 59.328125 
Q 17.53125 52.734375 16.796875 39.40625 
Q 19.671875 43.65625 24.015625 45.921875 
Q 28.375 48.1875 33.59375 48.1875 
Q 44.578125 48.1875 50.953125 41.515625 
Q 57.328125 34.859375 57.328125 23.390625 
Q 57.328125 12.15625 50.6875 5.359375 
Q 44.046875 -1.421875 33.015625 -1.421875 
Q 20.359375 -1.421875 13.671875 8.265625 
Q 6.984375 17.96875 6.984375 36.375 
Q 6.984375 53.65625 15.1875 63.9375 
Q 23.390625 74.21875 37.203125 74.21875 
Q 40.921875 74.21875 44.703125 73.484375 
Q 48.484375 72.75 52.59375 71.296875 
z
" id="DejaVuSans-36"/>
      </defs>
      <g transform="translate(416.282561 397.796838)scale(0.1 -0.1)">
       <use xlink:href="#DejaVuSans-36"/>
       <use x="63.623047" xlink:href="#DejaVuSans-30"/>
       <use x="127.246094" xlink:href="#DejaVuSans-30"/>
       <use x="190.869141" xlink:href="#DejaVuSans-30"/>
       <use x="254.492188" xlink:href="#DejaVuSans-30"/>
      </g>
     </g>
    </g>
    <g id="xtick_8">
     <g id="line2d_15">
      <path clip-path="url(#pcd59235f02)" d="M 490.72028 383.1984 
L 490.72028 51.6672 
" style="fill:none;stroke:#b0b0b0;stroke-linecap:square;stroke-width:0.8;"/>
     </g>
     <g id="line2d_16">
      <g>
       <use style="stroke:#000000;stroke-width:0.8;" x="490.72028" xlink:href="#m4bbcf218aa" y="383.1984"/>
      </g>
     </g>
     <g id="text_8">
      <!-- 70000 -->
      <defs>
       <path d="M 8.203125 72.90625 
L 55.078125 72.90625 
L 55.078125 68.703125 
L 28.609375 0 
L 18.3125 0 
L 43.21875 64.59375 
L 8.203125 64.59375 
z
" id="DejaVuSans-37"/>
      </defs>
      <g transform="translate(474.81403 397.796838)scale(0.1 -0.1)">
       <use xlink:href="#DejaVuSans-37"/>
       <use x="63.623047" xlink:href="#DejaVuSans-30"/>
       <use x="127.246094" xlink:href="#DejaVuSans-30"/>
       <use x="190.869141" xlink:href="#DejaVuSans-30"/>
       <use x="254.492188" xlink:href="#DejaVuSans-30"/>
      </g>
     </g>
    </g>
    <g id="xtick_9">
     <g id="line2d_17">
      <path clip-path="url(#pcd59235f02)" d="M 549.251748 383.1984 
L 549.251748 51.6672 
" style="fill:none;stroke:#b0b0b0;stroke-linecap:square;stroke-width:0.8;"/>
     </g>
     <g id="line2d_18">
      <g>
       <use style="stroke:#000000;stroke-width:0.8;" x="549.251748" xlink:href="#m4bbcf218aa" y="383.1984"/>
      </g>
     </g>
     <g id="text_9">
      <!-- 80000 -->
      <defs>
       <path d="M 31.78125 34.625 
Q 24.75 34.625 20.71875 30.859375 
Q 16.703125 27.09375 16.703125 20.515625 
Q 16.703125 13.921875 20.71875 10.15625 
Q 24.75 6.390625 31.78125 6.390625 
Q 38.8125 6.390625 42.859375 10.171875 
Q 46.921875 13.96875 46.921875 20.515625 
Q 46.921875 27.09375 42.890625 30.859375 
Q 38.875 34.625 31.78125 34.625 
z
M 21.921875 38.8125 
Q 15.578125 40.375 12.03125 44.71875 
Q 8.5 49.078125 8.5 55.328125 
Q 8.5 64.0625 14.71875 69.140625 
Q 20.953125 74.21875 31.78125 74.21875 
Q 42.671875 74.21875 48.875 69.140625 
Q 55.078125 64.0625 55.078125 55.328125 
Q 55.078125 49.078125 51.53125 44.71875 
Q 48 40.375 41.703125 38.8125 
Q 48.828125 37.15625 52.796875 32.3125 
Q 56.78125 27.484375 56.78125 20.515625 
Q 56.78125 9.90625 50.3125 4.234375 
Q 43.84375 -1.421875 31.78125 -1.421875 
Q 19.734375 -1.421875 13.25 4.234375 
Q 6.78125 9.90625 6.78125 20.515625 
Q 6.78125 27.484375 10.78125 32.3125 
Q 14.796875 37.15625 21.921875 38.8125 
z
M 18.3125 54.390625 
Q 18.3125 48.734375 21.84375 45.5625 
Q 25.390625 42.390625 31.78125 42.390625 
Q 38.140625 42.390625 41.71875 45.5625 
Q 45.3125 48.734375 45.3125 54.390625 
Q 45.3125 60.0625 41.71875 63.234375 
Q 38.140625 66.40625 31.78125 66.40625 
Q 25.390625 66.40625 21.84375 63.234375 
Q 18.3125 60.0625 18.3125 54.390625 
z
" id="DejaVuSans-38"/>
      </defs>
      <g transform="translate(533.345498 397.796838)scale(0.1 -0.1)">
       <use xlink:href="#DejaVuSans-38"/>
       <use x="63.623047" xlink:href="#DejaVuSans-30"/>
       <use x="127.246094" xlink:href="#DejaVuSans-30"/>
       <use x="190.869141" xlink:href="#DejaVuSans-30"/>
       <use x="254.492188" xlink:href="#DejaVuSans-30"/>
      </g>
     </g>
    </g>
    <g id="text_10">
     <!-- $\Delta t$ (sec) -->
     <defs>
      <path d="M 34.1875 63.1875 
L 14.15625 8.203125 
L 54.25 8.203125 
z
M 0.78125 0 
L 28.609375 72.90625 
L 39.796875 72.90625 
L 67.578125 0 
z
" id="DejaVuSans-394"/>
      <path d="M 42.28125 54.6875 
L 40.921875 47.703125 
L 23 47.703125 
L 17.1875 18.015625 
Q 16.890625 16.359375 16.75 15.234375 
Q 16.609375 14.109375 16.609375 13.484375 
Q 16.609375 10.359375 18.484375 8.9375 
Q 20.359375 7.515625 24.515625 7.515625 
L 33.59375 7.515625 
L 32.078125 0 
L 23.484375 0 
Q 15.484375 0 11.546875 3.125 
Q 7.625 6.25 7.625 12.59375 
Q 7.625 13.71875 7.765625 15.0625 
Q 7.90625 16.40625 8.203125 18.015625 
L 14.015625 47.703125 
L 6.390625 47.703125 
L 7.8125 54.6875 
L 15.28125 54.6875 
L 18.3125 70.21875 
L 27.296875 70.21875 
L 24.3125 54.6875 
z
" id="DejaVuSans-Oblique-74"/>
      <path id="DejaVuSans-Bold-20"/>
      <path d="M 37.703125 -13.1875 
L 23.1875 -13.1875 
Q 15.71875 -1.125 12.15625 9.734375 
Q 8.59375 20.609375 8.59375 31.296875 
Q 8.59375 42 12.171875 52.953125 
Q 15.765625 63.921875 23.1875 75.875 
L 37.703125 75.875 
Q 31.453125 64.3125 28.328125 53.25 
Q 25.203125 42.1875 25.203125 31.390625 
Q 25.203125 20.609375 28.296875 9.515625 
Q 31.390625 -1.5625 37.703125 -13.1875 
z
" id="DejaVuSans-Bold-28"/>
      <path d="M 51.125 52.984375 
L 51.125 39.703125 
Q 45.515625 42.046875 40.28125 43.21875 
Q 35.0625 44.390625 30.421875 44.390625 
Q 25.4375 44.390625 23.015625 43.140625 
Q 20.609375 41.890625 20.609375 39.3125 
Q 20.609375 37.203125 22.4375 36.078125 
Q 24.265625 34.96875 29 34.421875 
L 32.078125 33.984375 
Q 45.515625 32.28125 50.140625 28.375 
Q 54.78125 24.46875 54.78125 16.109375 
Q 54.78125 7.375 48.328125 2.96875 
Q 41.890625 -1.421875 29.109375 -1.421875 
Q 23.6875 -1.421875 17.890625 -0.5625 
Q 12.109375 0.296875 6 2 
L 6 15.28125 
Q 11.234375 12.75 16.71875 11.46875 
Q 22.21875 10.203125 27.875 10.203125 
Q 33.015625 10.203125 35.59375 11.609375 
Q 38.1875 13.03125 38.1875 15.828125 
Q 38.1875 18.171875 36.40625 19.3125 
Q 34.625 20.453125 29.296875 21.09375 
L 26.21875 21.484375 
Q 14.546875 22.953125 9.859375 26.90625 
Q 5.171875 30.859375 5.171875 38.921875 
Q 5.171875 47.609375 11.125 51.796875 
Q 17.09375 56 29.390625 56 
Q 34.234375 56 39.546875 55.265625 
Q 44.875 54.546875 51.125 52.984375 
z
" id="DejaVuSans-Bold-73"/>
      <path d="M 62.984375 27.484375 
L 62.984375 22.515625 
L 22.125 22.515625 
Q 22.75 16.359375 26.5625 13.28125 
Q 30.375 10.203125 37.203125 10.203125 
Q 42.71875 10.203125 48.5 11.84375 
Q 54.296875 13.484375 60.40625 16.796875 
L 60.40625 3.328125 
Q 54.203125 0.984375 48 -0.21875 
Q 41.796875 -1.421875 35.59375 -1.421875 
Q 20.75 -1.421875 12.515625 6.125 
Q 4.296875 13.671875 4.296875 27.296875 
Q 4.296875 40.671875 12.375 48.328125 
Q 20.453125 56 34.625 56 
Q 47.515625 56 55.25 48.234375 
Q 62.984375 40.484375 62.984375 27.484375 
z
M 45.015625 33.296875 
Q 45.015625 38.28125 42.109375 41.328125 
Q 39.203125 44.390625 34.515625 44.390625 
Q 29.4375 44.390625 26.265625 41.53125 
Q 23.09375 38.671875 22.3125 33.296875 
z
" id="DejaVuSans-Bold-65"/>
      <path d="M 52.59375 52.984375 
L 52.59375 38.71875 
Q 49.03125 41.15625 45.4375 42.328125 
Q 41.84375 43.5 37.984375 43.5 
Q 30.671875 43.5 26.59375 39.234375 
Q 22.515625 34.96875 22.515625 27.296875 
Q 22.515625 19.625 26.59375 15.34375 
Q 30.671875 11.078125 37.984375 11.078125 
Q 42.09375 11.078125 45.78125 12.296875 
Q 49.46875 13.53125 52.59375 15.921875 
L 52.59375 1.609375 
Q 48.484375 0.09375 44.265625 -0.65625 
Q 40.046875 -1.421875 35.796875 -1.421875 
Q 21 -1.421875 12.640625 6.171875 
Q 4.296875 13.765625 4.296875 27.296875 
Q 4.296875 40.828125 12.640625 48.40625 
Q 21 56 35.796875 56 
Q 40.09375 56 44.265625 55.25 
Q 48.4375 54.5 52.59375 52.984375 
z
" id="DejaVuSans-Bold-63"/>
      <path d="M 8.015625 -13.1875 
Q 14.265625 -1.5625 17.390625 9.515625 
Q 20.515625 20.609375 20.515625 31.390625 
Q 20.515625 42.1875 17.390625 53.25 
Q 14.265625 64.3125 8.015625 75.875 
L 22.515625 75.875 
Q 29.9375 63.921875 33.515625 52.953125 
Q 37.109375 42 37.109375 31.296875 
Q 37.109375 20.609375 33.546875 9.734375 
Q 29.984375 -1.125 22.515625 -13.1875 
z
" id="DejaVuSans-Bold-29"/>
     </defs>
     <g transform="translate(302.63 414.514338)scale(0.14 -0.14)">
      <use transform="translate(0 0.125)" xlink:href="#DejaVuSans-394"/>
      <use transform="translate(68.408203 0.125)" xlink:href="#DejaVuSans-Oblique-74"/>
      <use transform="translate(107.617188 0.125)" xlink:href="#DejaVuSans-Bold-20"/>
      <use transform="translate(142.431641 0.125)" xlink:href="#DejaVuSans-Bold-28"/>
      <use transform="translate(188.134766 0.125)" xlink:href="#DejaVuSans-Bold-73"/>
      <use transform="translate(247.65625 0.125)" xlink:href="#DejaVuSans-Bold-65"/>
      <use transform="translate(315.478516 0.125)" xlink:href="#DejaVuSans-Bold-63"/>
      <use transform="translate(374.755859 0.125)" xlink:href="#DejaVuSans-Bold-29"/>
     </g>
    </g>
   </g>
   <g id="matplotlib.axis_2">
    <g id="ytick_1">
     <g id="line2d_19">
      <path clip-path="url(#pcd59235f02)" d="M 81 368.1288 
L 583.2 368.1288 
" style="fill:none;stroke:#b0b0b0;stroke-linecap:square;stroke-width:0.8;"/>
     </g>
     <g id="line2d_20">
      <defs>
       <path d="M 0 0 
L -3.5 0 
" id="ma02f80eeb0" style="stroke:#000000;stroke-width:0.8;"/>
      </defs>
      <g>
       <use style="stroke:#000000;stroke-width:0.8;" x="81" xlink:href="#ma02f80eeb0" y="368.1288"/>
      </g>
     </g>
     <g id="text_11">
      <!-- −100000 -->
      <defs>
       <path d="M 10.59375 35.5 
L 73.1875 35.5 
L 73.1875 27.203125 
L 10.59375 27.203125 
z
" id="DejaVuSans-2212"/>
      </defs>
      <g transform="translate(27.445312 371.928019)scale(0.1 -0.1)">
       <use xlink:href="#DejaVuSans-2212"/>
       <use x="83.789062" xlink:href="#DejaVuSans-31"/>
       <use x="147.412109" xlink:href="#DejaVuSans-30"/>
       <use x="211.035156" xlink:href="#DejaVuSans-30"/>
       <use x="274.658203" xlink:href="#DejaVuSans-30"/>
       <use x="338.28125" xlink:href="#DejaVuSans-30"/>
       <use x="401.904297" xlink:href="#DejaVuSans-30"/>
      </g>
     </g>
    </g>
    <g id="ytick_2">
     <g id="line2d_21">
      <path clip-path="url(#pcd59235f02)" d="M 81 322.357044 
L 583.2 322.357044 
" style="fill:none;stroke:#b0b0b0;stroke-linecap:square;stroke-width:0.8;"/>
     </g>
     <g id="line2d_22">
      <g>
       <use style="stroke:#000000;stroke-width:0.8;" x="81" xlink:href="#ma02f80eeb0" y="322.357044"/>
      </g>
     </g>
     <g id="text_12">
      <!-- −75000 -->
      <g transform="translate(33.807812 326.156263)scale(0.1 -0.1)">
       <use xlink:href="#DejaVuSans-2212"/>
       <use x="83.789062" xlink:href="#DejaVuSans-37"/>
       <use x="147.412109" xlink:href="#DejaVuSans-35"/>
       <use x="211.035156" xlink:href="#DejaVuSans-30"/>
       <use x="274.658203" xlink:href="#DejaVuSans-30"/>
       <use x="338.28125" xlink:href="#DejaVuSans-30"/>
      </g>
     </g>
    </g>
    <g id="ytick_3">
     <g id="line2d_23">
      <path clip-path="url(#pcd59235f02)" d="M 81 276.585288 
L 583.2 276.585288 
" style="fill:none;stroke:#b0b0b0;stroke-linecap:square;stroke-width:0.8;"/>
     </g>
     <g id="line2d_24">
      <g>
       <use style="stroke:#000000;stroke-width:0.8;" x="81" xlink:href="#ma02f80eeb0" y="276.585288"/>
      </g>
     </g>
     <g id="text_13">
      <!-- −50000 -->
      <g transform="translate(33.807812 280.384507)scale(0.1 -0.1)">
       <use xlink:href="#DejaVuSans-2212"/>
       <use x="83.789062" xlink:href="#DejaVuSans-35"/>
       <use x="147.412109" xlink:href="#DejaVuSans-30"/>
       <use x="211.035156" xlink:href="#DejaVuSans-30"/>
       <use x="274.658203" xlink:href="#DejaVuSans-30"/>
       <use x="338.28125" xlink:href="#DejaVuSans-30"/>
      </g>
     </g>
    </g>
    <g id="ytick_4">
     <g id="line2d_25">
      <path clip-path="url(#pcd59235f02)" d="M 81 230.813532 
L 583.2 230.813532 
" style="fill:none;stroke:#b0b0b0;stroke-linecap:square;stroke-width:0.8;"/>
     </g>
     <g id="line2d_26">
      <g>
       <use style="stroke:#000000;stroke-width:0.8;" x="81" xlink:href="#ma02f80eeb0" y="230.813532"/>
      </g>
     </g>
     <g id="text_14">
      <!-- −25000 -->
      <g transform="translate(33.807812 234.612751)scale(0.1 -0.1)">
       <use xlink:href="#DejaVuSans-2212"/>
       <use x="83.789062" xlink:href="#DejaVuSans-32"/>
       <use x="147.412109" xlink:href="#DejaVuSans-35"/>
       <use x="211.035156" xlink:href="#DejaVuSans-30"/>
       <use x="274.658203" xlink:href="#DejaVuSans-30"/>
       <use x="338.28125" xlink:href="#DejaVuSans-30"/>
      </g>
     </g>
    </g>
    <g id="ytick_5">
     <g id="line2d_27">
      <path clip-path="url(#pcd59235f02)" d="M 81 185.041776 
L 583.2 185.041776 
" style="fill:none;stroke:#b0b0b0;stroke-linecap:square;stroke-width:0.8;"/>
     </g>
     <g id="line2d_28">
      <g>
       <use style="stroke:#000000;stroke-width:0.8;" x="81" xlink:href="#ma02f80eeb0" y="185.041776"/>
      </g>
     </g>
     <g id="text_15">
      <!-- 0 -->
      <g transform="translate(67.6375 188.840995)scale(0.1 -0.1)">
       <use xlink:href="#DejaVuSans-30"/>
      </g>
     </g>
    </g>
    <g id="ytick_6">
     <g id="line2d_29">
      <path clip-path="url(#pcd59235f02)" d="M 81 139.27002 
L 583.2 139.27002 
" style="fill:none;stroke:#b0b0b0;stroke-linecap:square;stroke-width:0.8;"/>
     </g>
     <g id="line2d_30">
      <g>
       <use style="stroke:#000000;stroke-width:0.8;" x="81" xlink:href="#ma02f80eeb0" y="139.27002"/>
      </g>
     </g>
     <g id="text_16">
      <!-- 25000 -->
      <g transform="translate(42.1875 143.069239)scale(0.1 -0.1)">
       <use xlink:href="#DejaVuSans-32"/>
       <use x="63.623047" xlink:href="#DejaVuSans-35"/>
       <use x="127.246094" xlink:href="#DejaVuSans-30"/>
       <use x="190.869141" xlink:href="#DejaVuSans-30"/>
       <use x="254.492188" xlink:href="#DejaVuSans-30"/>
      </g>
     </g>
    </g>
    <g id="ytick_7">
     <g id="line2d_31">
      <path clip-path="url(#pcd59235f02)" d="M 81 93.498264 
L 583.2 93.498264 
" style="fill:none;stroke:#b0b0b0;stroke-linecap:square;stroke-width:0.8;"/>
     </g>
     <g id="line2d_32">
      <g>
       <use style="stroke:#000000;stroke-width:0.8;" x="81" xlink:href="#ma02f80eeb0" y="93.498264"/>
      </g>
     </g>
     <g id="text_17">
      <!-- 50000 -->
      <g transform="translate(42.1875 97.297483)scale(0.1 -0.1)">
       <use xlink:href="#DejaVuSans-35"/>
       <use x="63.623047" xlink:href="#DejaVuSans-30"/>
       <use x="127.246094" xlink:href="#DejaVuSans-30"/>
       <use x="190.869141" xlink:href="#DejaVuSans-30"/>
       <use x="254.492188" xlink:href="#DejaVuSans-30"/>
      </g>
     </g>
    </g>
    <g id="text_18">
     <!-- Service Power (kW) -->
     <defs>
      <path d="M 59.90625 70.609375 
L 59.90625 55.171875 
Q 53.90625 57.859375 48.1875 59.21875 
Q 42.484375 60.59375 37.40625 60.59375 
Q 30.671875 60.59375 27.4375 58.734375 
Q 24.21875 56.890625 24.21875 52.984375 
Q 24.21875 50.046875 26.390625 48.40625 
Q 28.5625 46.78125 34.28125 45.609375 
L 42.28125 44 
Q 54.4375 41.546875 59.5625 36.5625 
Q 64.703125 31.59375 64.703125 22.40625 
Q 64.703125 10.359375 57.546875 4.46875 
Q 50.390625 -1.421875 35.6875 -1.421875 
Q 28.765625 -1.421875 21.78125 -0.09375 
Q 14.796875 1.21875 7.8125 3.8125 
L 7.8125 19.671875 
Q 14.796875 15.96875 21.3125 14.078125 
Q 27.828125 12.203125 33.890625 12.203125 
Q 40.046875 12.203125 43.3125 14.25 
Q 46.578125 16.3125 46.578125 20.125 
Q 46.578125 23.53125 44.359375 25.390625 
Q 42.140625 27.25 35.5 28.71875 
L 28.21875 30.328125 
Q 17.28125 32.671875 12.21875 37.796875 
Q 7.171875 42.921875 7.171875 51.609375 
Q 7.171875 62.5 14.203125 68.359375 
Q 21.234375 74.21875 34.421875 74.21875 
Q 40.4375 74.21875 46.78125 73.3125 
Q 53.125 72.40625 59.90625 70.609375 
z
" id="DejaVuSans-Bold-53"/>
      <path d="M 49.03125 39.796875 
Q 46.734375 40.875 44.453125 41.375 
Q 42.1875 41.890625 39.890625 41.890625 
Q 33.15625 41.890625 29.515625 37.5625 
Q 25.875 33.25 25.875 25.203125 
L 25.875 0 
L 8.40625 0 
L 8.40625 54.6875 
L 25.875 54.6875 
L 25.875 45.703125 
Q 29.25 51.078125 33.609375 53.53125 
Q 37.984375 56 44.09375 56 
Q 44.96875 56 45.984375 55.921875 
Q 47.015625 55.859375 48.96875 55.609375 
z
" id="DejaVuSans-Bold-72"/>
      <path d="M 1.515625 54.6875 
L 19 54.6875 
L 32.625 16.890625 
L 46.1875 54.6875 
L 63.71875 54.6875 
L 42.1875 0 
L 23 0 
z
" id="DejaVuSans-Bold-76"/>
      <path d="M 8.40625 54.6875 
L 25.875 54.6875 
L 25.875 0 
L 8.40625 0 
z
M 8.40625 75.984375 
L 25.875 75.984375 
L 25.875 61.71875 
L 8.40625 61.71875 
z
" id="DejaVuSans-Bold-69"/>
      <path d="M 9.1875 72.90625 
L 40.375 72.90625 
Q 54.296875 72.90625 61.734375 66.71875 
Q 69.1875 60.546875 69.1875 49.125 
Q 69.1875 37.640625 61.734375 31.46875 
Q 54.296875 25.296875 40.375 25.296875 
L 27.984375 25.296875 
L 27.984375 0 
L 9.1875 0 
z
M 27.984375 59.28125 
L 27.984375 38.921875 
L 38.375 38.921875 
Q 43.84375 38.921875 46.828125 41.578125 
Q 49.8125 44.234375 49.8125 49.125 
Q 49.8125 54 46.828125 56.640625 
Q 43.84375 59.28125 38.375 59.28125 
z
" id="DejaVuSans-Bold-50"/>
      <path d="M 34.421875 43.5 
Q 28.609375 43.5 25.5625 39.328125 
Q 22.515625 35.15625 22.515625 27.296875 
Q 22.515625 19.4375 25.5625 15.25 
Q 28.609375 11.078125 34.421875 11.078125 
Q 40.140625 11.078125 43.15625 15.25 
Q 46.1875 19.4375 46.1875 27.296875 
Q 46.1875 35.15625 43.15625 39.328125 
Q 40.140625 43.5 34.421875 43.5 
z
M 34.421875 56 
Q 48.53125 56 56.46875 48.375 
Q 64.40625 40.765625 64.40625 27.296875 
Q 64.40625 13.8125 56.46875 6.1875 
Q 48.53125 -1.421875 34.421875 -1.421875 
Q 20.265625 -1.421875 12.28125 6.1875 
Q 4.296875 13.8125 4.296875 27.296875 
Q 4.296875 40.765625 12.28125 48.375 
Q 20.265625 56 34.421875 56 
z
" id="DejaVuSans-Bold-6f"/>
      <path d="M 3.515625 54.6875 
L 20.515625 54.6875 
L 29.6875 17 
L 38.921875 54.6875 
L 53.515625 54.6875 
L 62.703125 17.390625 
L 71.921875 54.6875 
L 88.921875 54.6875 
L 74.515625 0 
L 55.421875 0 
L 46.1875 37.59375 
L 37.015625 0 
L 17.921875 0 
z
" id="DejaVuSans-Bold-77"/>
      <path d="M 8.40625 75.984375 
L 25.875 75.984375 
L 25.875 34.625 
L 46 54.6875 
L 66.3125 54.6875 
L 39.59375 29.59375 
L 68.40625 0 
L 47.21875 0 
L 25.875 22.796875 
L 25.875 0 
L 8.40625 0 
z
" id="DejaVuSans-Bold-6b"/>
      <path d="M 2.984375 72.90625 
L 21 72.90625 
L 33.59375 19.921875 
L 46.09375 72.90625 
L 64.203125 72.90625 
L 76.703125 19.921875 
L 89.3125 72.90625 
L 107.171875 72.90625 
L 89.984375 0 
L 68.3125 0 
L 55.078125 55.421875 
L 42 0 
L 20.3125 0 
z
" id="DejaVuSans-Bold-57"/>
     </defs>
     <g transform="translate(20.53375 294.789363)rotate(-90)scale(0.14 -0.14)">
      <use xlink:href="#DejaVuSans-Bold-53"/>
      <use x="72.021484" xlink:href="#DejaVuSans-Bold-65"/>
      <use x="139.84375" xlink:href="#DejaVuSans-Bold-72"/>
      <use x="189.160156" xlink:href="#DejaVuSans-Bold-76"/>
      <use x="254.345703" xlink:href="#DejaVuSans-Bold-69"/>
      <use x="288.623047" xlink:href="#DejaVuSans-Bold-63"/>
      <use x="347.900391" xlink:href="#DejaVuSans-Bold-65"/>
      <use x="415.722656" xlink:href="#DejaVuSans-Bold-20"/>
      <use x="450.537109" xlink:href="#DejaVuSans-Bold-50"/>
      <use x="523.828125" xlink:href="#DejaVuSans-Bold-6f"/>
      <use x="592.529297" xlink:href="#DejaVuSans-Bold-77"/>
      <use x="684.912109" xlink:href="#DejaVuSans-Bold-65"/>
      <use x="752.734375" xlink:href="#DejaVuSans-Bold-72"/>
      <use x="802.050781" xlink:href="#DejaVuSans-Bold-20"/>
      <use x="836.865234" xlink:href="#DejaVuSans-Bold-28"/>
      <use x="882.568359" xlink:href="#DejaVuSans-Bold-6b"/>
      <use x="949.072266" xlink:href="#DejaVuSans-Bold-57"/>
      <use x="1059.375" xlink:href="#DejaVuSans-Bold-29"/>
     </g>
    </g>
   </g>
   <g id="line2d_33">
    <path clip-path="url(#pcd59235f02)" d="M 81 96.53154 
L 81 71.266922 
L 84.511888 71.266922 
L 84.511888 84.088873 
L 88.023776 84.088873 
L 88.023776 93.094557 
L 91.535664 93.094557 
L 91.535664 66.7368 
L 95.047552 66.7368 
L 95.047552 109.757673 
L 98.559441 109.757673 
L 98.559441 117.370798 
L 102.071329 117.370798 
L 102.071329 86.343223 
L 105.583217 86.343223 
L 105.583217 149.880166 
L 109.095105 149.880166 
L 109.095105 197.549254 
L 112.606993 197.549254 
L 112.606993 155.410531 
L 116.118881 155.410531 
L 116.118881 177.677025 
L 119.630769 177.677025 
L 119.630769 192.502497 
L 123.142657 192.502497 
L 123.142657 197.063288 
L 126.654545 197.063288 
L 126.654545 260.313209 
L 130.166434 260.313209 
L 130.166434 278.919263 
L 133.678322 278.919263 
L 133.678322 264.008656 
L 137.19021 264.008656 
L 137.19021 233.258824 
L 140.702098 233.258824 
L 140.702098 247.691995 
L 144.213986 247.691995 
L 144.213986 170.321891 
L 147.725874 170.321891 
L 147.725874 150.633884 
L 151.237762 150.633884 
L 151.237762 148.793182 
L 154.74965 148.793182 
L 154.74965 163.247811 
L 158.261538 163.247811 
L 158.261538 151.406291 
L 161.773427 151.406291 
L 161.773427 161.340593 
L 165.285315 161.340593 
L 165.285315 152.67362 
L 168.797203 152.67362 
L 168.797203 179.157945 
L 172.309091 179.157945 
L 172.309091 225.94761 
L 175.820979 225.94761 
L 175.820979 145.937262 
L 179.332867 145.937262 
L 179.332867 159.173575 
L 182.844755 159.173575 
L 182.844755 158.511295 
L 186.356643 158.511295 
L 186.356643 161.331897 
L 189.868531 161.331897 
L 189.868531 145.536173 
L 193.38042 145.536173 
L 193.38042 197.538948 
L 196.892308 197.538948 
L 196.892308 209.72859 
L 200.404196 209.72859 
L 200.404196 188.32092 
L 203.916084 188.32092 
L 203.916084 209.415273 
L 207.427972 209.415273 
L 207.427972 227.488745 
L 210.93986 227.488745 
L 210.93986 241.054981 
L 214.451748 241.054981 
L 214.451748 297.542857 
L 217.963636 297.542857 
L 217.963636 274.530081 
L 221.475524 274.530081 
L 221.475524 279.248783 
L 224.987413 279.248783 
L 224.987413 206.537255 
L 228.499301 206.537255 
L 228.499301 272.795863 
L 232.011189 272.795863 
L 232.011189 255.182543 
L 235.523077 255.182543 
L 235.523077 276.886887 
L 239.034965 276.886887 
L 239.034965 234.166515 
L 242.546853 234.166515 
L 242.546853 191.084142 
L 246.058741 191.084142 
L 246.058741 198.110491 
L 249.570629 198.110491 
L 249.570629 194.749892 
L 253.082517 194.749892 
L 253.082517 217.329521 
L 256.594406 217.329521 
L 256.594406 268.198383 
L 260.106294 268.198383 
L 260.106294 248.483059 
L 263.618182 248.483059 
L 263.618182 220.794735 
L 267.13007 220.794735 
L 267.13007 267.366142 
L 270.641958 267.366142 
L 270.641958 279.331612 
L 274.153846 279.331612 
L 274.153846 290.114723 
L 277.665734 290.114723 
L 277.665734 304.368231 
L 281.177622 304.368231 
L 281.177622 304.985454 
L 284.68951 304.985454 
L 284.68951 304.650021 
L 288.201399 304.650021 
L 288.201399 307.979312 
L 291.713287 307.979312 
L 291.713287 283.988998 
L 295.225175 283.988998 
L 295.225175 312.593343 
L 298.737063 312.593343 
L 298.737063 264.352017 
L 302.248951 264.352017 
L 302.248951 270.938243 
L 305.760839 270.938243 
L 305.760839 269.771741 
L 309.272727 269.771741 
L 309.272727 265.039271 
L 312.784615 265.039271 
L 312.784615 256.366549 
L 316.296503 256.366549 
L 316.296503 270.976051 
L 319.808392 270.976051 
L 319.808392 267.79008 
L 323.32028 267.79008 
L 323.32028 263.773627 
L 326.832168 263.773627 
L 326.832168 262.691217 
L 330.344056 262.691217 
L 330.344056 266.456236 
L 333.855944 266.456236 
L 333.855944 259.490123 
L 337.367832 259.490123 
L 337.367832 247.24995 
L 340.87972 247.24995 
L 340.87972 248.497097 
L 344.391608 248.497097 
L 344.391608 241.993917 
L 347.903497 241.993917 
L 347.903497 242.505096 
L 351.415385 242.505096 
L 351.415385 233.74787 
L 354.927273 233.74787 
L 354.927273 230.57906 
L 358.439161 230.57906 
L 358.439161 231.230128 
L 361.951049 231.230128 
L 361.951049 225.584764 
L 365.462937 225.584764 
L 365.462937 228.158393 
L 368.974825 228.158393 
L 368.974825 216.19329 
L 372.486713 216.19329 
L 372.486713 221.786657 
L 375.998601 221.786657 
L 375.998601 209.993451 
L 379.51049 209.993451 
L 379.51049 208.617297 
L 383.022378 208.617297 
L 383.022378 210.161237 
L 386.534266 210.161237 
L 386.534266 211.740842 
L 390.046154 211.740842 
L 390.046154 210.559565 
L 393.558042 210.559565 
L 393.558042 208.292001 
L 397.06993 208.292001 
L 397.06993 198.08528 
L 400.581818 198.08528 
L 400.581818 194.851671 
L 404.093706 194.851671 
L 404.093706 198.960583 
L 407.605594 198.960583 
L 407.605594 196.880051 
L 411.117483 196.880051 
L 411.117483 197.98619 
L 414.629371 197.98619 
L 414.629371 192.418074 
L 418.141259 192.418074 
L 418.141259 198.044621 
L 421.653147 198.044621 
L 421.653147 195.169715 
L 425.165035 195.169715 
L 425.165035 195.500879 
L 428.676923 195.500879 
L 428.676923 189.397343 
L 432.188811 189.397343 
L 432.188811 186.417492 
L 435.700699 186.417492 
L 435.700699 187.1598 
L 442.724476 187.1598 
L 442.724476 196.296575 
L 446.236364 196.296575 
L 446.236364 195.265795 
L 449.748252 195.265795 
L 449.748252 191.985901 
L 460.283916 191.985901 
L 460.283916 186.353726 
L 477.843357 186.342012 
L 477.843357 206.920994 
L 484.867133 206.956135 
L 484.867133 209.303311 
L 488.379021 209.303311 
L 488.379021 207.733171 
L 491.890909 207.733171 
L 491.890909 189.662482 
L 495.402797 189.662482 
L 495.402797 192.73871 
L 498.914685 192.73871 
L 498.914685 186.128136 
L 502.426573 186.128136 
L 502.426573 163.194629 
L 505.938462 163.194629 
L 505.938462 167.058098 
L 509.45035 167.058098 
L 509.45035 130.289407 
L 512.962238 130.289407 
L 512.962238 126.22141 
L 516.474126 126.22141 
L 516.474126 130.934414 
L 519.986014 130.934414 
L 519.986014 86.482671 
L 523.497902 86.482671 
L 523.497902 127.954272 
L 527.00979 127.954272 
L 527.00979 164.218838 
L 530.521678 164.218838 
L 530.521678 162.115037 
L 534.033566 162.115037 
L 534.033566 145.066671 
L 537.545455 145.066671 
L 537.545455 159.50056 
L 541.057343 159.50056 
L 541.057343 154.092123 
L 544.569231 154.092123 
L 544.569231 162.336202 
L 548.081119 162.336202 
L 548.081119 144.701791 
L 551.593007 144.701791 
L 551.593007 155.19678 
L 555.104895 155.19678 
L 555.104895 142.658172 
L 558.616783 142.658172 
L 558.616783 146.010304 
L 562.128671 146.010304 
L 562.128671 138.660029 
L 565.640559 138.660029 
L 565.640559 130.150492 
L 569.152448 130.150492 
L 569.152448 123.539366 
L 572.664336 123.539366 
L 572.664336 117.194028 
L 576.176224 117.194028 
L 576.176224 142.515897 
L 579.688112 142.515897 
L 579.688112 124.8376 
L 583.2 124.8376 
L 583.2 124.8376 
" style="fill:none;stroke:#000000;stroke-linecap:square;stroke-width:1.75;"/>
   </g>
   <g id="line2d_34">
    <path clip-path="url(#pcd59235f02)" d="M 81 300.278492 
L 81 304.112953 
L 84.511888 304.112953 
L 84.511888 307.895013 
L 88.023776 307.895013 
L 88.023776 311.617473 
L 91.535664 311.617473 
L 91.535664 315.273248 
L 95.047552 315.273248 
L 95.047552 318.855378 
L 98.559441 318.855378 
L 98.559441 322.357044 
L 102.071329 322.357044 
L 102.071329 325.771581 
L 105.583217 325.771581 
L 105.583217 329.092489 
L 109.095105 329.092489 
L 109.095105 332.313447 
L 112.606993 332.313447 
L 112.606993 335.428323 
L 116.118881 335.428323 
L 116.118881 338.431188 
L 119.630769 338.431188 
L 119.630769 341.316326 
L 123.142657 341.316326 
L 123.142657 344.078245 
L 126.654545 344.078245 
L 126.654545 346.711687 
L 130.166434 346.711687 
L 130.166434 349.211639 
L 133.678322 349.211639 
L 133.678322 351.573343 
L 137.19021 351.573343 
L 137.19021 353.792303 
L 140.702098 353.792303 
L 140.702098 355.864295 
L 144.213986 355.864295 
L 144.213986 357.785375 
L 147.725874 357.785375 
L 147.725874 359.551886 
L 151.237762 359.551886 
L 151.237762 361.160465 
L 154.74965 361.160465 
L 154.74965 362.608051 
L 158.261538 362.608051 
L 158.261538 363.891887 
L 161.773427 363.891887 
L 161.773427 365.00953 
L 165.285315 365.00953 
L 165.285315 365.958853 
L 168.797203 365.958853 
L 168.797203 366.738048 
L 172.309091 366.738048 
L 172.309091 367.345633 
L 175.820979 367.345633 
L 175.820979 367.780449 
L 179.332867 367.780449 
L 179.332867 368.041671 
L 189.868531 368.041671 
L 189.868531 367.780449 
L 193.38042 367.780449 
L 193.38042 367.345633 
L 196.892308 367.345633 
L 196.892308 366.738048 
L 200.404196 366.738048 
L 200.404196 365.958853 
L 203.916084 365.958853 
L 203.916084 365.00953 
L 207.427972 365.00953 
L 207.427972 363.891887 
L 210.93986 363.891887 
L 210.93986 362.608051 
L 214.451748 362.608051 
L 214.451748 361.160465 
L 217.963636 361.160465 
L 217.963636 359.551886 
L 221.475524 359.551886 
L 221.475524 357.785375 
L 224.987413 357.785375 
L 224.987413 355.864295 
L 228.499301 355.864295 
L 228.499301 353.792303 
L 232.011189 353.792303 
L 232.011189 351.573343 
L 235.523077 351.573343 
L 235.523077 349.211639 
L 239.034965 349.211639 
L 239.034965 346.711687 
L 242.546853 346.711687 
L 242.546853 344.078245 
L 246.058741 344.078245 
L 246.058741 341.316326 
L 249.570629 341.316326 
L 249.570629 338.431188 
L 253.082517 338.431188 
L 253.082517 335.428323 
L 256.594406 335.428323 
L 256.594406 332.313447 
L 260.106294 332.313447 
L 260.106294 329.092489 
L 263.618182 329.092489 
L 263.618182 325.771581 
L 267.13007 325.771581 
L 267.13007 322.357044 
L 270.641958 322.357044 
L 270.641958 318.855378 
L 274.153846 318.855378 
L 274.153846 315.273248 
L 277.665734 315.273248 
L 277.665734 311.617473 
L 281.177622 311.617473 
L 281.177622 307.895013 
L 284.68951 307.895013 
L 284.68951 304.112953 
L 288.201399 304.112953 
L 288.201399 300.278492 
L 291.713287 300.278492 
L 291.713287 296.39893 
L 295.225175 296.39893 
L 295.225175 292.481652 
L 298.737063 292.481652 
L 298.737063 288.534114 
L 302.248951 288.534114 
L 302.248951 284.563831 
L 305.760839 284.563831 
L 305.760839 280.57836 
L 309.272727 280.57836 
L 309.272727 276.585288 
L 312.784615 276.585288 
L 312.784615 272.592216 
L 316.296503 272.592216 
L 316.296503 268.606745 
L 319.808392 268.606745 
L 319.808392 264.636462 
L 323.32028 264.636462 
L 323.32028 260.688924 
L 326.832168 260.688924 
L 326.832168 256.771646 
L 330.344056 256.771646 
L 330.344056 252.892084 
L 333.855944 252.892084 
L 333.855944 249.057623 
L 337.367832 249.057623 
L 337.367832 245.275563 
L 340.87972 245.275563 
L 340.87972 241.553103 
L 344.391608 241.553103 
L 344.391608 237.897328 
L 347.903497 237.897328 
L 347.903497 234.315198 
L 351.415385 234.315198 
L 351.415385 230.813532 
L 354.927273 230.813532 
L 354.927273 227.398995 
L 358.439161 227.398995 
L 358.439161 224.078087 
L 361.951049 224.078087 
L 361.951049 220.857129 
L 365.462937 220.857129 
L 365.462937 217.742253 
L 368.974825 217.742253 
L 368.974825 214.739388 
L 372.486713 214.739388 
L 372.486713 211.85425 
L 375.998601 211.85425 
L 375.998601 209.092331 
L 379.51049 209.092331 
L 379.51049 206.458889 
L 383.022378 206.458889 
L 383.022378 203.958937 
L 386.534266 203.958937 
L 386.534266 201.597233 
L 390.046154 201.597233 
L 390.046154 199.378273 
L 393.558042 199.378273 
L 393.558042 197.306281 
L 397.06993 197.306281 
L 397.06993 195.385201 
L 400.581818 195.385201 
L 400.581818 193.61869 
L 404.093706 193.61869 
L 404.093706 192.010111 
L 407.605594 192.010111 
L 407.605594 190.562525 
L 411.117483 190.562525 
L 411.117483 189.278689 
L 414.629371 189.278689 
L 414.629371 188.161046 
L 418.141259 188.161046 
L 418.141259 187.211723 
L 421.653147 187.211723 
L 421.653147 186.432528 
L 425.165035 186.432528 
L 425.165035 185.824944 
L 428.676923 185.824944 
L 428.676923 185.390127 
L 432.188811 185.390127 
L 432.188811 185.128905 
L 442.724476 185.128905 
L 442.724476 185.390127 
L 446.236364 185.390127 
L 446.236364 185.824944 
L 449.748252 185.824944 
L 449.748252 186.432528 
L 453.26014 186.432528 
L 453.26014 187.211723 
L 456.772028 187.211723 
L 456.772028 188.161046 
L 460.283916 188.161046 
L 460.283916 189.278689 
L 463.795804 189.278689 
L 463.795804 190.562525 
L 467.307692 190.562525 
L 467.307692 192.010111 
L 470.81958 192.010111 
L 470.81958 193.61869 
L 474.331469 193.61869 
L 474.331469 195.385201 
L 477.843357 195.385201 
L 477.843357 197.306281 
L 481.355245 197.306281 
L 481.355245 199.378273 
L 484.867133 199.378273 
L 484.867133 201.597233 
L 488.379021 201.597233 
L 488.379021 203.958937 
L 491.890909 203.958937 
L 491.890909 206.458889 
L 495.402797 206.458889 
L 495.402797 209.092331 
L 498.914685 209.092331 
L 498.914685 211.85425 
L 502.426573 211.85425 
L 502.426573 214.739388 
L 505.938462 214.739388 
L 505.938462 217.742253 
L 509.45035 217.742253 
L 509.45035 220.857129 
L 512.962238 220.857129 
L 512.962238 224.078087 
L 516.474126 224.078087 
L 516.474126 227.398995 
L 519.986014 227.398995 
L 519.986014 230.813532 
L 523.497902 230.813532 
L 523.497902 234.315198 
L 527.00979 234.315198 
L 527.00979 237.897328 
L 530.521678 237.897328 
L 530.521678 241.553103 
L 534.033566 241.553103 
L 534.033566 245.275563 
L 537.545455 245.275563 
L 537.545455 249.057623 
L 541.057343 249.057623 
L 541.057343 252.892084 
L 544.569231 252.892084 
L 544.569231 256.771646 
L 548.081119 256.771646 
L 548.081119 260.688924 
L 551.593007 260.688924 
L 551.593007 264.636462 
L 555.104895 264.636462 
L 555.104895 268.606745 
L 558.616783 268.606745 
L 558.616783 272.592216 
L 562.128671 272.592216 
L 562.128671 276.585288 
L 565.640559 276.585288 
L 565.640559 280.57836 
L 569.152448 280.57836 
L 569.152448 284.563831 
L 572.664336 284.563831 
L 572.664336 288.534114 
L 576.176224 288.534114 
L 576.176224 292.481652 
L 579.688112 292.481652 
L 579.688112 296.39893 
L 583.2 296.39893 
L 583.2 296.39893 
" style="fill:none;stroke:#ff0000;stroke-linecap:square;stroke-width:1.75;"/>
   </g>
   <g id="patch_3">
    <path d="M 81 383.1984 
L 81 51.6672 
" style="fill:none;stroke:#000000;stroke-linecap:square;stroke-linejoin:miter;stroke-width:0.8;"/>
   </g>
   <g id="patch_4">
    <path d="M 583.2 383.1984 
L 583.2 51.6672 
" style="fill:none;stroke:#000000;stroke-linecap:square;stroke-linejoin:miter;stroke-width:0.8;"/>
   </g>
   <g id="patch_5">
    <path d="M 81 383.1984 
L 583.2 383.1984 
" style="fill:none;stroke:#000000;stroke-linecap:square;stroke-linejoin:miter;stroke-width:0.8;"/>
   </g>
   <g id="patch_6">
    <path d="M 81 51.6672 
L 583.2 51.6672 
" style="fill:none;stroke:#000000;stroke-linecap:square;stroke-linejoin:miter;stroke-width:0.8;"/>
   </g>
   <g id="text_19">
    <!-- Initial hour of request: 5:0:0| 24 hours of simulation| dt = 10 min -->
    <defs>
     <path d="M 9.1875 72.90625 
L 27.984375 72.90625 
L 27.984375 0 
L 9.1875 0 
z
" id="DejaVuSans-Bold-49"/>
     <path d="M 63.375 33.296875 
L 63.375 0 
L 45.796875 0 
L 45.796875 5.421875 
L 45.796875 25.484375 
Q 45.796875 32.5625 45.484375 35.25 
Q 45.171875 37.9375 44.390625 39.203125 
Q 43.359375 40.921875 41.59375 41.875 
Q 39.84375 42.828125 37.59375 42.828125 
Q 32.125 42.828125 29 38.59375 
Q 25.875 34.375 25.875 26.90625 
L 25.875 0 
L 8.40625 0 
L 8.40625 54.6875 
L 25.875 54.6875 
L 25.875 46.6875 
Q 29.828125 51.46875 34.265625 53.734375 
Q 38.71875 56 44.09375 56 
Q 53.5625 56 58.46875 50.1875 
Q 63.375 44.390625 63.375 33.296875 
z
" id="DejaVuSans-Bold-6e"/>
     <path d="M 27.484375 70.21875 
L 27.484375 54.6875 
L 45.515625 54.6875 
L 45.515625 42.1875 
L 27.484375 42.1875 
L 27.484375 19 
Q 27.484375 15.1875 29 13.84375 
Q 30.515625 12.5 35.015625 12.5 
L 44 12.5 
L 44 0 
L 29 0 
Q 18.65625 0 14.328125 4.3125 
Q 10.015625 8.640625 10.015625 19 
L 10.015625 42.1875 
L 1.3125 42.1875 
L 1.3125 54.6875 
L 10.015625 54.6875 
L 10.015625 70.21875 
z
" id="DejaVuSans-Bold-74"/>
     <path d="M 32.90625 24.609375 
Q 27.4375 24.609375 24.671875 22.75 
Q 21.921875 20.90625 21.921875 17.28125 
Q 21.921875 13.96875 24.140625 12.078125 
Q 26.375 10.203125 30.328125 10.203125 
Q 35.25 10.203125 38.625 13.734375 
Q 42 17.28125 42 22.609375 
L 42 24.609375 
z
M 59.625 31.203125 
L 59.625 0 
L 42 0 
L 42 8.109375 
Q 38.484375 3.125 34.078125 0.84375 
Q 29.6875 -1.421875 23.390625 -1.421875 
Q 14.890625 -1.421875 9.59375 3.53125 
Q 4.296875 8.5 4.296875 16.40625 
Q 4.296875 26.03125 10.90625 30.515625 
Q 17.53125 35.015625 31.6875 35.015625 
L 42 35.015625 
L 42 36.375 
Q 42 40.53125 38.71875 42.453125 
Q 35.453125 44.390625 28.515625 44.390625 
Q 22.90625 44.390625 18.0625 43.265625 
Q 13.234375 42.140625 9.078125 39.890625 
L 9.078125 53.21875 
Q 14.703125 54.59375 20.359375 55.296875 
Q 26.03125 56 31.6875 56 
Q 46.484375 56 53.046875 50.171875 
Q 59.625 44.34375 59.625 31.203125 
z
" id="DejaVuSans-Bold-61"/>
     <path d="M 8.40625 75.984375 
L 25.875 75.984375 
L 25.875 0 
L 8.40625 0 
z
" id="DejaVuSans-Bold-6c"/>
     <path d="M 63.375 33.296875 
L 63.375 0 
L 45.796875 0 
L 45.796875 5.421875 
L 45.796875 25.390625 
Q 45.796875 32.5625 45.484375 35.25 
Q 45.171875 37.9375 44.390625 39.203125 
Q 43.359375 40.921875 41.59375 41.875 
Q 39.84375 42.828125 37.59375 42.828125 
Q 32.125 42.828125 29 38.59375 
Q 25.875 34.375 25.875 26.90625 
L 25.875 0 
L 8.40625 0 
L 8.40625 75.984375 
L 25.875 75.984375 
L 25.875 46.6875 
Q 29.828125 51.46875 34.265625 53.734375 
Q 38.71875 56 44.09375 56 
Q 53.5625 56 58.46875 50.1875 
Q 63.375 44.390625 63.375 33.296875 
z
" id="DejaVuSans-Bold-68"/>
     <path d="M 7.8125 21.296875 
L 7.8125 54.6875 
L 25.390625 54.6875 
L 25.390625 49.21875 
Q 25.390625 44.78125 25.34375 38.0625 
Q 25.296875 31.34375 25.296875 29.109375 
Q 25.296875 22.515625 25.640625 19.609375 
Q 25.984375 16.703125 26.8125 15.375 
Q 27.875 13.671875 29.609375 12.734375 
Q 31.34375 11.8125 33.59375 11.8125 
Q 39.0625 11.8125 42.1875 16.015625 
Q 45.3125 20.21875 45.3125 27.6875 
L 45.3125 54.6875 
L 62.796875 54.6875 
L 62.796875 0 
L 45.3125 0 
L 45.3125 7.90625 
Q 41.359375 3.125 36.9375 0.84375 
Q 32.515625 -1.421875 27.203125 -1.421875 
Q 17.71875 -1.421875 12.765625 4.390625 
Q 7.8125 10.203125 7.8125 21.296875 
z
" id="DejaVuSans-Bold-75"/>
     <path d="M 44.390625 75.984375 
L 44.390625 64.5 
L 34.71875 64.5 
Q 31 64.5 29.53125 63.15625 
Q 28.078125 61.8125 28.078125 58.5 
L 28.078125 54.6875 
L 43.015625 54.6875 
L 43.015625 42.1875 
L 28.078125 42.1875 
L 28.078125 0 
L 10.59375 0 
L 10.59375 42.1875 
L 1.90625 42.1875 
L 1.90625 54.6875 
L 10.59375 54.6875 
L 10.59375 58.5 
Q 10.59375 67.4375 15.578125 71.703125 
Q 20.5625 75.984375 31 75.984375 
z
" id="DejaVuSans-Bold-66"/>
     <path d="M 34.078125 43.3125 
Q 28.515625 43.3125 25.5625 39.203125 
Q 22.609375 35.109375 22.609375 27.296875 
Q 22.609375 19.484375 25.5625 15.375 
Q 28.515625 11.28125 34.078125 11.28125 
Q 39.703125 11.28125 42.65625 15.375 
Q 45.609375 19.484375 45.609375 27.296875 
Q 45.609375 35.109375 42.65625 39.203125 
Q 39.703125 43.3125 34.078125 43.3125 
z
M 45.609375 7.90625 
Q 42 3.078125 37.640625 0.828125 
Q 33.296875 -1.421875 27.59375 -1.421875 
Q 17.484375 -1.421875 10.984375 6.609375 
Q 4.5 14.65625 4.5 27.296875 
Q 4.5 39.9375 10.984375 47.921875 
Q 17.484375 55.90625 27.59375 55.90625 
Q 33.296875 55.90625 37.640625 53.65625 
Q 42 51.421875 45.609375 46.578125 
L 45.609375 54.6875 
L 63.1875 54.6875 
L 63.1875 -20.796875 
L 45.609375 -20.796875 
z
" id="DejaVuSans-Bold-71"/>
     <path d="M 11.1875 54.6875 
L 28.8125 54.6875 
L 28.8125 35.796875 
L 11.1875 35.796875 
z
M 11.1875 18.890625 
L 28.8125 18.890625 
L 28.8125 0 
L 11.1875 0 
z
" id="DejaVuSans-Bold-3a"/>
     <path d="M 10.59375 72.90625 
L 57.328125 72.90625 
L 57.328125 59.078125 
L 25.59375 59.078125 
L 25.59375 47.796875 
Q 27.734375 48.390625 29.90625 48.703125 
Q 32.078125 49.03125 34.421875 49.03125 
Q 47.75 49.03125 55.171875 42.359375 
Q 62.59375 35.6875 62.59375 23.78125 
Q 62.59375 11.96875 54.515625 5.265625 
Q 46.4375 -1.421875 32.078125 -1.421875 
Q 25.875 -1.421875 19.796875 -0.21875 
Q 13.71875 0.984375 7.71875 3.421875 
L 7.71875 18.21875 
Q 13.671875 14.796875 19.015625 13.078125 
Q 24.359375 11.375 29.109375 11.375 
Q 35.9375 11.375 39.859375 14.71875 
Q 43.796875 18.0625 43.796875 23.78125 
Q 43.796875 29.546875 39.859375 32.859375 
Q 35.9375 36.1875 29.109375 36.1875 
Q 25.046875 36.1875 20.453125 35.125 
Q 15.875 34.078125 10.59375 31.890625 
z
" id="DejaVuSans-Bold-35"/>
     <path d="M 46 36.53125 
Q 46 50.203125 43.4375 55.78125 
Q 40.875 61.375 34.8125 61.375 
Q 28.765625 61.375 26.171875 55.78125 
Q 23.578125 50.203125 23.578125 36.53125 
Q 23.578125 22.703125 26.171875 17.03125 
Q 28.765625 11.375 34.8125 11.375 
Q 40.828125 11.375 43.40625 17.03125 
Q 46 22.703125 46 36.53125 
z
M 64.796875 36.375 
Q 64.796875 18.265625 56.984375 8.421875 
Q 49.171875 -1.421875 34.8125 -1.421875 
Q 20.40625 -1.421875 12.59375 8.421875 
Q 4.78125 18.265625 4.78125 36.375 
Q 4.78125 54.546875 12.59375 64.375 
Q 20.40625 74.21875 34.8125 74.21875 
Q 49.171875 74.21875 56.984375 64.375 
Q 64.796875 54.546875 64.796875 36.375 
z
" id="DejaVuSans-Bold-30"/>
     <path d="M 23.78125 76.421875 
L 23.78125 -23.578125 
L 12.703125 -23.578125 
L 12.703125 76.421875 
z
" id="DejaVuSans-Bold-7c"/>
     <path d="M 28.8125 13.8125 
L 60.890625 13.8125 
L 60.890625 0 
L 7.90625 0 
L 7.90625 13.8125 
L 34.515625 37.3125 
Q 38.09375 40.53125 39.796875 43.609375 
Q 41.5 46.6875 41.5 50 
Q 41.5 55.125 38.0625 58.25 
Q 34.625 61.375 28.90625 61.375 
Q 24.515625 61.375 19.28125 59.5 
Q 14.0625 57.625 8.109375 53.90625 
L 8.109375 69.921875 
Q 14.453125 72.015625 20.65625 73.109375 
Q 26.859375 74.21875 32.8125 74.21875 
Q 45.90625 74.21875 53.15625 68.453125 
Q 60.40625 62.703125 60.40625 52.390625 
Q 60.40625 46.4375 57.328125 41.28125 
Q 54.25 36.140625 44.390625 27.484375 
z
" id="DejaVuSans-Bold-32"/>
     <path d="M 36.8125 57.421875 
L 16.21875 26.90625 
L 36.8125 26.90625 
z
M 33.6875 72.90625 
L 54.59375 72.90625 
L 54.59375 26.90625 
L 64.984375 26.90625 
L 64.984375 13.28125 
L 54.59375 13.28125 
L 54.59375 0 
L 36.8125 0 
L 36.8125 13.28125 
L 4.5 13.28125 
L 4.5 29.390625 
z
" id="DejaVuSans-Bold-34"/>
     <path d="M 59.078125 45.609375 
Q 62.40625 50.6875 66.96875 53.34375 
Q 71.53125 56 77 56 
Q 86.421875 56 91.359375 50.1875 
Q 96.296875 44.390625 96.296875 33.296875 
L 96.296875 0 
L 78.71875 0 
L 78.71875 28.515625 
Q 78.765625 29.15625 78.78125 29.828125 
Q 78.8125 30.515625 78.8125 31.78125 
Q 78.8125 37.59375 77.09375 40.203125 
Q 75.390625 42.828125 71.578125 42.828125 
Q 66.609375 42.828125 63.890625 38.71875 
Q 61.1875 34.625 61.078125 26.859375 
L 61.078125 0 
L 43.5 0 
L 43.5 28.515625 
Q 43.5 37.59375 41.9375 40.203125 
Q 40.375 42.828125 36.375 42.828125 
Q 31.34375 42.828125 28.609375 38.703125 
Q 25.875 34.578125 25.875 26.90625 
L 25.875 0 
L 8.296875 0 
L 8.296875 54.6875 
L 25.875 54.6875 
L 25.875 46.6875 
Q 29.109375 51.3125 33.28125 53.65625 
Q 37.453125 56 42.484375 56 
Q 48.140625 56 52.484375 53.265625 
Q 56.84375 50.53125 59.078125 45.609375 
z
" id="DejaVuSans-Bold-6d"/>
     <path d="M 45.609375 46.6875 
L 45.609375 75.984375 
L 63.1875 75.984375 
L 63.1875 0 
L 45.609375 0 
L 45.609375 7.90625 
Q 42 3.078125 37.640625 0.828125 
Q 33.296875 -1.421875 27.59375 -1.421875 
Q 17.484375 -1.421875 10.984375 6.609375 
Q 4.5 14.65625 4.5 27.296875 
Q 4.5 39.9375 10.984375 47.96875 
Q 17.484375 56 27.59375 56 
Q 33.25 56 37.625 53.734375 
Q 42 51.46875 45.609375 46.6875 
z
M 34.078125 11.28125 
Q 39.703125 11.28125 42.65625 15.375 
Q 45.609375 19.484375 45.609375 27.296875 
Q 45.609375 35.109375 42.65625 39.203125 
Q 39.703125 43.3125 34.078125 43.3125 
Q 28.515625 43.3125 25.5625 39.203125 
Q 22.609375 35.109375 22.609375 27.296875 
Q 22.609375 19.484375 25.5625 15.375 
Q 28.515625 11.28125 34.078125 11.28125 
z
" id="DejaVuSans-Bold-64"/>
     <path d="M 10.59375 48.1875 
L 73.1875 48.1875 
L 73.1875 36.71875 
L 10.59375 36.71875 
z
M 10.59375 25.984375 
L 73.1875 25.984375 
L 73.1875 14.40625 
L 10.59375 14.40625 
z
" id="DejaVuSans-Bold-3d"/>
     <path d="M 11.71875 12.984375 
L 28.328125 12.984375 
L 28.328125 60.109375 
L 11.28125 56.59375 
L 11.28125 69.390625 
L 28.21875 72.90625 
L 46.09375 72.90625 
L 46.09375 12.984375 
L 62.703125 12.984375 
L 62.703125 0 
L 11.71875 0 
z
" id="DejaVuSans-Bold-31"/>
    </defs>
    <g transform="translate(56.861719 45.6672)scale(0.15 -0.15)">
     <use xlink:href="#DejaVuSans-Bold-49"/>
     <use x="37.207031" xlink:href="#DejaVuSans-Bold-6e"/>
     <use x="108.398438" xlink:href="#DejaVuSans-Bold-69"/>
     <use x="142.675781" xlink:href="#DejaVuSans-Bold-74"/>
     <use x="190.478516" xlink:href="#DejaVuSans-Bold-69"/>
     <use x="224.755859" xlink:href="#DejaVuSans-Bold-61"/>
     <use x="292.236328" xlink:href="#DejaVuSans-Bold-6c"/>
     <use x="326.513672" xlink:href="#DejaVuSans-Bold-20"/>
     <use x="361.328125" xlink:href="#DejaVuSans-Bold-68"/>
     <use x="432.519531" xlink:href="#DejaVuSans-Bold-6f"/>
     <use x="501.220703" xlink:href="#DejaVuSans-Bold-75"/>
     <use x="572.412109" xlink:href="#DejaVuSans-Bold-72"/>
     <use x="621.728516" xlink:href="#DejaVuSans-Bold-20"/>
     <use x="656.542969" xlink:href="#DejaVuSans-Bold-6f"/>
     <use x="725.244141" xlink:href="#DejaVuSans-Bold-66"/>
     <use x="768.75" xlink:href="#DejaVuSans-Bold-20"/>
     <use x="803.564453" xlink:href="#DejaVuSans-Bold-72"/>
     <use x="852.880859" xlink:href="#DejaVuSans-Bold-65"/>
     <use x="920.703125" xlink:href="#DejaVuSans-Bold-71"/>
     <use x="992.285156" xlink:href="#DejaVuSans-Bold-75"/>
     <use x="1063.476562" xlink:href="#DejaVuSans-Bold-65"/>
     <use x="1131.298828" xlink:href="#DejaVuSans-Bold-73"/>
     <use x="1190.820312" xlink:href="#DejaVuSans-Bold-74"/>
     <use x="1238.623047" xlink:href="#DejaVuSans-Bold-3a"/>
     <use x="1278.613281" xlink:href="#DejaVuSans-Bold-20"/>
     <use x="1313.427734" xlink:href="#DejaVuSans-Bold-35"/>
     <use x="1383.007812" xlink:href="#DejaVuSans-Bold-3a"/>
     <use x="1422.998047" xlink:href="#DejaVuSans-Bold-30"/>
     <use x="1492.578125" xlink:href="#DejaVuSans-Bold-3a"/>
     <use x="1532.568359" xlink:href="#DejaVuSans-Bold-30"/>
     <use x="1602.148438" xlink:href="#DejaVuSans-Bold-7c"/>
     <use x="1638.671875" xlink:href="#DejaVuSans-Bold-20"/>
     <use x="1673.486328" xlink:href="#DejaVuSans-Bold-32"/>
     <use x="1743.066406" xlink:href="#DejaVuSans-Bold-34"/>
     <use x="1812.646484" xlink:href="#DejaVuSans-Bold-20"/>
     <use x="1847.460938" xlink:href="#DejaVuSans-Bold-68"/>
     <use x="1918.652344" xlink:href="#DejaVuSans-Bold-6f"/>
     <use x="1987.353516" xlink:href="#DejaVuSans-Bold-75"/>
     <use x="2058.544922" xlink:href="#DejaVuSans-Bold-72"/>
     <use x="2107.861328" xlink:href="#DejaVuSans-Bold-73"/>
     <use x="2167.382812" xlink:href="#DejaVuSans-Bold-20"/>
     <use x="2202.197266" xlink:href="#DejaVuSans-Bold-6f"/>
     <use x="2270.898438" xlink:href="#DejaVuSans-Bold-66"/>
     <use x="2314.404297" xlink:href="#DejaVuSans-Bold-20"/>
     <use x="2349.21875" xlink:href="#DejaVuSans-Bold-73"/>
     <use x="2408.740234" xlink:href="#DejaVuSans-Bold-69"/>
     <use x="2443.017578" xlink:href="#DejaVuSans-Bold-6d"/>
     <use x="2547.216797" xlink:href="#DejaVuSans-Bold-75"/>
     <use x="2618.408203" xlink:href="#DejaVuSans-Bold-6c"/>
     <use x="2652.685547" xlink:href="#DejaVuSans-Bold-61"/>
     <use x="2720.166016" xlink:href="#DejaVuSans-Bold-74"/>
     <use x="2767.96875" xlink:href="#DejaVuSans-Bold-69"/>
     <use x="2802.246094" xlink:href="#DejaVuSans-Bold-6f"/>
     <use x="2870.947266" xlink:href="#DejaVuSans-Bold-6e"/>
     <use x="2942.138672" xlink:href="#DejaVuSans-Bold-7c"/>
     <use x="2978.662109" xlink:href="#DejaVuSans-Bold-20"/>
     <use x="3013.476562" xlink:href="#DejaVuSans-Bold-64"/>
     <use x="3085.058594" xlink:href="#DejaVuSans-Bold-74"/>
     <use x="3132.861328" xlink:href="#DejaVuSans-Bold-20"/>
     <use x="3167.675781" xlink:href="#DejaVuSans-Bold-3d"/>
     <use x="3251.464844" xlink:href="#DejaVuSans-Bold-20"/>
     <use x="3286.279297" xlink:href="#DejaVuSans-Bold-31"/>
     <use x="3355.859375" xlink:href="#DejaVuSans-Bold-30"/>
     <use x="3425.439453" xlink:href="#DejaVuSans-Bold-20"/>
     <use x="3460.253906" xlink:href="#DejaVuSans-Bold-6d"/>
     <use x="3564.453125" xlink:href="#DejaVuSans-Bold-69"/>
     <use x="3598.730469" xlink:href="#DejaVuSans-Bold-6e"/>
    </g>
   </g>
   <g id="legend_1">
    <g id="patch_7">
     <path d="M 479.116719 376.6984 
L 574.1 376.6984 
Q 576.7 376.6984 576.7 374.0984 
L 576.7 337.235275 
Q 576.7 334.635275 574.1 334.635275 
L 479.116719 334.635275 
Q 476.516719 334.635275 476.516719 337.235275 
L 476.516719 374.0984 
Q 476.516719 376.6984 479.116719 376.6984 
z
" style="fill:#ffffff;opacity:0.8;stroke:#cccccc;stroke-linejoin:miter;"/>
    </g>
    <g id="line2d_35">
     <path d="M 481.716719 345.163244 
L 507.716719 345.163244 
" style="fill:none;stroke:#000000;stroke-linecap:square;stroke-width:1.75;"/>
    </g>
    <g id="line2d_36"/>
    <g id="text_20">
     <!-- Service -->
     <defs>
      <path d="M 53.515625 70.515625 
L 53.515625 60.890625 
Q 47.90625 63.578125 42.921875 64.890625 
Q 37.9375 66.21875 33.296875 66.21875 
Q 25.25 66.21875 20.875 63.09375 
Q 16.5 59.96875 16.5 54.203125 
Q 16.5 49.359375 19.40625 46.890625 
Q 22.3125 44.4375 30.421875 42.921875 
L 36.375 41.703125 
Q 47.40625 39.59375 52.65625 34.296875 
Q 57.90625 29 57.90625 20.125 
Q 57.90625 9.515625 50.796875 4.046875 
Q 43.703125 -1.421875 29.984375 -1.421875 
Q 24.8125 -1.421875 18.96875 -0.25 
Q 13.140625 0.921875 6.890625 3.21875 
L 6.890625 13.375 
Q 12.890625 10.015625 18.65625 8.296875 
Q 24.421875 6.59375 29.984375 6.59375 
Q 38.421875 6.59375 43.015625 9.90625 
Q 47.609375 13.234375 47.609375 19.390625 
Q 47.609375 24.75 44.3125 27.78125 
Q 41.015625 30.8125 33.5 32.328125 
L 27.484375 33.5 
Q 16.453125 35.6875 11.515625 40.375 
Q 6.59375 45.0625 6.59375 53.421875 
Q 6.59375 63.09375 13.40625 68.65625 
Q 20.21875 74.21875 32.171875 74.21875 
Q 37.3125 74.21875 42.625 73.28125 
Q 47.953125 72.359375 53.515625 70.515625 
z
" id="DejaVuSans-53"/>
      <path d="M 56.203125 29.59375 
L 56.203125 25.203125 
L 14.890625 25.203125 
Q 15.484375 15.921875 20.484375 11.0625 
Q 25.484375 6.203125 34.421875 6.203125 
Q 39.59375 6.203125 44.453125 7.46875 
Q 49.3125 8.734375 54.109375 11.28125 
L 54.109375 2.78125 
Q 49.265625 0.734375 44.1875 -0.34375 
Q 39.109375 -1.421875 33.890625 -1.421875 
Q 20.796875 -1.421875 13.15625 6.1875 
Q 5.515625 13.8125 5.515625 26.8125 
Q 5.515625 40.234375 12.765625 48.109375 
Q 20.015625 56 32.328125 56 
Q 43.359375 56 49.78125 48.890625 
Q 56.203125 41.796875 56.203125 29.59375 
z
M 47.21875 32.234375 
Q 47.125 39.59375 43.09375 43.984375 
Q 39.0625 48.390625 32.421875 48.390625 
Q 24.90625 48.390625 20.390625 44.140625 
Q 15.875 39.890625 15.1875 32.171875 
z
" id="DejaVuSans-65"/>
      <path d="M 41.109375 46.296875 
Q 39.59375 47.171875 37.8125 47.578125 
Q 36.03125 48 33.890625 48 
Q 26.265625 48 22.1875 43.046875 
Q 18.109375 38.09375 18.109375 28.8125 
L 18.109375 0 
L 9.078125 0 
L 9.078125 54.6875 
L 18.109375 54.6875 
L 18.109375 46.1875 
Q 20.953125 51.171875 25.484375 53.578125 
Q 30.03125 56 36.53125 56 
Q 37.453125 56 38.578125 55.875 
Q 39.703125 55.765625 41.0625 55.515625 
z
" id="DejaVuSans-72"/>
      <path d="M 2.984375 54.6875 
L 12.5 54.6875 
L 29.59375 8.796875 
L 46.6875 54.6875 
L 56.203125 54.6875 
L 35.6875 0 
L 23.484375 0 
z
" id="DejaVuSans-76"/>
      <path d="M 9.421875 54.6875 
L 18.40625 54.6875 
L 18.40625 0 
L 9.421875 0 
z
M 9.421875 75.984375 
L 18.40625 75.984375 
L 18.40625 64.59375 
L 9.421875 64.59375 
z
" id="DejaVuSans-69"/>
      <path d="M 48.78125 52.59375 
L 48.78125 44.1875 
Q 44.96875 46.296875 41.140625 47.34375 
Q 37.3125 48.390625 33.40625 48.390625 
Q 24.65625 48.390625 19.8125 42.84375 
Q 14.984375 37.3125 14.984375 27.296875 
Q 14.984375 17.28125 19.8125 11.734375 
Q 24.65625 6.203125 33.40625 6.203125 
Q 37.3125 6.203125 41.140625 7.25 
Q 44.96875 8.296875 48.78125 10.40625 
L 48.78125 2.09375 
Q 45.015625 0.34375 40.984375 -0.53125 
Q 36.96875 -1.421875 32.421875 -1.421875 
Q 20.0625 -1.421875 12.78125 6.34375 
Q 5.515625 14.109375 5.515625 27.296875 
Q 5.515625 40.671875 12.859375 48.328125 
Q 20.21875 56 33.015625 56 
Q 37.15625 56 41.109375 55.140625 
Q 45.0625 54.296875 48.78125 52.59375 
z
" id="DejaVuSans-63"/>
     </defs>
     <g transform="translate(518.116719 349.713244)scale(0.13 -0.13)">
      <use xlink:href="#DejaVuSans-53"/>
      <use x="63.476562" xlink:href="#DejaVuSans-65"/>
      <use x="125" xlink:href="#DejaVuSans-72"/>
      <use x="166.113281" xlink:href="#DejaVuSans-76"/>
      <use x="225.292969" xlink:href="#DejaVuSans-69"/>
      <use x="253.076172" xlink:href="#DejaVuSans-63"/>
      <use x="308.056641" xlink:href="#DejaVuSans-65"/>
     </g>
    </g>
    <g id="line2d_37">
     <path d="M 481.716719 364.244806 
L 507.716719 364.244806 
" style="fill:none;stroke:#ff0000;stroke-linecap:square;stroke-width:1.75;"/>
    </g>
    <g id="line2d_38"/>
    <g id="text_21">
     <!-- Request -->
     <defs>
      <path d="M 44.390625 34.1875 
Q 47.5625 33.109375 50.5625 29.59375 
Q 53.5625 26.078125 56.59375 19.921875 
L 66.609375 0 
L 56 0 
L 46.6875 18.703125 
Q 43.0625 26.03125 39.671875 28.421875 
Q 36.28125 30.8125 30.421875 30.8125 
L 19.671875 30.8125 
L 19.671875 0 
L 9.8125 0 
L 9.8125 72.90625 
L 32.078125 72.90625 
Q 44.578125 72.90625 50.734375 67.671875 
Q 56.890625 62.453125 56.890625 51.90625 
Q 56.890625 45.015625 53.6875 40.46875 
Q 50.484375 35.9375 44.390625 34.1875 
z
M 19.671875 64.796875 
L 19.671875 38.921875 
L 32.078125 38.921875 
Q 39.203125 38.921875 42.84375 42.21875 
Q 46.484375 45.515625 46.484375 51.90625 
Q 46.484375 58.296875 42.84375 61.546875 
Q 39.203125 64.796875 32.078125 64.796875 
z
" id="DejaVuSans-52"/>
      <path d="M 14.796875 27.296875 
Q 14.796875 17.390625 18.875 11.75 
Q 22.953125 6.109375 30.078125 6.109375 
Q 37.203125 6.109375 41.296875 11.75 
Q 45.40625 17.390625 45.40625 27.296875 
Q 45.40625 37.203125 41.296875 42.84375 
Q 37.203125 48.484375 30.078125 48.484375 
Q 22.953125 48.484375 18.875 42.84375 
Q 14.796875 37.203125 14.796875 27.296875 
z
M 45.40625 8.203125 
Q 42.578125 3.328125 38.25 0.953125 
Q 33.9375 -1.421875 27.875 -1.421875 
Q 17.96875 -1.421875 11.734375 6.484375 
Q 5.515625 14.40625 5.515625 27.296875 
Q 5.515625 40.1875 11.734375 48.09375 
Q 17.96875 56 27.875 56 
Q 33.9375 56 38.25 53.625 
Q 42.578125 51.265625 45.40625 46.390625 
L 45.40625 54.6875 
L 54.390625 54.6875 
L 54.390625 -20.796875 
L 45.40625 -20.796875 
z
" id="DejaVuSans-71"/>
      <path d="M 8.5 21.578125 
L 8.5 54.6875 
L 17.484375 54.6875 
L 17.484375 21.921875 
Q 17.484375 14.15625 20.5 10.265625 
Q 23.53125 6.390625 29.59375 6.390625 
Q 36.859375 6.390625 41.078125 11.03125 
Q 45.3125 15.671875 45.3125 23.6875 
L 45.3125 54.6875 
L 54.296875 54.6875 
L 54.296875 0 
L 45.3125 0 
L 45.3125 8.40625 
Q 42.046875 3.421875 37.71875 1 
Q 33.40625 -1.421875 27.6875 -1.421875 
Q 18.265625 -1.421875 13.375 4.4375 
Q 8.5 10.296875 8.5 21.578125 
z
M 31.109375 56 
z
" id="DejaVuSans-75"/>
      <path d="M 44.28125 53.078125 
L 44.28125 44.578125 
Q 40.484375 46.53125 36.375 47.5 
Q 32.28125 48.484375 27.875 48.484375 
Q 21.1875 48.484375 17.84375 46.4375 
Q 14.5 44.390625 14.5 40.28125 
Q 14.5 37.15625 16.890625 35.375 
Q 19.28125 33.59375 26.515625 31.984375 
L 29.59375 31.296875 
Q 39.15625 29.25 43.1875 25.515625 
Q 47.21875 21.78125 47.21875 15.09375 
Q 47.21875 7.46875 41.1875 3.015625 
Q 35.15625 -1.421875 24.609375 -1.421875 
Q 20.21875 -1.421875 15.453125 -0.5625 
Q 10.6875 0.296875 5.421875 2 
L 5.421875 11.28125 
Q 10.40625 8.6875 15.234375 7.390625 
Q 20.0625 6.109375 24.8125 6.109375 
Q 31.15625 6.109375 34.5625 8.28125 
Q 37.984375 10.453125 37.984375 14.40625 
Q 37.984375 18.0625 35.515625 20.015625 
Q 33.0625 21.96875 24.703125 23.78125 
L 21.578125 24.515625 
Q 13.234375 26.265625 9.515625 29.90625 
Q 5.8125 33.546875 5.8125 39.890625 
Q 5.8125 47.609375 11.28125 51.796875 
Q 16.75 56 26.8125 56 
Q 31.78125 56 36.171875 55.265625 
Q 40.578125 54.546875 44.28125 53.078125 
z
" id="DejaVuSans-73"/>
      <path d="M 18.3125 70.21875 
L 18.3125 54.6875 
L 36.8125 54.6875 
L 36.8125 47.703125 
L 18.3125 47.703125 
L 18.3125 18.015625 
Q 18.3125 11.328125 20.140625 9.421875 
Q 21.96875 7.515625 27.59375 7.515625 
L 36.8125 7.515625 
L 36.8125 0 
L 27.59375 0 
Q 17.1875 0 13.234375 3.875 
Q 9.28125 7.765625 9.28125 18.015625 
L 9.28125 47.703125 
L 2.6875 47.703125 
L 2.6875 54.6875 
L 9.28125 54.6875 
L 9.28125 70.21875 
z
" id="DejaVuSans-74"/>
     </defs>
     <g transform="translate(518.116719 368.794806)scale(0.13 -0.13)">
      <use xlink:href="#DejaVuSans-52"/>
      <use x="69.419922" xlink:href="#DejaVuSans-65"/>
      <use x="130.943359" xlink:href="#DejaVuSans-71"/>
      <use x="194.419922" xlink:href="#DejaVuSans-75"/>
      <use x="257.798828" xlink:href="#DejaVuSans-65"/>
      <use x="319.322266" xlink:href="#DejaVuSans-73"/>
      <use x="371.421875" xlink:href="#DejaVuSans-74"/>
     </g>
    </g>
   </g>
  </g>
 </g>
 <defs>
  <clipPath id="pcd59235f02">
   <rect height="331.5312" width="502.2" x="81" y="51.6672"/>
  </clipPath>
 </defs>
</svg>
