<?xml version="1.0" encoding="utf-8" standalone="no"?>
<!DOCTYPE svg PUBLIC "-//W3C//DTD SVG 1.1//EN"
  "http://www.w3.org/Graphics/SVG/1.1/DTD/svg11.dtd">
<!-- Created with matplotlib (http://matplotlib.org/) -->
<svg height="430pt" version="1.1" viewBox="0 0 648 430" width="648pt" xmlns="http://www.w3.org/2000/svg" xmlns:xlink="http://www.w3.org/1999/xlink">
 <defs>
  <style type="text/css">
*{stroke-linecap:butt;stroke-linejoin:round;}
  </style>
 </defs>
 <g id="figure_1">
  <g id="patch_1">
   <path d="M 0 430.56 
L 648 430.56 
L 648 0 
L 0 0 
z
" style="fill:#ffffff;"/>
  </g>
  <g id="axes_1">
   <g id="patch_2">
    <path d="M 81 383.1984 
L 583.2 383.1984 
L 583.2 51.6672 
L 81 51.6672 
z
" style="fill:#ffffff;"/>
   </g>
   <g id="matplotlib.axis_1">
    <g id="xtick_1">
     <g id="line2d_1">
      <path clip-path="url(#p5e1226604d)" d="M 81 383.1984 
L 81 51.6672 
" style="fill:none;stroke:#b0b0b0;stroke-linecap:square;stroke-width:0.8;"/>
     </g>
     <g id="line2d_2">
      <defs>
       <path d="M 0 0 
L 0 3.5 
" id="mce3fd0b005" style="stroke:#000000;stroke-width:0.8;"/>
      </defs>
      <g>
       <use style="stroke:#000000;stroke-width:0.8;" x="81" xlink:href="#mce3fd0b005" y="383.1984"/>
      </g>
     </g>
     <g id="text_1">
      <!-- 0 -->
      <defs>
       <path d="M 31.78125 66.40625 
Q 24.171875 66.40625 20.328125 58.90625 
Q 16.5 51.421875 16.5 36.375 
Q 16.5 21.390625 20.328125 13.890625 
Q 24.171875 6.390625 31.78125 6.390625 
Q 39.453125 6.390625 43.28125 13.890625 
Q 47.125 21.390625 47.125 36.375 
Q 47.125 51.421875 43.28125 58.90625 
Q 39.453125 66.40625 31.78125 66.40625 
z
M 31.78125 74.21875 
Q 44.046875 74.21875 50.515625 64.515625 
Q 56.984375 54.828125 56.984375 36.375 
Q 56.984375 17.96875 50.515625 8.265625 
Q 44.046875 -1.421875 31.78125 -1.421875 
Q 19.53125 -1.421875 13.0625 8.265625 
Q 6.59375 17.96875 6.59375 36.375 
Q 6.59375 54.828125 13.0625 64.515625 
Q 19.53125 74.21875 31.78125 74.21875 
z
" id="DejaVuSans-30"/>
      </defs>
      <g transform="translate(77.81875 397.796838)scale(0.1 -0.1)">
       <use xlink:href="#DejaVuSans-30"/>
      </g>
     </g>
    </g>
    <g id="xtick_2">
     <g id="line2d_3">
      <path clip-path="url(#p5e1226604d)" d="M 139.327526 383.1984 
L 139.327526 51.6672 
" style="fill:none;stroke:#b0b0b0;stroke-linecap:square;stroke-width:0.8;"/>
     </g>
     <g id="line2d_4">
      <g>
       <use style="stroke:#000000;stroke-width:0.8;" x="139.327526" xlink:href="#mce3fd0b005" y="383.1984"/>
      </g>
     </g>
     <g id="text_2">
      <!-- 10000 -->
      <defs>
       <path d="M 12.40625 8.296875 
L 28.515625 8.296875 
L 28.515625 63.921875 
L 10.984375 60.40625 
L 10.984375 69.390625 
L 28.421875 72.90625 
L 38.28125 72.90625 
L 38.28125 8.296875 
L 54.390625 8.296875 
L 54.390625 0 
L 12.40625 0 
z
" id="DejaVuSans-31"/>
      </defs>
      <g transform="translate(123.421276 397.796838)scale(0.1 -0.1)">
       <use xlink:href="#DejaVuSans-31"/>
       <use x="63.623047" xlink:href="#DejaVuSans-30"/>
       <use x="127.246094" xlink:href="#DejaVuSans-30"/>
       <use x="190.869141" xlink:href="#DejaVuSans-30"/>
       <use x="254.492188" xlink:href="#DejaVuSans-30"/>
      </g>
     </g>
    </g>
    <g id="xtick_3">
     <g id="line2d_5">
      <path clip-path="url(#p5e1226604d)" d="M 197.655052 383.1984 
L 197.655052 51.6672 
" style="fill:none;stroke:#b0b0b0;stroke-linecap:square;stroke-width:0.8;"/>
     </g>
     <g id="line2d_6">
      <g>
       <use style="stroke:#000000;stroke-width:0.8;" x="197.655052" xlink:href="#mce3fd0b005" y="383.1984"/>
      </g>
     </g>
     <g id="text_3">
      <!-- 20000 -->
      <defs>
       <path d="M 19.1875 8.296875 
L 53.609375 8.296875 
L 53.609375 0 
L 7.328125 0 
L 7.328125 8.296875 
Q 12.9375 14.109375 22.625 23.890625 
Q 32.328125 33.6875 34.8125 36.53125 
Q 39.546875 41.84375 41.421875 45.53125 
Q 43.3125 49.21875 43.3125 52.78125 
Q 43.3125 58.59375 39.234375 62.25 
Q 35.15625 65.921875 28.609375 65.921875 
Q 23.96875 65.921875 18.8125 64.3125 
Q 13.671875 62.703125 7.8125 59.421875 
L 7.8125 69.390625 
Q 13.765625 71.78125 18.9375 73 
Q 24.125 74.21875 28.421875 74.21875 
Q 39.75 74.21875 46.484375 68.546875 
Q 53.21875 62.890625 53.21875 53.421875 
Q 53.21875 48.921875 51.53125 44.890625 
Q 49.859375 40.875 45.40625 35.40625 
Q 44.1875 33.984375 37.640625 27.21875 
Q 31.109375 20.453125 19.1875 8.296875 
z
" id="DejaVuSans-32"/>
      </defs>
      <g transform="translate(181.748802 397.796838)scale(0.1 -0.1)">
       <use xlink:href="#DejaVuSans-32"/>
       <use x="63.623047" xlink:href="#DejaVuSans-30"/>
       <use x="127.246094" xlink:href="#DejaVuSans-30"/>
       <use x="190.869141" xlink:href="#DejaVuSans-30"/>
       <use x="254.492188" xlink:href="#DejaVuSans-30"/>
      </g>
     </g>
    </g>
    <g id="xtick_4">
     <g id="line2d_7">
      <path clip-path="url(#p5e1226604d)" d="M 255.982578 383.1984 
L 255.982578 51.6672 
" style="fill:none;stroke:#b0b0b0;stroke-linecap:square;stroke-width:0.8;"/>
     </g>
     <g id="line2d_8">
      <g>
       <use style="stroke:#000000;stroke-width:0.8;" x="255.982578" xlink:href="#mce3fd0b005" y="383.1984"/>
      </g>
     </g>
     <g id="text_4">
      <!-- 30000 -->
      <defs>
       <path d="M 40.578125 39.3125 
Q 47.65625 37.796875 51.625 33 
Q 55.609375 28.21875 55.609375 21.1875 
Q 55.609375 10.40625 48.1875 4.484375 
Q 40.765625 -1.421875 27.09375 -1.421875 
Q 22.515625 -1.421875 17.65625 -0.515625 
Q 12.796875 0.390625 7.625 2.203125 
L 7.625 11.71875 
Q 11.71875 9.328125 16.59375 8.109375 
Q 21.484375 6.890625 26.8125 6.890625 
Q 36.078125 6.890625 40.9375 10.546875 
Q 45.796875 14.203125 45.796875 21.1875 
Q 45.796875 27.640625 41.28125 31.265625 
Q 36.765625 34.90625 28.71875 34.90625 
L 20.21875 34.90625 
L 20.21875 43.015625 
L 29.109375 43.015625 
Q 36.375 43.015625 40.234375 45.921875 
Q 44.09375 48.828125 44.09375 54.296875 
Q 44.09375 59.90625 40.109375 62.90625 
Q 36.140625 65.921875 28.71875 65.921875 
Q 24.65625 65.921875 20.015625 65.03125 
Q 15.375 64.15625 9.8125 62.3125 
L 9.8125 71.09375 
Q 15.4375 72.65625 20.34375 73.4375 
Q 25.25 74.21875 29.59375 74.21875 
Q 40.828125 74.21875 47.359375 69.109375 
Q 53.90625 64.015625 53.90625 55.328125 
Q 53.90625 49.265625 50.4375 45.09375 
Q 46.96875 40.921875 40.578125 39.3125 
z
" id="DejaVuSans-33"/>
      </defs>
      <g transform="translate(240.076328 397.796838)scale(0.1 -0.1)">
       <use xlink:href="#DejaVuSans-33"/>
       <use x="63.623047" xlink:href="#DejaVuSans-30"/>
       <use x="127.246094" xlink:href="#DejaVuSans-30"/>
       <use x="190.869141" xlink:href="#DejaVuSans-30"/>
       <use x="254.492188" xlink:href="#DejaVuSans-30"/>
      </g>
     </g>
    </g>
    <g id="xtick_5">
     <g id="line2d_9">
      <path clip-path="url(#p5e1226604d)" d="M 314.310105 383.1984 
L 314.310105 51.6672 
" style="fill:none;stroke:#b0b0b0;stroke-linecap:square;stroke-width:0.8;"/>
     </g>
     <g id="line2d_10">
      <g>
       <use style="stroke:#000000;stroke-width:0.8;" x="314.310105" xlink:href="#mce3fd0b005" y="383.1984"/>
      </g>
     </g>
     <g id="text_5">
      <!-- 40000 -->
      <defs>
       <path d="M 37.796875 64.3125 
L 12.890625 25.390625 
L 37.796875 25.390625 
z
M 35.203125 72.90625 
L 47.609375 72.90625 
L 47.609375 25.390625 
L 58.015625 25.390625 
L 58.015625 17.1875 
L 47.609375 17.1875 
L 47.609375 0 
L 37.796875 0 
L 37.796875 17.1875 
L 4.890625 17.1875 
L 4.890625 26.703125 
z
" id="DejaVuSans-34"/>
      </defs>
      <g transform="translate(298.403855 397.796838)scale(0.1 -0.1)">
       <use xlink:href="#DejaVuSans-34"/>
       <use x="63.623047" xlink:href="#DejaVuSans-30"/>
       <use x="127.246094" xlink:href="#DejaVuSans-30"/>
       <use x="190.869141" xlink:href="#DejaVuSans-30"/>
       <use x="254.492188" xlink:href="#DejaVuSans-30"/>
      </g>
     </g>
    </g>
    <g id="xtick_6">
     <g id="line2d_11">
      <path clip-path="url(#p5e1226604d)" d="M 372.637631 383.1984 
L 372.637631 51.6672 
" style="fill:none;stroke:#b0b0b0;stroke-linecap:square;stroke-width:0.8;"/>
     </g>
     <g id="line2d_12">
      <g>
       <use style="stroke:#000000;stroke-width:0.8;" x="372.637631" xlink:href="#mce3fd0b005" y="383.1984"/>
      </g>
     </g>
     <g id="text_6">
      <!-- 50000 -->
      <defs>
       <path d="M 10.796875 72.90625 
L 49.515625 72.90625 
L 49.515625 64.59375 
L 19.828125 64.59375 
L 19.828125 46.734375 
Q 21.96875 47.46875 24.109375 47.828125 
Q 26.265625 48.1875 28.421875 48.1875 
Q 40.625 48.1875 47.75 41.5 
Q 54.890625 34.8125 54.890625 23.390625 
Q 54.890625 11.625 47.5625 5.09375 
Q 40.234375 -1.421875 26.90625 -1.421875 
Q 22.3125 -1.421875 17.546875 -0.640625 
Q 12.796875 0.140625 7.71875 1.703125 
L 7.71875 11.625 
Q 12.109375 9.234375 16.796875 8.0625 
Q 21.484375 6.890625 26.703125 6.890625 
Q 35.15625 6.890625 40.078125 11.328125 
Q 45.015625 15.765625 45.015625 23.390625 
Q 45.015625 31 40.078125 35.4375 
Q 35.15625 39.890625 26.703125 39.890625 
Q 22.75 39.890625 18.8125 39.015625 
Q 14.890625 38.140625 10.796875 36.28125 
z
" id="DejaVuSans-35"/>
      </defs>
      <g transform="translate(356.731381 397.796838)scale(0.1 -0.1)">
       <use xlink:href="#DejaVuSans-35"/>
       <use x="63.623047" xlink:href="#DejaVuSans-30"/>
       <use x="127.246094" xlink:href="#DejaVuSans-30"/>
       <use x="190.869141" xlink:href="#DejaVuSans-30"/>
       <use x="254.492188" xlink:href="#DejaVuSans-30"/>
      </g>
     </g>
    </g>
    <g id="xtick_7">
     <g id="line2d_13">
      <path clip-path="url(#p5e1226604d)" d="M 430.965157 383.1984 
L 430.965157 51.6672 
" style="fill:none;stroke:#b0b0b0;stroke-linecap:square;stroke-width:0.8;"/>
     </g>
     <g id="line2d_14">
      <g>
       <use style="stroke:#000000;stroke-width:0.8;" x="430.965157" xlink:href="#mce3fd0b005" y="383.1984"/>
      </g>
     </g>
     <g id="text_7">
      <!-- 60000 -->
      <defs>
       <path d="M 33.015625 40.375 
Q 26.375 40.375 22.484375 35.828125 
Q 18.609375 31.296875 18.609375 23.390625 
Q 18.609375 15.53125 22.484375 10.953125 
Q 26.375 6.390625 33.015625 6.390625 
Q 39.65625 6.390625 43.53125 10.953125 
Q 47.40625 15.53125 47.40625 23.390625 
Q 47.40625 31.296875 43.53125 35.828125 
Q 39.65625 40.375 33.015625 40.375 
z
M 52.59375 71.296875 
L 52.59375 62.3125 
Q 48.875 64.0625 45.09375 64.984375 
Q 41.3125 65.921875 37.59375 65.921875 
Q 27.828125 65.921875 22.671875 59.328125 
Q 17.53125 52.734375 16.796875 39.40625 
Q 19.671875 43.65625 24.015625 45.921875 
Q 28.375 48.1875 33.59375 48.1875 
Q 44.578125 48.1875 50.953125 41.515625 
Q 57.328125 34.859375 57.328125 23.390625 
Q 57.328125 12.15625 50.6875 5.359375 
Q 44.046875 -1.421875 33.015625 -1.421875 
Q 20.359375 -1.421875 13.671875 8.265625 
Q 6.984375 17.96875 6.984375 36.375 
Q 6.984375 53.65625 15.1875 63.9375 
Q 23.390625 74.21875 37.203125 74.21875 
Q 40.921875 74.21875 44.703125 73.484375 
Q 48.484375 72.75 52.59375 71.296875 
z
" id="DejaVuSans-36"/>
      </defs>
      <g transform="translate(415.058907 397.796838)scale(0.1 -0.1)">
       <use xlink:href="#DejaVuSans-36"/>
       <use x="63.623047" xlink:href="#DejaVuSans-30"/>
       <use x="127.246094" xlink:href="#DejaVuSans-30"/>
       <use x="190.869141" xlink:href="#DejaVuSans-30"/>
       <use x="254.492188" xlink:href="#DejaVuSans-30"/>
      </g>
     </g>
    </g>
    <g id="xtick_8">
     <g id="line2d_15">
      <path clip-path="url(#p5e1226604d)" d="M 489.292683 383.1984 
L 489.292683 51.6672 
" style="fill:none;stroke:#b0b0b0;stroke-linecap:square;stroke-width:0.8;"/>
     </g>
     <g id="line2d_16">
      <g>
       <use style="stroke:#000000;stroke-width:0.8;" x="489.292683" xlink:href="#mce3fd0b005" y="383.1984"/>
      </g>
     </g>
     <g id="text_8">
      <!-- 70000 -->
      <defs>
       <path d="M 8.203125 72.90625 
L 55.078125 72.90625 
L 55.078125 68.703125 
L 28.609375 0 
L 18.3125 0 
L 43.21875 64.59375 
L 8.203125 64.59375 
z
" id="DejaVuSans-37"/>
      </defs>
      <g transform="translate(473.386433 397.796838)scale(0.1 -0.1)">
       <use xlink:href="#DejaVuSans-37"/>
       <use x="63.623047" xlink:href="#DejaVuSans-30"/>
       <use x="127.246094" xlink:href="#DejaVuSans-30"/>
       <use x="190.869141" xlink:href="#DejaVuSans-30"/>
       <use x="254.492188" xlink:href="#DejaVuSans-30"/>
      </g>
     </g>
    </g>
    <g id="xtick_9">
     <g id="line2d_17">
      <path clip-path="url(#p5e1226604d)" d="M 547.620209 383.1984 
L 547.620209 51.6672 
" style="fill:none;stroke:#b0b0b0;stroke-linecap:square;stroke-width:0.8;"/>
     </g>
     <g id="line2d_18">
      <g>
       <use style="stroke:#000000;stroke-width:0.8;" x="547.620209" xlink:href="#mce3fd0b005" y="383.1984"/>
      </g>
     </g>
     <g id="text_9">
      <!-- 80000 -->
      <defs>
       <path d="M 31.78125 34.625 
Q 24.75 34.625 20.71875 30.859375 
Q 16.703125 27.09375 16.703125 20.515625 
Q 16.703125 13.921875 20.71875 10.15625 
Q 24.75 6.390625 31.78125 6.390625 
Q 38.8125 6.390625 42.859375 10.171875 
Q 46.921875 13.96875 46.921875 20.515625 
Q 46.921875 27.09375 42.890625 30.859375 
Q 38.875 34.625 31.78125 34.625 
z
M 21.921875 38.8125 
Q 15.578125 40.375 12.03125 44.71875 
Q 8.5 49.078125 8.5 55.328125 
Q 8.5 64.0625 14.71875 69.140625 
Q 20.953125 74.21875 31.78125 74.21875 
Q 42.671875 74.21875 48.875 69.140625 
Q 55.078125 64.0625 55.078125 55.328125 
Q 55.078125 49.078125 51.53125 44.71875 
Q 48 40.375 41.703125 38.8125 
Q 48.828125 37.15625 52.796875 32.3125 
Q 56.78125 27.484375 56.78125 20.515625 
Q 56.78125 9.90625 50.3125 4.234375 
Q 43.84375 -1.421875 31.78125 -1.421875 
Q 19.734375 -1.421875 13.25 4.234375 
Q 6.78125 9.90625 6.78125 20.515625 
Q 6.78125 27.484375 10.78125 32.3125 
Q 14.796875 37.15625 21.921875 38.8125 
z
M 18.3125 54.390625 
Q 18.3125 48.734375 21.84375 45.5625 
Q 25.390625 42.390625 31.78125 42.390625 
Q 38.140625 42.390625 41.71875 45.5625 
Q 45.3125 48.734375 45.3125 54.390625 
Q 45.3125 60.0625 41.71875 63.234375 
Q 38.140625 66.40625 31.78125 66.40625 
Q 25.390625 66.40625 21.84375 63.234375 
Q 18.3125 60.0625 18.3125 54.390625 
z
" id="DejaVuSans-38"/>
      </defs>
      <g transform="translate(531.713959 397.796838)scale(0.1 -0.1)">
       <use xlink:href="#DejaVuSans-38"/>
       <use x="63.623047" xlink:href="#DejaVuSans-30"/>
       <use x="127.246094" xlink:href="#DejaVuSans-30"/>
       <use x="190.869141" xlink:href="#DejaVuSans-30"/>
       <use x="254.492188" xlink:href="#DejaVuSans-30"/>
      </g>
     </g>
    </g>
    <g id="text_10">
     <!-- $\Delta t$ (sec) -->
     <defs>
      <path d="M 34.1875 63.1875 
L 14.15625 8.203125 
L 54.25 8.203125 
z
M 0.78125 0 
L 28.609375 72.90625 
L 39.796875 72.90625 
L 67.578125 0 
z
" id="DejaVuSans-394"/>
      <path d="M 42.28125 54.6875 
L 40.921875 47.703125 
L 23 47.703125 
L 17.1875 18.015625 
Q 16.890625 16.359375 16.75 15.234375 
Q 16.609375 14.109375 16.609375 13.484375 
Q 16.609375 10.359375 18.484375 8.9375 
Q 20.359375 7.515625 24.515625 7.515625 
L 33.59375 7.515625 
L 32.078125 0 
L 23.484375 0 
Q 15.484375 0 11.546875 3.125 
Q 7.625 6.25 7.625 12.59375 
Q 7.625 13.71875 7.765625 15.0625 
Q 7.90625 16.40625 8.203125 18.015625 
L 14.015625 47.703125 
L 6.390625 47.703125 
L 7.8125 54.6875 
L 15.28125 54.6875 
L 18.3125 70.21875 
L 27.296875 70.21875 
L 24.3125 54.6875 
z
" id="DejaVuSans-Oblique-74"/>
      <path id="DejaVuSans-Bold-20"/>
      <path d="M 37.703125 -13.1875 
L 23.1875 -13.1875 
Q 15.71875 -1.125 12.15625 9.734375 
Q 8.59375 20.609375 8.59375 31.296875 
Q 8.59375 42 12.171875 52.953125 
Q 15.765625 63.921875 23.1875 75.875 
L 37.703125 75.875 
Q 31.453125 64.3125 28.328125 53.25 
Q 25.203125 42.1875 25.203125 31.390625 
Q 25.203125 20.609375 28.296875 9.515625 
Q 31.390625 -1.5625 37.703125 -13.1875 
z
" id="DejaVuSans-Bold-28"/>
      <path d="M 51.125 52.984375 
L 51.125 39.703125 
Q 45.515625 42.046875 40.28125 43.21875 
Q 35.0625 44.390625 30.421875 44.390625 
Q 25.4375 44.390625 23.015625 43.140625 
Q 20.609375 41.890625 20.609375 39.3125 
Q 20.609375 37.203125 22.4375 36.078125 
Q 24.265625 34.96875 29 34.421875 
L 32.078125 33.984375 
Q 45.515625 32.28125 50.140625 28.375 
Q 54.78125 24.46875 54.78125 16.109375 
Q 54.78125 7.375 48.328125 2.96875 
Q 41.890625 -1.421875 29.109375 -1.421875 
Q 23.6875 -1.421875 17.890625 -0.5625 
Q 12.109375 0.296875 6 2 
L 6 15.28125 
Q 11.234375 12.75 16.71875 11.46875 
Q 22.21875 10.203125 27.875 10.203125 
Q 33.015625 10.203125 35.59375 11.609375 
Q 38.1875 13.03125 38.1875 15.828125 
Q 38.1875 18.171875 36.40625 19.3125 
Q 34.625 20.453125 29.296875 21.09375 
L 26.21875 21.484375 
Q 14.546875 22.953125 9.859375 26.90625 
Q 5.171875 30.859375 5.171875 38.921875 
Q 5.171875 47.609375 11.125 51.796875 
Q 17.09375 56 29.390625 56 
Q 34.234375 56 39.546875 55.265625 
Q 44.875 54.546875 51.125 52.984375 
z
" id="DejaVuSans-Bold-73"/>
      <path d="M 62.984375 27.484375 
L 62.984375 22.515625 
L 22.125 22.515625 
Q 22.75 16.359375 26.5625 13.28125 
Q 30.375 10.203125 37.203125 10.203125 
Q 42.71875 10.203125 48.5 11.84375 
Q 54.296875 13.484375 60.40625 16.796875 
L 60.40625 3.328125 
Q 54.203125 0.984375 48 -0.21875 
Q 41.796875 -1.421875 35.59375 -1.421875 
Q 20.75 -1.421875 12.515625 6.125 
Q 4.296875 13.671875 4.296875 27.296875 
Q 4.296875 40.671875 12.375 48.328125 
Q 20.453125 56 34.625 56 
Q 47.515625 56 55.25 48.234375 
Q 62.984375 40.484375 62.984375 27.484375 
z
M 45.015625 33.296875 
Q 45.015625 38.28125 42.109375 41.328125 
Q 39.203125 44.390625 34.515625 44.390625 
Q 29.4375 44.390625 26.265625 41.53125 
Q 23.09375 38.671875 22.3125 33.296875 
z
" id="DejaVuSans-Bold-65"/>
      <path d="M 52.59375 52.984375 
L 52.59375 38.71875 
Q 49.03125 41.15625 45.4375 42.328125 
Q 41.84375 43.5 37.984375 43.5 
Q 30.671875 43.5 26.59375 39.234375 
Q 22.515625 34.96875 22.515625 27.296875 
Q 22.515625 19.625 26.59375 15.34375 
Q 30.671875 11.078125 37.984375 11.078125 
Q 42.09375 11.078125 45.78125 12.296875 
Q 49.46875 13.53125 52.59375 15.921875 
L 52.59375 1.609375 
Q 48.484375 0.09375 44.265625 -0.65625 
Q 40.046875 -1.421875 35.796875 -1.421875 
Q 21 -1.421875 12.640625 6.171875 
Q 4.296875 13.765625 4.296875 27.296875 
Q 4.296875 40.828125 12.640625 48.40625 
Q 21 56 35.796875 56 
Q 40.09375 56 44.265625 55.25 
Q 48.4375 54.5 52.59375 52.984375 
z
" id="DejaVuSans-Bold-63"/>
      <path d="M 8.015625 -13.1875 
Q 14.265625 -1.5625 17.390625 9.515625 
Q 20.515625 20.609375 20.515625 31.390625 
Q 20.515625 42.1875 17.390625 53.25 
Q 14.265625 64.3125 8.015625 75.875 
L 22.515625 75.875 
Q 29.9375 63.921875 33.515625 52.953125 
Q 37.109375 42 37.109375 31.296875 
Q 37.109375 20.609375 33.546875 9.734375 
Q 29.984375 -1.125 22.515625 -13.1875 
z
" id="DejaVuSans-Bold-29"/>
     </defs>
     <g transform="translate(302.63 414.514338)scale(0.14 -0.14)">
      <use transform="translate(0 0.125)" xlink:href="#DejaVuSans-394"/>
      <use transform="translate(68.408203 0.125)" xlink:href="#DejaVuSans-Oblique-74"/>
      <use transform="translate(107.617188 0.125)" xlink:href="#DejaVuSans-Bold-20"/>
      <use transform="translate(142.431641 0.125)" xlink:href="#DejaVuSans-Bold-28"/>
      <use transform="translate(188.134766 0.125)" xlink:href="#DejaVuSans-Bold-73"/>
      <use transform="translate(247.65625 0.125)" xlink:href="#DejaVuSans-Bold-65"/>
      <use transform="translate(315.478516 0.125)" xlink:href="#DejaVuSans-Bold-63"/>
      <use transform="translate(374.755859 0.125)" xlink:href="#DejaVuSans-Bold-29"/>
     </g>
    </g>
   </g>
   <g id="matplotlib.axis_2">
    <g id="ytick_1">
     <g id="line2d_19">
      <path clip-path="url(#p5e1226604d)" d="M 81 368.1288 
L 583.2 368.1288 
" style="fill:none;stroke:#b0b0b0;stroke-linecap:square;stroke-width:0.8;"/>
     </g>
     <g id="line2d_20">
      <defs>
       <path d="M 0 0 
L -3.5 0 
" id="m70a99f83bf" style="stroke:#000000;stroke-width:0.8;"/>
      </defs>
      <g>
       <use style="stroke:#000000;stroke-width:0.8;" x="81" xlink:href="#m70a99f83bf" y="368.1288"/>
      </g>
     </g>
     <g id="text_11">
      <!-- −100000 -->
      <defs>
       <path d="M 10.59375 35.5 
L 73.1875 35.5 
L 73.1875 27.203125 
L 10.59375 27.203125 
z
" id="DejaVuSans-2212"/>
      </defs>
      <g transform="translate(27.445312 371.928019)scale(0.1 -0.1)">
       <use xlink:href="#DejaVuSans-2212"/>
       <use x="83.789062" xlink:href="#DejaVuSans-31"/>
       <use x="147.412109" xlink:href="#DejaVuSans-30"/>
       <use x="211.035156" xlink:href="#DejaVuSans-30"/>
       <use x="274.658203" xlink:href="#DejaVuSans-30"/>
       <use x="338.28125" xlink:href="#DejaVuSans-30"/>
       <use x="401.904297" xlink:href="#DejaVuSans-30"/>
      </g>
     </g>
    </g>
    <g id="ytick_2">
     <g id="line2d_21">
      <path clip-path="url(#p5e1226604d)" d="M 81 323.278756 
L 583.2 323.278756 
" style="fill:none;stroke:#b0b0b0;stroke-linecap:square;stroke-width:0.8;"/>
     </g>
     <g id="line2d_22">
      <g>
       <use style="stroke:#000000;stroke-width:0.8;" x="81" xlink:href="#m70a99f83bf" y="323.278756"/>
      </g>
     </g>
     <g id="text_12">
      <!-- −75000 -->
      <g transform="translate(33.807812 327.077975)scale(0.1 -0.1)">
       <use xlink:href="#DejaVuSans-2212"/>
       <use x="83.789062" xlink:href="#DejaVuSans-37"/>
       <use x="147.412109" xlink:href="#DejaVuSans-35"/>
       <use x="211.035156" xlink:href="#DejaVuSans-30"/>
       <use x="274.658203" xlink:href="#DejaVuSans-30"/>
       <use x="338.28125" xlink:href="#DejaVuSans-30"/>
      </g>
     </g>
    </g>
    <g id="ytick_3">
     <g id="line2d_23">
      <path clip-path="url(#p5e1226604d)" d="M 81 278.428712 
L 583.2 278.428712 
" style="fill:none;stroke:#b0b0b0;stroke-linecap:square;stroke-width:0.8;"/>
     </g>
     <g id="line2d_24">
      <g>
       <use style="stroke:#000000;stroke-width:0.8;" x="81" xlink:href="#m70a99f83bf" y="278.428712"/>
      </g>
     </g>
     <g id="text_13">
      <!-- −50000 -->
      <g transform="translate(33.807812 282.227931)scale(0.1 -0.1)">
       <use xlink:href="#DejaVuSans-2212"/>
       <use x="83.789062" xlink:href="#DejaVuSans-35"/>
       <use x="147.412109" xlink:href="#DejaVuSans-30"/>
       <use x="211.035156" xlink:href="#DejaVuSans-30"/>
       <use x="274.658203" xlink:href="#DejaVuSans-30"/>
       <use x="338.28125" xlink:href="#DejaVuSans-30"/>
      </g>
     </g>
    </g>
    <g id="ytick_4">
     <g id="line2d_25">
      <path clip-path="url(#p5e1226604d)" d="M 81 233.578668 
L 583.2 233.578668 
" style="fill:none;stroke:#b0b0b0;stroke-linecap:square;stroke-width:0.8;"/>
     </g>
     <g id="line2d_26">
      <g>
       <use style="stroke:#000000;stroke-width:0.8;" x="81" xlink:href="#m70a99f83bf" y="233.578668"/>
      </g>
     </g>
     <g id="text_14">
      <!-- −25000 -->
      <g transform="translate(33.807812 237.377887)scale(0.1 -0.1)">
       <use xlink:href="#DejaVuSans-2212"/>
       <use x="83.789062" xlink:href="#DejaVuSans-32"/>
       <use x="147.412109" xlink:href="#DejaVuSans-35"/>
       <use x="211.035156" xlink:href="#DejaVuSans-30"/>
       <use x="274.658203" xlink:href="#DejaVuSans-30"/>
       <use x="338.28125" xlink:href="#DejaVuSans-30"/>
      </g>
     </g>
    </g>
    <g id="ytick_5">
     <g id="line2d_27">
      <path clip-path="url(#p5e1226604d)" d="M 81 188.728624 
L 583.2 188.728624 
" style="fill:none;stroke:#b0b0b0;stroke-linecap:square;stroke-width:0.8;"/>
     </g>
     <g id="line2d_28">
      <g>
       <use style="stroke:#000000;stroke-width:0.8;" x="81" xlink:href="#m70a99f83bf" y="188.728624"/>
      </g>
     </g>
     <g id="text_15">
      <!-- 0 -->
      <g transform="translate(67.6375 192.527843)scale(0.1 -0.1)">
       <use xlink:href="#DejaVuSans-30"/>
      </g>
     </g>
    </g>
    <g id="ytick_6">
     <g id="line2d_29">
      <path clip-path="url(#p5e1226604d)" d="M 81 143.87858 
L 583.2 143.87858 
" style="fill:none;stroke:#b0b0b0;stroke-linecap:square;stroke-width:0.8;"/>
     </g>
     <g id="line2d_30">
      <g>
       <use style="stroke:#000000;stroke-width:0.8;" x="81" xlink:href="#m70a99f83bf" y="143.87858"/>
      </g>
     </g>
     <g id="text_16">
      <!-- 25000 -->
      <g transform="translate(42.1875 147.677799)scale(0.1 -0.1)">
       <use xlink:href="#DejaVuSans-32"/>
       <use x="63.623047" xlink:href="#DejaVuSans-35"/>
       <use x="127.246094" xlink:href="#DejaVuSans-30"/>
       <use x="190.869141" xlink:href="#DejaVuSans-30"/>
       <use x="254.492188" xlink:href="#DejaVuSans-30"/>
      </g>
     </g>
    </g>
    <g id="ytick_7">
     <g id="line2d_31">
      <path clip-path="url(#p5e1226604d)" d="M 81 99.028536 
L 583.2 99.028536 
" style="fill:none;stroke:#b0b0b0;stroke-linecap:square;stroke-width:0.8;"/>
     </g>
     <g id="line2d_32">
      <g>
       <use style="stroke:#000000;stroke-width:0.8;" x="81" xlink:href="#m70a99f83bf" y="99.028536"/>
      </g>
     </g>
     <g id="text_17">
      <!-- 50000 -->
      <g transform="translate(42.1875 102.827754)scale(0.1 -0.1)">
       <use xlink:href="#DejaVuSans-35"/>
       <use x="63.623047" xlink:href="#DejaVuSans-30"/>
       <use x="127.246094" xlink:href="#DejaVuSans-30"/>
       <use x="190.869141" xlink:href="#DejaVuSans-30"/>
       <use x="254.492188" xlink:href="#DejaVuSans-30"/>
      </g>
     </g>
    </g>
    <g id="ytick_8">
     <g id="line2d_33">
      <path clip-path="url(#p5e1226604d)" d="M 81 54.178492 
L 583.2 54.178492 
" style="fill:none;stroke:#b0b0b0;stroke-linecap:square;stroke-width:0.8;"/>
     </g>
     <g id="line2d_34">
      <g>
       <use style="stroke:#000000;stroke-width:0.8;" x="81" xlink:href="#m70a99f83bf" y="54.178492"/>
      </g>
     </g>
     <g id="text_18">
      <!-- 75000 -->
      <g transform="translate(42.1875 57.97771)scale(0.1 -0.1)">
       <use xlink:href="#DejaVuSans-37"/>
       <use x="63.623047" xlink:href="#DejaVuSans-35"/>
       <use x="127.246094" xlink:href="#DejaVuSans-30"/>
       <use x="190.869141" xlink:href="#DejaVuSans-30"/>
       <use x="254.492188" xlink:href="#DejaVuSans-30"/>
      </g>
     </g>
    </g>
    <g id="text_19">
     <!-- Service Power (kW) -->
     <defs>
      <path d="M 59.90625 70.609375 
L 59.90625 55.171875 
Q 53.90625 57.859375 48.1875 59.21875 
Q 42.484375 60.59375 37.40625 60.59375 
Q 30.671875 60.59375 27.4375 58.734375 
Q 24.21875 56.890625 24.21875 52.984375 
Q 24.21875 50.046875 26.390625 48.40625 
Q 28.5625 46.78125 34.28125 45.609375 
L 42.28125 44 
Q 54.4375 41.546875 59.5625 36.5625 
Q 64.703125 31.59375 64.703125 22.40625 
Q 64.703125 10.359375 57.546875 4.46875 
Q 50.390625 -1.421875 35.6875 -1.421875 
Q 28.765625 -1.421875 21.78125 -0.09375 
Q 14.796875 1.21875 7.8125 3.8125 
L 7.8125 19.671875 
Q 14.796875 15.96875 21.3125 14.078125 
Q 27.828125 12.203125 33.890625 12.203125 
Q 40.046875 12.203125 43.3125 14.25 
Q 46.578125 16.3125 46.578125 20.125 
Q 46.578125 23.53125 44.359375 25.390625 
Q 42.140625 27.25 35.5 28.71875 
L 28.21875 30.328125 
Q 17.28125 32.671875 12.21875 37.796875 
Q 7.171875 42.921875 7.171875 51.609375 
Q 7.171875 62.5 14.203125 68.359375 
Q 21.234375 74.21875 34.421875 74.21875 
Q 40.4375 74.21875 46.78125 73.3125 
Q 53.125 72.40625 59.90625 70.609375 
z
" id="DejaVuSans-Bold-53"/>
      <path d="M 49.03125 39.796875 
Q 46.734375 40.875 44.453125 41.375 
Q 42.1875 41.890625 39.890625 41.890625 
Q 33.15625 41.890625 29.515625 37.5625 
Q 25.875 33.25 25.875 25.203125 
L 25.875 0 
L 8.40625 0 
L 8.40625 54.6875 
L 25.875 54.6875 
L 25.875 45.703125 
Q 29.25 51.078125 33.609375 53.53125 
Q 37.984375 56 44.09375 56 
Q 44.96875 56 45.984375 55.921875 
Q 47.015625 55.859375 48.96875 55.609375 
z
" id="DejaVuSans-Bold-72"/>
      <path d="M 1.515625 54.6875 
L 19 54.6875 
L 32.625 16.890625 
L 46.1875 54.6875 
L 63.71875 54.6875 
L 42.1875 0 
L 23 0 
z
" id="DejaVuSans-Bold-76"/>
      <path d="M 8.40625 54.6875 
L 25.875 54.6875 
L 25.875 0 
L 8.40625 0 
z
M 8.40625 75.984375 
L 25.875 75.984375 
L 25.875 61.71875 
L 8.40625 61.71875 
z
" id="DejaVuSans-Bold-69"/>
      <path d="M 9.1875 72.90625 
L 40.375 72.90625 
Q 54.296875 72.90625 61.734375 66.71875 
Q 69.1875 60.546875 69.1875 49.125 
Q 69.1875 37.640625 61.734375 31.46875 
Q 54.296875 25.296875 40.375 25.296875 
L 27.984375 25.296875 
L 27.984375 0 
L 9.1875 0 
z
M 27.984375 59.28125 
L 27.984375 38.921875 
L 38.375 38.921875 
Q 43.84375 38.921875 46.828125 41.578125 
Q 49.8125 44.234375 49.8125 49.125 
Q 49.8125 54 46.828125 56.640625 
Q 43.84375 59.28125 38.375 59.28125 
z
" id="DejaVuSans-Bold-50"/>
      <path d="M 34.421875 43.5 
Q 28.609375 43.5 25.5625 39.328125 
Q 22.515625 35.15625 22.515625 27.296875 
Q 22.515625 19.4375 25.5625 15.25 
Q 28.609375 11.078125 34.421875 11.078125 
Q 40.140625 11.078125 43.15625 15.25 
Q 46.1875 19.4375 46.1875 27.296875 
Q 46.1875 35.15625 43.15625 39.328125 
Q 40.140625 43.5 34.421875 43.5 
z
M 34.421875 56 
Q 48.53125 56 56.46875 48.375 
Q 64.40625 40.765625 64.40625 27.296875 
Q 64.40625 13.8125 56.46875 6.1875 
Q 48.53125 -1.421875 34.421875 -1.421875 
Q 20.265625 -1.421875 12.28125 6.1875 
Q 4.296875 13.8125 4.296875 27.296875 
Q 4.296875 40.765625 12.28125 48.375 
Q 20.265625 56 34.421875 56 
z
" id="DejaVuSans-Bold-6f"/>
      <path d="M 3.515625 54.6875 
L 20.515625 54.6875 
L 29.6875 17 
L 38.921875 54.6875 
L 53.515625 54.6875 
L 62.703125 17.390625 
L 71.921875 54.6875 
L 88.921875 54.6875 
L 74.515625 0 
L 55.421875 0 
L 46.1875 37.59375 
L 37.015625 0 
L 17.921875 0 
z
" id="DejaVuSans-Bold-77"/>
      <path d="M 8.40625 75.984375 
L 25.875 75.984375 
L 25.875 34.625 
L 46 54.6875 
L 66.3125 54.6875 
L 39.59375 29.59375 
L 68.40625 0 
L 47.21875 0 
L 25.875 22.796875 
L 25.875 0 
L 8.40625 0 
z
" id="DejaVuSans-Bold-6b"/>
      <path d="M 2.984375 72.90625 
L 21 72.90625 
L 33.59375 19.921875 
L 46.09375 72.90625 
L 64.203125 72.90625 
L 76.703125 19.921875 
L 89.3125 72.90625 
L 107.171875 72.90625 
L 89.984375 0 
L 68.3125 0 
L 55.078125 55.421875 
L 42 0 
L 20.3125 0 
z
" id="DejaVuSans-Bold-57"/>
     </defs>
     <g transform="translate(20.53375 294.789363)rotate(-90)scale(0.14 -0.14)">
      <use xlink:href="#DejaVuSans-Bold-53"/>
      <use x="72.021484" xlink:href="#DejaVuSans-Bold-65"/>
      <use x="139.84375" xlink:href="#DejaVuSans-Bold-72"/>
      <use x="189.160156" xlink:href="#DejaVuSans-Bold-76"/>
      <use x="254.345703" xlink:href="#DejaVuSans-Bold-69"/>
      <use x="288.623047" xlink:href="#DejaVuSans-Bold-63"/>
      <use x="347.900391" xlink:href="#DejaVuSans-Bold-65"/>
      <use x="415.722656" xlink:href="#DejaVuSans-Bold-20"/>
      <use x="450.537109" xlink:href="#DejaVuSans-Bold-50"/>
      <use x="523.828125" xlink:href="#DejaVuSans-Bold-6f"/>
      <use x="592.529297" xlink:href="#DejaVuSans-Bold-77"/>
      <use x="684.912109" xlink:href="#DejaVuSans-Bold-65"/>
      <use x="752.734375" xlink:href="#DejaVuSans-Bold-72"/>
      <use x="802.050781" xlink:href="#DejaVuSans-Bold-20"/>
      <use x="836.865234" xlink:href="#DejaVuSans-Bold-28"/>
      <use x="882.568359" xlink:href="#DejaVuSans-Bold-6b"/>
      <use x="949.072266" xlink:href="#DejaVuSans-Bold-57"/>
      <use x="1059.375" xlink:href="#DejaVuSans-Bold-29"/>
     </g>
    </g>
   </g>
   <g id="line2d_35">
    <path clip-path="url(#p5e1226604d)" d="M 81 102.00073 
L 81 71.195926 
L 82.749826 71.195926 
L 82.749826 77.244869 
L 84.499652 77.244869 
L 84.499652 83.479384 
L 86.249477 83.479384 
L 86.249477 89.808622 
L 87.999303 89.808622 
L 87.999303 97.406399 
L 89.749129 97.406399 
L 89.749129 98.632958 
L 91.498955 98.632958 
L 91.498955 112.751573 
L 93.24878 112.751573 
L 93.24878 72.805971 
L 94.998606 72.805971 
L 94.998606 80.412897 
L 96.748432 80.412897 
L 96.748432 114.960527 
L 98.498258 114.960527 
L 98.498258 112.946581 
L 100.248084 112.946581 
L 100.248084 122.420345 
L 101.997909 122.420345 
L 101.997909 109.807616 
L 103.747735 109.807616 
L 103.747735 92.017577 
L 105.497561 92.017577 
L 105.497561 70.75453 
L 107.247387 70.75453 
L 107.247387 128.857651 
L 108.997213 128.857651 
L 108.997213 149.976462 
L 110.747038 149.976462 
L 110.747038 176.119373 
L 112.496864 176.119373 
L 112.496864 156.336557 
L 114.24669 156.336557 
L 114.24669 159.694067 
L 115.996516 159.694067 
L 115.996516 170.889176 
L 117.746341 170.889176 
L 117.746341 181.512178 
L 119.496167 181.512178 
L 119.496167 141.158979 
L 121.245993 141.158979 
L 121.245993 171.174243 
L 122.995819 171.174243 
L 122.995819 193.805703 
L 124.745645 193.805703 
L 124.745645 200.508057 
L 126.49547 200.508057 
L 126.49547 219.45982 
L 128.245296 219.45982 
L 128.245296 237.619442 
L 129.995122 237.619442 
L 129.995122 274.097148 
L 131.744948 274.097148 
L 131.744948 280.715687 
L 133.494774 280.715687 
L 133.494774 257.560812 
L 135.244599 257.560812 
L 135.244599 266.105337 
L 136.994425 266.105337 
L 136.994425 249.327474 
L 138.744251 249.327474 
L 138.744251 235.974719 
L 140.494077 235.974719 
L 140.494077 244.755998 
L 142.243902 244.755998 
L 142.243902 250.117247 
L 143.993728 250.117247 
L 143.993728 190.540135 
L 145.743554 190.540135 
L 145.743554 163.056764 
L 147.49338 163.056764 
L 147.49338 167.378442 
L 149.243206 167.378442 
L 149.243206 155.013608 
L 150.993031 155.013608 
L 150.993031 118.279448 
L 152.742857 118.279448 
L 152.742857 153.209972 
L 154.492683 153.209972 
L 154.492683 148.882033 
L 156.242509 148.882033 
L 156.242509 156.125135 
L 157.992334 156.125135 
L 157.992334 173.50686 
L 159.74216 173.50686 
L 159.74216 155.770461 
L 161.491986 155.770461 
L 161.491986 137.224071 
L 163.241812 137.224071 
L 163.241812 154.256324 
L 164.991638 154.256324 
L 164.991638 124.521929 
L 166.741463 124.521929 
L 166.741463 157.012269 
L 168.491289 157.012269 
L 168.491289 184.923349 
L 170.241115 184.923349 
L 170.241115 158.098412 
L 171.990941 158.098412 
L 171.990941 168.494239 
L 173.740767 168.494239 
L 173.740767 174.301423 
L 175.490592 174.301423 
L 175.490592 215.385283 
L 177.240418 215.385283 
L 177.240418 146.184536 
L 178.990244 146.184536 
L 178.990244 150.840509 
L 180.74007 150.840509 
L 180.74007 154.92728 
L 182.489895 154.92728 
L 182.489895 133.404103 
L 184.239721 133.404103 
L 184.239721 158.505363 
L 185.989547 158.505363 
L 185.989547 169.028242 
L 187.739373 169.028242 
L 187.739373 165.590127 
L 189.489199 165.590127 
L 189.489199 158.45549 
L 191.239024 158.45549 
L 191.239024 154.339512 
L 192.98885 154.339512 
L 192.98885 138.763827 
L 194.738676 138.763827 
L 194.738676 176.203208 
L 196.488502 176.203208 
L 196.488502 221.654315 
L 198.238328 221.654315 
L 198.238328 212.787282 
L 199.988153 212.787282 
L 199.988153 189.216861 
L 201.737979 189.216861 
L 201.737979 192.035669 
L 203.487805 192.035669 
L 203.487805 193.996333 
L 205.237631 193.996333 
L 205.237631 212.705242 
L 206.987456 212.705242 
L 206.987456 211.5644 
L 208.737282 211.5644 
L 208.737282 219.166375 
L 210.487108 219.166375 
L 210.487108 217.935708 
L 212.236934 217.935708 
L 212.236934 239.386856 
L 213.98676 239.386856 
L 213.98676 258.336 
L 215.736585 258.336 
L 215.736585 303.191282 
L 217.486411 303.191282 
L 217.486411 278.675584 
L 219.236237 278.675584 
L 219.236237 280.641918 
L 220.986063 280.641918 
L 220.986063 290.931164 
L 222.735889 290.931164 
L 222.735889 293.813587 
L 224.485714 293.813587 
L 224.485714 234.463344 
L 226.23554 234.463344 
L 226.23554 222.791228 
L 227.985366 222.791228 
L 227.985366 225.011287 
L 229.735192 225.011287 
L 229.735192 233.206269 
L 231.485017 233.206269 
L 231.485017 273.172681 
L 233.234843 273.172681 
L 233.234843 262.002886 
L 234.984669 262.002886 
L 234.984669 255.021402 
L 236.734495 255.021402 
L 236.734495 270.401218 
L 238.484321 270.401218 
L 238.484321 256.135513 
L 240.234146 256.135513 
L 240.234146 228.316143 
L 241.983972 228.316143 
L 241.983972 193.103925 
L 243.733798 193.103925 
L 243.733798 190.422287 
L 245.483624 190.422287 
L 245.483624 193.081177 
L 247.233449 193.081177 
L 247.233449 199.219372 
L 248.983275 199.219372 
L 248.983275 201.028282 
L 250.733101 201.028282 
L 250.733101 200.153473 
L 252.482927 200.153473 
L 252.482927 207.847157 
L 254.232753 207.847157 
L 254.232753 226.599373 
L 255.982578 226.599373 
L 255.982578 255.52166 
L 257.732404 255.52166 
L 257.732404 276.952231 
L 259.48223 276.952231 
L 259.48223 256.271068 
L 261.232056 256.271068 
L 261.232056 257.633917 
L 262.981882 257.633917 
L 262.981882 258.470819 
L 264.731707 258.470819 
L 264.731707 226.182196 
L 266.481533 226.182196 
L 266.481533 190.95733 
L 268.231359 190.95733 
L 268.231359 276.136749 
L 269.981185 276.136749 
L 269.981185 279.332709 
L 271.73101 279.332709 
L 271.73101 281.722015 
L 273.480836 281.722015 
L 273.480836 284.567714 
L 275.230662 284.567714 
L 275.230662 288.060959 
L 276.980488 288.060959 
L 276.980488 316.993704 
L 278.730314 316.993704 
L 278.730314 302.579994 
L 280.480139 302.579994 
L 280.480139 300.173915 
L 283.979791 300.167456 
L 283.979791 298.708843 
L 285.729617 298.708843 
L 285.729617 295.517817 
L 289.229268 295.4152 
L 289.229268 299.238684 
L 290.979094 299.238684 
L 290.979094 302.728215 
L 292.72892 302.728215 
L 292.72892 277.643693 
L 294.478746 277.643693 
L 294.478746 263.398153 
L 296.228571 263.398153 
L 296.228571 272.426126 
L 297.978397 272.426126 
L 297.978397 284.648121 
L 299.728223 284.648121 
L 299.728223 285.58181 
L 301.478049 285.58181 
L 301.478049 273.827295 
L 303.227875 273.827295 
L 303.227875 266.662195 
L 304.9777 266.662195 
L 304.9777 267.043295 
L 306.727526 267.043295 
L 306.727526 265.613117 
L 308.477352 265.613117 
L 308.477352 263.33904 
L 310.227178 263.33904 
L 310.227178 260.975945 
L 311.977003 260.975945 
L 311.977003 271.982146 
L 313.726829 271.982146 
L 313.726829 252.522071 
L 315.476655 252.522071 
L 315.476655 283.047728 
L 317.226481 283.047728 
L 317.226481 279.40124 
L 318.976307 279.40124 
L 318.976307 281.996479 
L 320.726132 281.996479 
L 320.726132 279.200061 
L 322.475958 279.200061 
L 322.475958 274.697906 
L 324.225784 274.697906 
L 324.225784 272.343853 
L 325.97561 272.343853 
L 325.97561 269.743985 
L 327.725436 269.743985 
L 327.725436 260.034848 
L 329.475261 260.034848 
L 329.475261 264.360545 
L 331.225087 264.360545 
L 331.225087 261.908521 
L 332.974913 261.908521 
L 332.974913 260.839798 
L 334.724739 260.839798 
L 334.724739 262.005379 
L 336.474564 262.005379 
L 336.474564 255.730176 
L 338.22439 255.730176 
L 338.22439 249.131551 
L 339.974216 249.131551 
L 339.974216 247.590435 
L 341.724042 247.590435 
L 341.724042 251.458689 
L 343.473868 251.458689 
L 343.473868 244.246872 
L 345.223693 244.246872 
L 345.223693 241.613277 
L 346.973519 241.613277 
L 346.973519 248.519466 
L 348.723345 248.519466 
L 348.723345 245.034797 
L 350.473171 245.034797 
L 350.473171 237.783442 
L 352.222997 237.783442 
L 352.222997 237.006469 
L 353.972822 237.006469 
L 353.972822 235.591658 
L 355.722648 235.591658 
L 355.722648 230.428282 
L 357.472474 230.428282 
L 357.472474 230.199666 
L 359.2223 230.199666 
L 359.2223 235.003572 
L 360.972125 235.003572 
L 360.972125 227.882377 
L 362.721951 227.882377 
L 362.721951 228.455193 
L 364.471777 228.455193 
L 364.471777 223.072624 
L 366.221603 223.072624 
L 366.221603 230.976996 
L 367.971429 230.976996 
L 367.971429 229.701102 
L 369.721254 229.701102 
L 369.721254 218.700283 
L 371.47108 218.700283 
L 371.47108 216.402525 
L 374.970732 216.405812 
L 374.970732 215.508406 
L 376.720557 215.508406 
L 376.720557 213.177843 
L 378.470383 213.177843 
L 378.470383 212.051122 
L 380.220209 212.051122 
L 380.220209 211.829402 
L 381.970035 211.829402 
L 381.970035 219.399733 
L 383.719861 219.399733 
L 383.719861 212.789698 
L 385.469686 212.789698 
L 385.469686 211.77279 
L 387.219512 211.77279 
L 387.219512 214.337495 
L 388.969338 214.337495 
L 388.969338 205.864783 
L 390.719164 205.864783 
L 390.719164 203.589272 
L 392.46899 203.589272 
L 392.46899 207.167229 
L 394.218815 207.167229 
L 394.218815 210.958103 
L 395.968641 210.958103 
L 395.968641 208.275425 
L 397.718467 208.275425 
L 397.718467 201.509469 
L 399.468293 201.509469 
L 399.468293 200.80335 
L 401.218118 200.80335 
L 401.218118 198.893528 
L 402.967944 198.893528 
L 402.967944 197.883584 
L 404.71777 197.883584 
L 404.71777 199.999063 
L 406.467596 199.999063 
L 406.467596 199.223405 
L 408.217422 199.223405 
L 408.217422 199.775958 
L 409.967247 199.775958 
L 409.967247 197.12837 
L 411.717073 197.12837 
L 411.717073 201.964927 
L 413.466899 201.964927 
L 413.466899 198.266198 
L 415.216725 198.266198 
L 415.216725 195.956384 
L 416.966551 195.956384 
L 416.966551 194.786039 
L 418.716376 194.786039 
L 418.716376 201.469629 
L 420.466202 201.469629 
L 420.466202 198.652615 
L 422.216028 198.652615 
L 422.216028 199.205168 
L 425.715679 199.205168 
L 425.715679 196.056475 
L 427.465505 196.056475 
L 427.465505 195.797134 
L 429.215331 195.797134 
L 429.215331 192.996482 
L 430.965157 192.996482 
L 430.965157 191.066567 
L 432.714983 191.066567 
L 432.714983 192.444719 
L 434.464808 192.444719 
L 434.464808 190.076637 
L 436.214634 190.076637 
L 436.214634 190.803997 
L 441.464111 190.803997 
L 441.464111 189.105292 
L 443.213937 189.105292 
L 443.213937 199.756783 
L 446.713589 199.756783 
L 446.713589 198.74676 
L 448.463415 198.74676 
L 448.463415 197.369397 
L 450.21324 197.369397 
L 450.21324 195.532914 
L 458.962369 195.532914 
L 458.962369 193.769259 
L 460.712195 193.769259 
L 460.712195 190.014155 
L 478.210453 190.002677 
L 478.210453 184.74984 
L 481.710105 184.74984 
L 481.710105 209.649138 
L 483.45993 209.649138 
L 483.45993 204.819685 
L 485.209756 204.819685 
L 485.209756 213.054153 
L 488.709408 212.985981 
L 488.709408 210.963079 
L 490.459233 210.963079 
L 490.459233 195.301444 
L 492.209059 195.301444 
L 492.209059 168.391417 
L 493.958885 168.391417 
L 493.958885 196.001105 
L 495.708711 196.001105 
L 495.708711 145.988282 
L 497.458537 145.988282 
L 497.458537 145.175589 
L 499.208362 145.175589 
L 499.208362 138.958274 
L 500.958188 138.958274 
L 500.958188 162.558357 
L 502.708014 162.558357 
L 502.708014 130.655608 
L 504.45784 130.655608 
L 504.45784 82.501708 
L 506.207666 82.501708 
L 506.207666 109.576413 
L 507.957491 109.576413 
L 507.957491 100.061544 
L 509.707317 100.061544 
L 509.707317 98.413003 
L 511.457143 98.413003 
L 511.457143 116.1356 
L 513.206969 116.1356 
L 513.206969 131.092731 
L 514.956794 131.092731 
L 514.956794 125.534174 
L 516.70662 125.534174 
L 516.70662 110.293412 
L 518.456446 110.293412 
L 518.456446 86.869827 
L 520.206272 86.869827 
L 520.206272 66.7368 
L 521.956098 66.7368 
L 521.956098 87.524277 
L 523.705923 87.524277 
L 523.705923 83.060969 
L 525.455749 83.060969 
L 525.455749 71.068968 
L 527.205575 71.068968 
L 527.205575 93.730407 
L 528.955401 93.730407 
L 528.955401 118.241184 
L 530.705226 118.241184 
L 530.705226 141.398699 
L 532.455052 141.398699 
L 532.455052 124.610233 
L 534.204878 124.610233 
L 534.204878 149.558502 
L 535.954704 149.558502 
L 535.954704 151.571345 
L 537.70453 151.571345 
L 537.70453 150.085261 
L 539.454355 150.085261 
L 539.454355 148.059103 
L 541.204181 148.059103 
L 541.204181 144.785735 
L 542.954007 144.785735 
L 542.954007 144.028056 
L 544.703833 144.028056 
L 544.703833 116.750546 
L 546.453659 116.750546 
L 546.453659 115.913268 
L 548.203484 115.913268 
L 548.203484 88.22285 
L 549.95331 88.22285 
L 549.95331 112.161418 
L 551.703136 112.161418 
L 551.703136 123.371365 
L 553.452962 123.371365 
L 553.452962 125.318876 
L 555.202787 125.318876 
L 555.202787 135.950113 
L 556.952613 135.950113 
L 556.952613 137.817992 
L 558.702439 137.817992 
L 558.702439 139.234743 
L 560.452265 139.234743 
L 560.452265 141.117477 
L 562.202091 141.117477 
L 562.202091 118.416008 
L 563.951916 118.416008 
L 563.951916 142.99272 
L 565.701742 142.99272 
L 565.701742 146.191084 
L 567.451568 146.191084 
L 567.451568 112.171805 
L 569.201394 112.171805 
L 569.201394 128.464696 
L 570.95122 128.464696 
L 570.95122 130.725354 
L 572.701045 130.725354 
L 572.701045 183.225254 
L 574.450871 183.225254 
L 574.450871 168.757132 
L 576.200697 168.757132 
L 576.200697 147.059094 
L 577.950523 147.059094 
L 577.950523 150.105201 
L 579.700348 150.105201 
L 579.700348 154.601651 
L 581.450174 154.601651 
L 581.450174 134.169945 
L 583.2 134.169945 
L 583.2 134.169945 
" style="fill:none;stroke:#000000;stroke-linecap:square;stroke-width:1.75;"/>
   </g>
   <g id="line2d_36">
    <path clip-path="url(#p5e1226604d)" d="M 81 301.644803 
L 81 303.529399 
L 82.749826 303.529399 
L 82.749826 305.402049 
L 84.499652 305.402049 
L 84.499652 307.26186 
L 86.249477 307.26186 
L 86.249477 309.107949 
L 87.999303 309.107949 
L 87.999303 310.939436 
L 89.749129 310.939436 
L 89.749129 312.755449 
L 91.498955 312.755449 
L 91.498955 314.555125 
L 93.24878 314.555125 
L 93.24878 316.337607 
L 94.998606 316.337607 
L 94.998606 318.102046 
L 96.748432 318.102046 
L 96.748432 319.847603 
L 98.498258 319.847603 
L 98.498258 321.573447 
L 100.248084 321.573447 
L 100.248084 323.278756 
L 101.997909 323.278756 
L 101.997909 324.962719 
L 103.747735 324.962719 
L 103.747735 326.624534 
L 105.497561 326.624534 
L 105.497561 328.263411 
L 107.247387 328.263411 
L 107.247387 329.878569 
L 108.997213 329.878569 
L 108.997213 331.469239 
L 110.747038 331.469239 
L 110.747038 333.034666 
L 112.496864 333.034666 
L 112.496864 334.574102 
L 114.24669 334.574102 
L 114.24669 336.086817 
L 115.996516 336.086817 
L 115.996516 337.57209 
L 117.746341 337.57209 
L 117.746341 339.029213 
L 119.496167 339.029213 
L 119.496167 340.457494 
L 121.245993 340.457494 
L 121.245993 341.856252 
L 122.995819 341.856252 
L 122.995819 343.224823 
L 124.745645 343.224823 
L 124.745645 344.562554 
L 126.49547 344.562554 
L 126.49547 345.868809 
L 128.245296 345.868809 
L 128.245296 347.142966 
L 129.995122 347.142966 
L 129.995122 348.384419 
L 131.744948 348.384419 
L 131.744948 349.592576 
L 133.494774 349.592576 
L 133.494774 350.766864 
L 135.244599 350.766864 
L 135.244599 351.906722 
L 136.994425 351.906722 
L 136.994425 353.011609 
L 138.744251 353.011609 
L 138.744251 354.080999 
L 140.494077 354.080999 
L 140.494077 355.114382 
L 142.243902 355.114382 
L 142.243902 356.111267 
L 143.993728 356.111267 
L 143.993728 357.071179 
L 145.743554 357.071179 
L 145.743554 357.993662 
L 147.49338 357.993662 
L 147.49338 358.878276 
L 149.243206 358.878276 
L 149.243206 359.7246 
L 150.993031 359.7246 
L 150.993031 360.532232 
L 152.742857 360.532232 
L 152.742857 361.300787 
L 154.492683 361.300787 
L 154.492683 362.0299 
L 156.242509 362.0299 
L 156.242509 362.719223 
L 157.992334 362.719223 
L 157.992334 363.368428 
L 159.74216 363.368428 
L 159.74216 363.977206 
L 161.491986 363.977206 
L 161.491986 364.545268 
L 163.241812 364.545268 
L 163.241812 365.072344 
L 164.991638 365.072344 
L 164.991638 365.558181 
L 166.741463 365.558181 
L 166.741463 366.00255 
L 168.491289 366.00255 
L 168.491289 366.405238 
L 170.241115 366.405238 
L 170.241115 366.766054 
L 171.990941 366.766054 
L 171.990941 367.084826 
L 173.740767 367.084826 
L 173.740767 367.361403 
L 175.490592 367.361403 
L 175.490592 367.595653 
L 177.240418 367.595653 
L 177.240418 367.787464 
L 178.990244 367.787464 
L 178.990244 367.936745 
L 182.489895 368.043425 
L 182.489895 368.107454 
L 189.489199 368.043425 
L 189.489199 367.936745 
L 191.239024 367.936745 
L 191.239024 367.787464 
L 192.98885 367.787464 
L 192.98885 367.595653 
L 194.738676 367.595653 
L 194.738676 367.361403 
L 196.488502 367.361403 
L 196.488502 367.084826 
L 198.238328 367.084826 
L 198.238328 366.766054 
L 199.988153 366.766054 
L 199.988153 366.405238 
L 201.737979 366.405238 
L 201.737979 366.00255 
L 203.487805 366.00255 
L 203.487805 365.558181 
L 205.237631 365.558181 
L 205.237631 365.072344 
L 206.987456 365.072344 
L 206.987456 364.545268 
L 208.737282 364.545268 
L 208.737282 363.977206 
L 210.487108 363.977206 
L 210.487108 363.368428 
L 212.236934 363.368428 
L 212.236934 362.719223 
L 213.98676 362.719223 
L 213.98676 362.0299 
L 215.736585 362.0299 
L 215.736585 361.300787 
L 217.486411 361.300787 
L 217.486411 360.532232 
L 219.236237 360.532232 
L 219.236237 359.7246 
L 220.986063 359.7246 
L 220.986063 358.878276 
L 222.735889 358.878276 
L 222.735889 357.993662 
L 224.485714 357.993662 
L 224.485714 357.071179 
L 226.23554 357.071179 
L 226.23554 356.111267 
L 227.985366 356.111267 
L 227.985366 355.114382 
L 229.735192 355.114382 
L 229.735192 354.080999 
L 231.485017 354.080999 
L 231.485017 353.011609 
L 233.234843 353.011609 
L 233.234843 351.906722 
L 234.984669 351.906722 
L 234.984669 350.766864 
L 236.734495 350.766864 
L 236.734495 349.592576 
L 238.484321 349.592576 
L 238.484321 348.384419 
L 240.234146 348.384419 
L 240.234146 347.142966 
L 241.983972 347.142966 
L 241.983972 345.868809 
L 243.733798 345.868809 
L 243.733798 344.562554 
L 245.483624 344.562554 
L 245.483624 343.224823 
L 247.233449 343.224823 
L 247.233449 341.856252 
L 248.983275 341.856252 
L 248.983275 340.457494 
L 250.733101 340.457494 
L 250.733101 339.029213 
L 252.482927 339.029213 
L 252.482927 337.57209 
L 254.232753 337.57209 
L 254.232753 336.086817 
L 255.982578 336.086817 
L 255.982578 334.574102 
L 257.732404 334.574102 
L 257.732404 333.034666 
L 259.48223 333.034666 
L 259.48223 331.469239 
L 261.232056 331.469239 
L 261.232056 329.878569 
L 262.981882 329.878569 
L 262.981882 328.263411 
L 264.731707 328.263411 
L 264.731707 326.624534 
L 266.481533 326.624534 
L 266.481533 324.962719 
L 268.231359 324.962719 
L 268.231359 323.278756 
L 269.981185 323.278756 
L 269.981185 321.573447 
L 271.73101 321.573447 
L 271.73101 319.847603 
L 273.480836 319.847603 
L 273.480836 318.102046 
L 275.230662 318.102046 
L 275.230662 316.337607 
L 276.980488 316.337607 
L 276.980488 314.555125 
L 278.730314 314.555125 
L 278.730314 312.755449 
L 280.480139 312.755449 
L 280.480139 310.939436 
L 282.229965 310.939436 
L 282.229965 309.107949 
L 283.979791 309.107949 
L 283.979791 307.26186 
L 285.729617 307.26186 
L 285.729617 305.402049 
L 287.479443 305.402049 
L 287.479443 303.529399 
L 289.229268 303.529399 
L 289.229268 301.644803 
L 290.979094 301.644803 
L 290.979094 299.749157 
L 292.72892 299.749157 
L 292.72892 297.843364 
L 294.478746 297.843364 
L 294.478746 295.928331 
L 296.228571 295.928331 
L 296.228571 294.004969 
L 297.978397 294.004969 
L 297.978397 292.074193 
L 299.728223 292.074193 
L 299.728223 290.136923 
L 301.478049 290.136923 
L 301.478049 288.19408 
L 303.227875 288.19408 
L 303.227875 286.24659 
L 304.9777 286.24659 
L 304.9777 284.295378 
L 306.727526 284.295378 
L 306.727526 282.341375 
L 308.477352 282.341375 
L 308.477352 280.385509 
L 310.227178 280.385509 
L 310.227178 278.428712 
L 311.977003 278.428712 
L 311.977003 276.471915 
L 313.726829 276.471915 
L 313.726829 274.516049 
L 315.476655 274.516049 
L 315.476655 272.562045 
L 317.226481 272.562045 
L 317.226481 270.610834 
L 318.976307 270.610834 
L 318.976307 268.663344 
L 320.726132 268.663344 
L 320.726132 266.720501 
L 322.475958 266.720501 
L 322.475958 264.783231 
L 324.225784 264.783231 
L 324.225784 262.852455 
L 325.97561 262.852455 
L 325.97561 260.929093 
L 327.725436 260.929093 
L 327.725436 259.014059 
L 329.475261 259.014059 
L 329.475261 257.108266 
L 331.225087 257.108266 
L 331.225087 255.212621 
L 332.974913 255.212621 
L 332.974913 253.328025 
L 334.724739 253.328025 
L 334.724739 251.455375 
L 336.474564 251.455375 
L 336.474564 249.595564 
L 338.22439 249.595564 
L 338.22439 247.749475 
L 339.974216 247.749475 
L 339.974216 245.917988 
L 341.724042 245.917988 
L 341.724042 244.101974 
L 343.473868 244.101974 
L 343.473868 242.302298 
L 345.223693 242.302298 
L 345.223693 240.519817 
L 346.973519 240.519817 
L 346.973519 238.755377 
L 348.723345 238.755377 
L 348.723345 237.009821 
L 350.473171 237.009821 
L 350.473171 235.283977 
L 352.222997 235.283977 
L 352.222997 233.578668 
L 353.972822 233.578668 
L 353.972822 231.894705 
L 355.722648 231.894705 
L 355.722648 230.23289 
L 357.472474 230.23289 
L 357.472474 228.594013 
L 359.2223 228.594013 
L 359.2223 226.978855 
L 360.972125 226.978855 
L 360.972125 225.388184 
L 362.721951 225.388184 
L 362.721951 223.822758 
L 364.471777 223.822758 
L 364.471777 222.283321 
L 366.221603 222.283321 
L 366.221603 220.770607 
L 367.971429 220.770607 
L 367.971429 219.285334 
L 369.721254 219.285334 
L 369.721254 217.828211 
L 371.47108 217.828211 
L 371.47108 216.39993 
L 373.220906 216.39993 
L 373.220906 215.001171 
L 374.970732 215.001171 
L 374.970732 213.632601 
L 376.720557 213.632601 
L 376.720557 212.29487 
L 378.470383 212.29487 
L 378.470383 210.988615 
L 380.220209 210.988615 
L 380.220209 209.714458 
L 381.970035 209.714458 
L 381.970035 208.473005 
L 383.719861 208.473005 
L 383.719861 207.264847 
L 385.469686 207.264847 
L 385.469686 206.09056 
L 387.219512 206.09056 
L 387.219512 204.950701 
L 388.969338 204.950701 
L 388.969338 203.845814 
L 390.719164 203.845814 
L 390.719164 202.776425 
L 392.46899 202.776425 
L 392.46899 201.743042 
L 394.218815 201.743042 
L 394.218815 200.746157 
L 395.968641 200.746157 
L 395.968641 199.786245 
L 397.718467 199.786245 
L 397.718467 198.863762 
L 399.468293 198.863762 
L 399.468293 197.979148 
L 401.218118 197.979148 
L 401.218118 197.132824 
L 402.967944 197.132824 
L 402.967944 196.325192 
L 404.71777 196.325192 
L 404.71777 195.556636 
L 406.467596 195.556636 
L 406.467596 194.827524 
L 408.217422 194.827524 
L 408.217422 194.138201 
L 409.967247 194.138201 
L 409.967247 193.488996 
L 411.717073 193.488996 
L 411.717073 192.880217 
L 413.466899 192.880217 
L 413.466899 192.312155 
L 415.216725 192.312155 
L 415.216725 191.78508 
L 416.966551 191.78508 
L 416.966551 191.299243 
L 418.716376 191.299243 
L 418.716376 190.854874 
L 420.466202 190.854874 
L 420.466202 190.452186 
L 422.216028 190.452186 
L 422.216028 190.09137 
L 423.965854 190.09137 
L 423.965854 189.772597 
L 425.715679 189.772597 
L 425.715679 189.49602 
L 427.465505 189.49602 
L 427.465505 189.261771 
L 429.215331 189.261771 
L 429.215331 189.06996 
L 430.965157 189.06996 
L 430.965157 188.920679 
L 434.464808 188.813998 
L 434.464808 188.74997 
L 441.464111 188.813998 
L 441.464111 188.920679 
L 443.213937 188.920679 
L 443.213937 189.06996 
L 444.963763 189.06996 
L 444.963763 189.261771 
L 446.713589 189.261771 
L 446.713589 189.49602 
L 448.463415 189.49602 
L 448.463415 189.772597 
L 450.21324 189.772597 
L 450.21324 190.09137 
L 451.963066 190.09137 
L 451.963066 190.452186 
L 453.712892 190.452186 
L 453.712892 190.854874 
L 455.462718 190.854874 
L 455.462718 191.299243 
L 457.212544 191.299243 
L 457.212544 191.78508 
L 458.962369 191.78508 
L 458.962369 192.312155 
L 460.712195 192.312155 
L 460.712195 192.880217 
L 462.462021 192.880217 
L 462.462021 193.488996 
L 464.211847 193.488996 
L 464.211847 194.138201 
L 465.961672 194.138201 
L 465.961672 194.827524 
L 467.711498 194.827524 
L 467.711498 195.556636 
L 469.461324 195.556636 
L 469.461324 196.325192 
L 471.21115 196.325192 
L 471.21115 197.132824 
L 472.960976 197.132824 
L 472.960976 197.979148 
L 474.710801 197.979148 
L 474.710801 198.863762 
L 476.460627 198.863762 
L 476.460627 199.786245 
L 478.210453 199.786245 
L 478.210453 200.746157 
L 479.960279 200.746157 
L 479.960279 201.743042 
L 481.710105 201.743042 
L 481.710105 202.776425 
L 483.45993 202.776425 
L 483.45993 203.845814 
L 485.209756 203.845814 
L 485.209756 204.950701 
L 486.959582 204.950701 
L 486.959582 206.09056 
L 488.709408 206.09056 
L 488.709408 207.264847 
L 490.459233 207.264847 
L 490.459233 208.473005 
L 492.209059 208.473005 
L 492.209059 209.714458 
L 493.958885 209.714458 
L 493.958885 210.988615 
L 495.708711 210.988615 
L 495.708711 212.29487 
L 497.458537 212.29487 
L 497.458537 213.632601 
L 499.208362 213.632601 
L 499.208362 215.001171 
L 500.958188 215.001171 
L 500.958188 216.39993 
L 502.708014 216.39993 
L 502.708014 217.828211 
L 504.45784 217.828211 
L 504.45784 219.285334 
L 506.207666 219.285334 
L 506.207666 220.770607 
L 507.957491 220.770607 
L 507.957491 222.283321 
L 509.707317 222.283321 
L 509.707317 223.822758 
L 511.457143 223.822758 
L 511.457143 225.388184 
L 513.206969 225.388184 
L 513.206969 226.978855 
L 514.956794 226.978855 
L 514.956794 228.594013 
L 516.70662 228.594013 
L 516.70662 230.23289 
L 518.456446 230.23289 
L 518.456446 231.894705 
L 520.206272 231.894705 
L 520.206272 233.578668 
L 521.956098 233.578668 
L 521.956098 235.283977 
L 523.705923 235.283977 
L 523.705923 237.009821 
L 525.455749 237.009821 
L 525.455749 238.755377 
L 527.205575 238.755377 
L 527.205575 240.519817 
L 528.955401 240.519817 
L 528.955401 242.302298 
L 530.705226 242.302298 
L 530.705226 244.101974 
L 532.455052 244.101974 
L 532.455052 245.917988 
L 534.204878 245.917988 
L 534.204878 247.749475 
L 535.954704 247.749475 
L 535.954704 249.595564 
L 537.70453 249.595564 
L 537.70453 251.455375 
L 539.454355 251.455375 
L 539.454355 253.328025 
L 541.204181 253.328025 
L 541.204181 255.212621 
L 542.954007 255.212621 
L 542.954007 257.108266 
L 544.703833 257.108266 
L 544.703833 259.014059 
L 546.453659 259.014059 
L 546.453659 260.929093 
L 548.203484 260.929093 
L 548.203484 262.852455 
L 549.95331 262.852455 
L 549.95331 264.783231 
L 551.703136 264.783231 
L 551.703136 266.720501 
L 553.452962 266.720501 
L 553.452962 268.663344 
L 555.202787 268.663344 
L 555.202787 270.610834 
L 556.952613 270.610834 
L 556.952613 272.562045 
L 558.702439 272.562045 
L 558.702439 274.516049 
L 560.452265 274.516049 
L 560.452265 276.471915 
L 562.202091 276.471915 
L 562.202091 278.428712 
L 563.951916 278.428712 
L 563.951916 280.385509 
L 565.701742 280.385509 
L 565.701742 282.341375 
L 567.451568 282.341375 
L 567.451568 284.295378 
L 569.201394 284.295378 
L 569.201394 286.24659 
L 570.95122 286.24659 
L 570.95122 288.19408 
L 572.701045 288.19408 
L 572.701045 290.136923 
L 574.450871 290.136923 
L 574.450871 292.074193 
L 576.200697 292.074193 
L 576.200697 294.004969 
L 577.950523 294.004969 
L 577.950523 295.928331 
L 579.700348 295.928331 
L 579.700348 297.843364 
L 581.450174 297.843364 
L 581.450174 299.749157 
L 583.2 299.749157 
L 583.2 299.749157 
" style="fill:none;stroke:#ff0000;stroke-linecap:square;stroke-width:1.75;"/>
   </g>
   <g id="patch_3">
    <path d="M 81 383.1984 
L 81 51.6672 
" style="fill:none;stroke:#000000;stroke-linecap:square;stroke-linejoin:miter;stroke-width:0.8;"/>
   </g>
   <g id="patch_4">
    <path d="M 583.2 383.1984 
L 583.2 51.6672 
" style="fill:none;stroke:#000000;stroke-linecap:square;stroke-linejoin:miter;stroke-width:0.8;"/>
   </g>
   <g id="patch_5">
    <path d="M 81 383.1984 
L 583.2 383.1984 
" style="fill:none;stroke:#000000;stroke-linecap:square;stroke-linejoin:miter;stroke-width:0.8;"/>
   </g>
   <g id="patch_6">
    <path d="M 81 51.6672 
L 583.2 51.6672 
" style="fill:none;stroke:#000000;stroke-linecap:square;stroke-linejoin:miter;stroke-width:0.8;"/>
   </g>
   <g id="text_20">
    <!-- Initial hour of request: 5:0:0| 24 hours of simulation| dt = 5 min -->
    <defs>
     <path d="M 9.1875 72.90625 
L 27.984375 72.90625 
L 27.984375 0 
L 9.1875 0 
z
" id="DejaVuSans-Bold-49"/>
     <path d="M 63.375 33.296875 
L 63.375 0 
L 45.796875 0 
L 45.796875 5.421875 
L 45.796875 25.484375 
Q 45.796875 32.5625 45.484375 35.25 
Q 45.171875 37.9375 44.390625 39.203125 
Q 43.359375 40.921875 41.59375 41.875 
Q 39.84375 42.828125 37.59375 42.828125 
Q 32.125 42.828125 29 38.59375 
Q 25.875 34.375 25.875 26.90625 
L 25.875 0 
L 8.40625 0 
L 8.40625 54.6875 
L 25.875 54.6875 
L 25.875 46.6875 
Q 29.828125 51.46875 34.265625 53.734375 
Q 38.71875 56 44.09375 56 
Q 53.5625 56 58.46875 50.1875 
Q 63.375 44.390625 63.375 33.296875 
z
" id="DejaVuSans-Bold-6e"/>
     <path d="M 27.484375 70.21875 
L 27.484375 54.6875 
L 45.515625 54.6875 
L 45.515625 42.1875 
L 27.484375 42.1875 
L 27.484375 19 
Q 27.484375 15.1875 29 13.84375 
Q 30.515625 12.5 35.015625 12.5 
L 44 12.5 
L 44 0 
L 29 0 
Q 18.65625 0 14.328125 4.3125 
Q 10.015625 8.640625 10.015625 19 
L 10.015625 42.1875 
L 1.3125 42.1875 
L 1.3125 54.6875 
L 10.015625 54.6875 
L 10.015625 70.21875 
z
" id="DejaVuSans-Bold-74"/>
     <path d="M 32.90625 24.609375 
Q 27.4375 24.609375 24.671875 22.75 
Q 21.921875 20.90625 21.921875 17.28125 
Q 21.921875 13.96875 24.140625 12.078125 
Q 26.375 10.203125 30.328125 10.203125 
Q 35.25 10.203125 38.625 13.734375 
Q 42 17.28125 42 22.609375 
L 42 24.609375 
z
M 59.625 31.203125 
L 59.625 0 
L 42 0 
L 42 8.109375 
Q 38.484375 3.125 34.078125 0.84375 
Q 29.6875 -1.421875 23.390625 -1.421875 
Q 14.890625 -1.421875 9.59375 3.53125 
Q 4.296875 8.5 4.296875 16.40625 
Q 4.296875 26.03125 10.90625 30.515625 
Q 17.53125 35.015625 31.6875 35.015625 
L 42 35.015625 
L 42 36.375 
Q 42 40.53125 38.71875 42.453125 
Q 35.453125 44.390625 28.515625 44.390625 
Q 22.90625 44.390625 18.0625 43.265625 
Q 13.234375 42.140625 9.078125 39.890625 
L 9.078125 53.21875 
Q 14.703125 54.59375 20.359375 55.296875 
Q 26.03125 56 31.6875 56 
Q 46.484375 56 53.046875 50.171875 
Q 59.625 44.34375 59.625 31.203125 
z
" id="DejaVuSans-Bold-61"/>
     <path d="M 8.40625 75.984375 
L 25.875 75.984375 
L 25.875 0 
L 8.40625 0 
z
" id="DejaVuSans-Bold-6c"/>
     <path d="M 63.375 33.296875 
L 63.375 0 
L 45.796875 0 
L 45.796875 5.421875 
L 45.796875 25.390625 
Q 45.796875 32.5625 45.484375 35.25 
Q 45.171875 37.9375 44.390625 39.203125 
Q 43.359375 40.921875 41.59375 41.875 
Q 39.84375 42.828125 37.59375 42.828125 
Q 32.125 42.828125 29 38.59375 
Q 25.875 34.375 25.875 26.90625 
L 25.875 0 
L 8.40625 0 
L 8.40625 75.984375 
L 25.875 75.984375 
L 25.875 46.6875 
Q 29.828125 51.46875 34.265625 53.734375 
Q 38.71875 56 44.09375 56 
Q 53.5625 56 58.46875 50.1875 
Q 63.375 44.390625 63.375 33.296875 
z
" id="DejaVuSans-Bold-68"/>
     <path d="M 7.8125 21.296875 
L 7.8125 54.6875 
L 25.390625 54.6875 
L 25.390625 49.21875 
Q 25.390625 44.78125 25.34375 38.0625 
Q 25.296875 31.34375 25.296875 29.109375 
Q 25.296875 22.515625 25.640625 19.609375 
Q 25.984375 16.703125 26.8125 15.375 
Q 27.875 13.671875 29.609375 12.734375 
Q 31.34375 11.8125 33.59375 11.8125 
Q 39.0625 11.8125 42.1875 16.015625 
Q 45.3125 20.21875 45.3125 27.6875 
L 45.3125 54.6875 
L 62.796875 54.6875 
L 62.796875 0 
L 45.3125 0 
L 45.3125 7.90625 
Q 41.359375 3.125 36.9375 0.84375 
Q 32.515625 -1.421875 27.203125 -1.421875 
Q 17.71875 -1.421875 12.765625 4.390625 
Q 7.8125 10.203125 7.8125 21.296875 
z
" id="DejaVuSans-Bold-75"/>
     <path d="M 44.390625 75.984375 
L 44.390625 64.5 
L 34.71875 64.5 
Q 31 64.5 29.53125 63.15625 
Q 28.078125 61.8125 28.078125 58.5 
L 28.078125 54.6875 
L 43.015625 54.6875 
L 43.015625 42.1875 
L 28.078125 42.1875 
L 28.078125 0 
L 10.59375 0 
L 10.59375 42.1875 
L 1.90625 42.1875 
L 1.90625 54.6875 
L 10.59375 54.6875 
L 10.59375 58.5 
Q 10.59375 67.4375 15.578125 71.703125 
Q 20.5625 75.984375 31 75.984375 
z
" id="DejaVuSans-Bold-66"/>
     <path d="M 34.078125 43.3125 
Q 28.515625 43.3125 25.5625 39.203125 
Q 22.609375 35.109375 22.609375 27.296875 
Q 22.609375 19.484375 25.5625 15.375 
Q 28.515625 11.28125 34.078125 11.28125 
Q 39.703125 11.28125 42.65625 15.375 
Q 45.609375 19.484375 45.609375 27.296875 
Q 45.609375 35.109375 42.65625 39.203125 
Q 39.703125 43.3125 34.078125 43.3125 
z
M 45.609375 7.90625 
Q 42 3.078125 37.640625 0.828125 
Q 33.296875 -1.421875 27.59375 -1.421875 
Q 17.484375 -1.421875 10.984375 6.609375 
Q 4.5 14.65625 4.5 27.296875 
Q 4.5 39.9375 10.984375 47.921875 
Q 17.484375 55.90625 27.59375 55.90625 
Q 33.296875 55.90625 37.640625 53.65625 
Q 42 51.421875 45.609375 46.578125 
L 45.609375 54.6875 
L 63.1875 54.6875 
L 63.1875 -20.796875 
L 45.609375 -20.796875 
z
" id="DejaVuSans-Bold-71"/>
     <path d="M 11.1875 54.6875 
L 28.8125 54.6875 
L 28.8125 35.796875 
L 11.1875 35.796875 
z
M 11.1875 18.890625 
L 28.8125 18.890625 
L 28.8125 0 
L 11.1875 0 
z
" id="DejaVuSans-Bold-3a"/>
     <path d="M 10.59375 72.90625 
L 57.328125 72.90625 
L 57.328125 59.078125 
L 25.59375 59.078125 
L 25.59375 47.796875 
Q 27.734375 48.390625 29.90625 48.703125 
Q 32.078125 49.03125 34.421875 49.03125 
Q 47.75 49.03125 55.171875 42.359375 
Q 62.59375 35.6875 62.59375 23.78125 
Q 62.59375 11.96875 54.515625 5.265625 
Q 46.4375 -1.421875 32.078125 -1.421875 
Q 25.875 -1.421875 19.796875 -0.21875 
Q 13.71875 0.984375 7.71875 3.421875 
L 7.71875 18.21875 
Q 13.671875 14.796875 19.015625 13.078125 
Q 24.359375 11.375 29.109375 11.375 
Q 35.9375 11.375 39.859375 14.71875 
Q 43.796875 18.0625 43.796875 23.78125 
Q 43.796875 29.546875 39.859375 32.859375 
Q 35.9375 36.1875 29.109375 36.1875 
Q 25.046875 36.1875 20.453125 35.125 
Q 15.875 34.078125 10.59375 31.890625 
z
" id="DejaVuSans-Bold-35"/>
     <path d="M 46 36.53125 
Q 46 50.203125 43.4375 55.78125 
Q 40.875 61.375 34.8125 61.375 
Q 28.765625 61.375 26.171875 55.78125 
Q 23.578125 50.203125 23.578125 36.53125 
Q 23.578125 22.703125 26.171875 17.03125 
Q 28.765625 11.375 34.8125 11.375 
Q 40.828125 11.375 43.40625 17.03125 
Q 46 22.703125 46 36.53125 
z
M 64.796875 36.375 
Q 64.796875 18.265625 56.984375 8.421875 
Q 49.171875 -1.421875 34.8125 -1.421875 
Q 20.40625 -1.421875 12.59375 8.421875 
Q 4.78125 18.265625 4.78125 36.375 
Q 4.78125 54.546875 12.59375 64.375 
Q 20.40625 74.21875 34.8125 74.21875 
Q 49.171875 74.21875 56.984375 64.375 
Q 64.796875 54.546875 64.796875 36.375 
z
" id="DejaVuSans-Bold-30"/>
     <path d="M 23.78125 76.421875 
L 23.78125 -23.578125 
L 12.703125 -23.578125 
L 12.703125 76.421875 
z
" id="DejaVuSans-Bold-7c"/>
     <path d="M 28.8125 13.8125 
L 60.890625 13.8125 
L 60.890625 0 
L 7.90625 0 
L 7.90625 13.8125 
L 34.515625 37.3125 
Q 38.09375 40.53125 39.796875 43.609375 
Q 41.5 46.6875 41.5 50 
Q 41.5 55.125 38.0625 58.25 
Q 34.625 61.375 28.90625 61.375 
Q 24.515625 61.375 19.28125 59.5 
Q 14.0625 57.625 8.109375 53.90625 
L 8.109375 69.921875 
Q 14.453125 72.015625 20.65625 73.109375 
Q 26.859375 74.21875 32.8125 74.21875 
Q 45.90625 74.21875 53.15625 68.453125 
Q 60.40625 62.703125 60.40625 52.390625 
Q 60.40625 46.4375 57.328125 41.28125 
Q 54.25 36.140625 44.390625 27.484375 
z
" id="DejaVuSans-Bold-32"/>
     <path d="M 36.8125 57.421875 
L 16.21875 26.90625 
L 36.8125 26.90625 
z
M 33.6875 72.90625 
L 54.59375 72.90625 
L 54.59375 26.90625 
L 64.984375 26.90625 
L 64.984375 13.28125 
L 54.59375 13.28125 
L 54.59375 0 
L 36.8125 0 
L 36.8125 13.28125 
L 4.5 13.28125 
L 4.5 29.390625 
z
" id="DejaVuSans-Bold-34"/>
     <path d="M 59.078125 45.609375 
Q 62.40625 50.6875 66.96875 53.34375 
Q 71.53125 56 77 56 
Q 86.421875 56 91.359375 50.1875 
Q 96.296875 44.390625 96.296875 33.296875 
L 96.296875 0 
L 78.71875 0 
L 78.71875 28.515625 
Q 78.765625 29.15625 78.78125 29.828125 
Q 78.8125 30.515625 78.8125 31.78125 
Q 78.8125 37.59375 77.09375 40.203125 
Q 75.390625 42.828125 71.578125 42.828125 
Q 66.609375 42.828125 63.890625 38.71875 
Q 61.1875 34.625 61.078125 26.859375 
L 61.078125 0 
L 43.5 0 
L 43.5 28.515625 
Q 43.5 37.59375 41.9375 40.203125 
Q 40.375 42.828125 36.375 42.828125 
Q 31.34375 42.828125 28.609375 38.703125 
Q 25.875 34.578125 25.875 26.90625 
L 25.875 0 
L 8.296875 0 
L 8.296875 54.6875 
L 25.875 54.6875 
L 25.875 46.6875 
Q 29.109375 51.3125 33.28125 53.65625 
Q 37.453125 56 42.484375 56 
Q 48.140625 56 52.484375 53.265625 
Q 56.84375 50.53125 59.078125 45.609375 
z
" id="DejaVuSans-Bold-6d"/>
     <path d="M 45.609375 46.6875 
L 45.609375 75.984375 
L 63.1875 75.984375 
L 63.1875 0 
L 45.609375 0 
L 45.609375 7.90625 
Q 42 3.078125 37.640625 0.828125 
Q 33.296875 -1.421875 27.59375 -1.421875 
Q 17.484375 -1.421875 10.984375 6.609375 
Q 4.5 14.65625 4.5 27.296875 
Q 4.5 39.9375 10.984375 47.96875 
Q 17.484375 56 27.59375 56 
Q 33.25 56 37.625 53.734375 
Q 42 51.46875 45.609375 46.6875 
z
M 34.078125 11.28125 
Q 39.703125 11.28125 42.65625 15.375 
Q 45.609375 19.484375 45.609375 27.296875 
Q 45.609375 35.109375 42.65625 39.203125 
Q 39.703125 43.3125 34.078125 43.3125 
Q 28.515625 43.3125 25.5625 39.203125 
Q 22.609375 35.109375 22.609375 27.296875 
Q 22.609375 19.484375 25.5625 15.375 
Q 28.515625 11.28125 34.078125 11.28125 
z
" id="DejaVuSans-Bold-64"/>
     <path d="M 10.59375 48.1875 
L 73.1875 48.1875 
L 73.1875 36.71875 
L 10.59375 36.71875 
z
M 10.59375 25.984375 
L 73.1875 25.984375 
L 73.1875 14.40625 
L 10.59375 14.40625 
z
" id="DejaVuSans-Bold-3d"/>
    </defs>
    <g transform="translate(62.080078 45.6672)scale(0.15 -0.15)">
     <use xlink:href="#DejaVuSans-Bold-49"/>
     <use x="37.207031" xlink:href="#DejaVuSans-Bold-6e"/>
     <use x="108.398438" xlink:href="#DejaVuSans-Bold-69"/>
     <use x="142.675781" xlink:href="#DejaVuSans-Bold-74"/>
     <use x="190.478516" xlink:href="#DejaVuSans-Bold-69"/>
     <use x="224.755859" xlink:href="#DejaVuSans-Bold-61"/>
     <use x="292.236328" xlink:href="#DejaVuSans-Bold-6c"/>
     <use x="326.513672" xlink:href="#DejaVuSans-Bold-20"/>
     <use x="361.328125" xlink:href="#DejaVuSans-Bold-68"/>
     <use x="432.519531" xlink:href="#DejaVuSans-Bold-6f"/>
     <use x="501.220703" xlink:href="#DejaVuSans-Bold-75"/>
     <use x="572.412109" xlink:href="#DejaVuSans-Bold-72"/>
     <use x="621.728516" xlink:href="#DejaVuSans-Bold-20"/>
     <use x="656.542969" xlink:href="#DejaVuSans-Bold-6f"/>
     <use x="725.244141" xlink:href="#DejaVuSans-Bold-66"/>
     <use x="768.75" xlink:href="#DejaVuSans-Bold-20"/>
     <use x="803.564453" xlink:href="#DejaVuSans-Bold-72"/>
     <use x="852.880859" xlink:href="#DejaVuSans-Bold-65"/>
     <use x="920.703125" xlink:href="#DejaVuSans-Bold-71"/>
     <use x="992.285156" xlink:href="#DejaVuSans-Bold-75"/>
     <use x="1063.476562" xlink:href="#DejaVuSans-Bold-65"/>
     <use x="1131.298828" xlink:href="#DejaVuSans-Bold-73"/>
     <use x="1190.820312" xlink:href="#DejaVuSans-Bold-74"/>
     <use x="1238.623047" xlink:href="#DejaVuSans-Bold-3a"/>
     <use x="1278.613281" xlink:href="#DejaVuSans-Bold-20"/>
     <use x="1313.427734" xlink:href="#DejaVuSans-Bold-35"/>
     <use x="1383.007812" xlink:href="#DejaVuSans-Bold-3a"/>
     <use x="1422.998047" xlink:href="#DejaVuSans-Bold-30"/>
     <use x="1492.578125" xlink:href="#DejaVuSans-Bold-3a"/>
     <use x="1532.568359" xlink:href="#DejaVuSans-Bold-30"/>
     <use x="1602.148438" xlink:href="#DejaVuSans-Bold-7c"/>
     <use x="1638.671875" xlink:href="#DejaVuSans-Bold-20"/>
     <use x="1673.486328" xlink:href="#DejaVuSans-Bold-32"/>
     <use x="1743.066406" xlink:href="#DejaVuSans-Bold-34"/>
     <use x="1812.646484" xlink:href="#DejaVuSans-Bold-20"/>
     <use x="1847.460938" xlink:href="#DejaVuSans-Bold-68"/>
     <use x="1918.652344" xlink:href="#DejaVuSans-Bold-6f"/>
     <use x="1987.353516" xlink:href="#DejaVuSans-Bold-75"/>
     <use x="2058.544922" xlink:href="#DejaVuSans-Bold-72"/>
     <use x="2107.861328" xlink:href="#DejaVuSans-Bold-73"/>
     <use x="2167.382812" xlink:href="#DejaVuSans-Bold-20"/>
     <use x="2202.197266" xlink:href="#DejaVuSans-Bold-6f"/>
     <use x="2270.898438" xlink:href="#DejaVuSans-Bold-66"/>
     <use x="2314.404297" xlink:href="#DejaVuSans-Bold-20"/>
     <use x="2349.21875" xlink:href="#DejaVuSans-Bold-73"/>
     <use x="2408.740234" xlink:href="#DejaVuSans-Bold-69"/>
     <use x="2443.017578" xlink:href="#DejaVuSans-Bold-6d"/>
     <use x="2547.216797" xlink:href="#DejaVuSans-Bold-75"/>
     <use x="2618.408203" xlink:href="#DejaVuSans-Bold-6c"/>
     <use x="2652.685547" xlink:href="#DejaVuSans-Bold-61"/>
     <use x="2720.166016" xlink:href="#DejaVuSans-Bold-74"/>
     <use x="2767.96875" xlink:href="#DejaVuSans-Bold-69"/>
     <use x="2802.246094" xlink:href="#DejaVuSans-Bold-6f"/>
     <use x="2870.947266" xlink:href="#DejaVuSans-Bold-6e"/>
     <use x="2942.138672" xlink:href="#DejaVuSans-Bold-7c"/>
     <use x="2978.662109" xlink:href="#DejaVuSans-Bold-20"/>
     <use x="3013.476562" xlink:href="#DejaVuSans-Bold-64"/>
     <use x="3085.058594" xlink:href="#DejaVuSans-Bold-74"/>
     <use x="3132.861328" xlink:href="#DejaVuSans-Bold-20"/>
     <use x="3167.675781" xlink:href="#DejaVuSans-Bold-3d"/>
     <use x="3251.464844" xlink:href="#DejaVuSans-Bold-20"/>
     <use x="3286.279297" xlink:href="#DejaVuSans-Bold-35"/>
     <use x="3355.859375" xlink:href="#DejaVuSans-Bold-20"/>
     <use x="3390.673828" xlink:href="#DejaVuSans-Bold-6d"/>
     <use x="3494.873047" xlink:href="#DejaVuSans-Bold-69"/>
     <use x="3529.150391" xlink:href="#DejaVuSans-Bold-6e"/>
    </g>
   </g>
   <g id="legend_1">
    <g id="patch_7">
     <path d="M 479.116719 376.6984 
L 574.1 376.6984 
Q 576.7 376.6984 576.7 374.0984 
L 576.7 337.235275 
Q 576.7 334.635275 574.1 334.635275 
L 479.116719 334.635275 
Q 476.516719 334.635275 476.516719 337.235275 
L 476.516719 374.0984 
Q 476.516719 376.6984 479.116719 376.6984 
z
" style="fill:#ffffff;opacity:0.8;stroke:#cccccc;stroke-linejoin:miter;"/>
    </g>
    <g id="line2d_37">
     <path d="M 481.716719 345.163244 
L 507.716719 345.163244 
" style="fill:none;stroke:#000000;stroke-linecap:square;stroke-width:1.75;"/>
    </g>
    <g id="line2d_38"/>
    <g id="text_21">
     <!-- Service -->
     <defs>
      <path d="M 53.515625 70.515625 
L 53.515625 60.890625 
Q 47.90625 63.578125 42.921875 64.890625 
Q 37.9375 66.21875 33.296875 66.21875 
Q 25.25 66.21875 20.875 63.09375 
Q 16.5 59.96875 16.5 54.203125 
Q 16.5 49.359375 19.40625 46.890625 
Q 22.3125 44.4375 30.421875 42.921875 
L 36.375 41.703125 
Q 47.40625 39.59375 52.65625 34.296875 
Q 57.90625 29 57.90625 20.125 
Q 57.90625 9.515625 50.796875 4.046875 
Q 43.703125 -1.421875 29.984375 -1.421875 
Q 24.8125 -1.421875 18.96875 -0.25 
Q 13.140625 0.921875 6.890625 3.21875 
L 6.890625 13.375 
Q 12.890625 10.015625 18.65625 8.296875 
Q 24.421875 6.59375 29.984375 6.59375 
Q 38.421875 6.59375 43.015625 9.90625 
Q 47.609375 13.234375 47.609375 19.390625 
Q 47.609375 24.75 44.3125 27.78125 
Q 41.015625 30.8125 33.5 32.328125 
L 27.484375 33.5 
Q 16.453125 35.6875 11.515625 40.375 
Q 6.59375 45.0625 6.59375 53.421875 
Q 6.59375 63.09375 13.40625 68.65625 
Q 20.21875 74.21875 32.171875 74.21875 
Q 37.3125 74.21875 42.625 73.28125 
Q 47.953125 72.359375 53.515625 70.515625 
z
" id="DejaVuSans-53"/>
      <path d="M 56.203125 29.59375 
L 56.203125 25.203125 
L 14.890625 25.203125 
Q 15.484375 15.921875 20.484375 11.0625 
Q 25.484375 6.203125 34.421875 6.203125 
Q 39.59375 6.203125 44.453125 7.46875 
Q 49.3125 8.734375 54.109375 11.28125 
L 54.109375 2.78125 
Q 49.265625 0.734375 44.1875 -0.34375 
Q 39.109375 -1.421875 33.890625 -1.421875 
Q 20.796875 -1.421875 13.15625 6.1875 
Q 5.515625 13.8125 5.515625 26.8125 
Q 5.515625 40.234375 12.765625 48.109375 
Q 20.015625 56 32.328125 56 
Q 43.359375 56 49.78125 48.890625 
Q 56.203125 41.796875 56.203125 29.59375 
z
M 47.21875 32.234375 
Q 47.125 39.59375 43.09375 43.984375 
Q 39.0625 48.390625 32.421875 48.390625 
Q 24.90625 48.390625 20.390625 44.140625 
Q 15.875 39.890625 15.1875 32.171875 
z
" id="DejaVuSans-65"/>
      <path d="M 41.109375 46.296875 
Q 39.59375 47.171875 37.8125 47.578125 
Q 36.03125 48 33.890625 48 
Q 26.265625 48 22.1875 43.046875 
Q 18.109375 38.09375 18.109375 28.8125 
L 18.109375 0 
L 9.078125 0 
L 9.078125 54.6875 
L 18.109375 54.6875 
L 18.109375 46.1875 
Q 20.953125 51.171875 25.484375 53.578125 
Q 30.03125 56 36.53125 56 
Q 37.453125 56 38.578125 55.875 
Q 39.703125 55.765625 41.0625 55.515625 
z
" id="DejaVuSans-72"/>
      <path d="M 2.984375 54.6875 
L 12.5 54.6875 
L 29.59375 8.796875 
L 46.6875 54.6875 
L 56.203125 54.6875 
L 35.6875 0 
L 23.484375 0 
z
" id="DejaVuSans-76"/>
      <path d="M 9.421875 54.6875 
L 18.40625 54.6875 
L 18.40625 0 
L 9.421875 0 
z
M 9.421875 75.984375 
L 18.40625 75.984375 
L 18.40625 64.59375 
L 9.421875 64.59375 
z
" id="DejaVuSans-69"/>
      <path d="M 48.78125 52.59375 
L 48.78125 44.1875 
Q 44.96875 46.296875 41.140625 47.34375 
Q 37.3125 48.390625 33.40625 48.390625 
Q 24.65625 48.390625 19.8125 42.84375 
Q 14.984375 37.3125 14.984375 27.296875 
Q 14.984375 17.28125 19.8125 11.734375 
Q 24.65625 6.203125 33.40625 6.203125 
Q 37.3125 6.203125 41.140625 7.25 
Q 44.96875 8.296875 48.78125 10.40625 
L 48.78125 2.09375 
Q 45.015625 0.34375 40.984375 -0.53125 
Q 36.96875 -1.421875 32.421875 -1.421875 
Q 20.0625 -1.421875 12.78125 6.34375 
Q 5.515625 14.109375 5.515625 27.296875 
Q 5.515625 40.671875 12.859375 48.328125 
Q 20.21875 56 33.015625 56 
Q 37.15625 56 41.109375 55.140625 
Q 45.0625 54.296875 48.78125 52.59375 
z
" id="DejaVuSans-63"/>
     </defs>
     <g transform="translate(518.116719 349.713244)scale(0.13 -0.13)">
      <use xlink:href="#DejaVuSans-53"/>
      <use x="63.476562" xlink:href="#DejaVuSans-65"/>
      <use x="125" xlink:href="#DejaVuSans-72"/>
      <use x="166.113281" xlink:href="#DejaVuSans-76"/>
      <use x="225.292969" xlink:href="#DejaVuSans-69"/>
      <use x="253.076172" xlink:href="#DejaVuSans-63"/>
      <use x="308.056641" xlink:href="#DejaVuSans-65"/>
     </g>
    </g>
    <g id="line2d_39">
     <path d="M 481.716719 364.244806 
L 507.716719 364.244806 
" style="fill:none;stroke:#ff0000;stroke-linecap:square;stroke-width:1.75;"/>
    </g>
    <g id="line2d_40"/>
    <g id="text_22">
     <!-- Request -->
     <defs>
      <path d="M 44.390625 34.1875 
Q 47.5625 33.109375 50.5625 29.59375 
Q 53.5625 26.078125 56.59375 19.921875 
L 66.609375 0 
L 56 0 
L 46.6875 18.703125 
Q 43.0625 26.03125 39.671875 28.421875 
Q 36.28125 30.8125 30.421875 30.8125 
L 19.671875 30.8125 
L 19.671875 0 
L 9.8125 0 
L 9.8125 72.90625 
L 32.078125 72.90625 
Q 44.578125 72.90625 50.734375 67.671875 
Q 56.890625 62.453125 56.890625 51.90625 
Q 56.890625 45.015625 53.6875 40.46875 
Q 50.484375 35.9375 44.390625 34.1875 
z
M 19.671875 64.796875 
L 19.671875 38.921875 
L 32.078125 38.921875 
Q 39.203125 38.921875 42.84375 42.21875 
Q 46.484375 45.515625 46.484375 51.90625 
Q 46.484375 58.296875 42.84375 61.546875 
Q 39.203125 64.796875 32.078125 64.796875 
z
" id="DejaVuSans-52"/>
      <path d="M 14.796875 27.296875 
Q 14.796875 17.390625 18.875 11.75 
Q 22.953125 6.109375 30.078125 6.109375 
Q 37.203125 6.109375 41.296875 11.75 
Q 45.40625 17.390625 45.40625 27.296875 
Q 45.40625 37.203125 41.296875 42.84375 
Q 37.203125 48.484375 30.078125 48.484375 
Q 22.953125 48.484375 18.875 42.84375 
Q 14.796875 37.203125 14.796875 27.296875 
z
M 45.40625 8.203125 
Q 42.578125 3.328125 38.25 0.953125 
Q 33.9375 -1.421875 27.875 -1.421875 
Q 17.96875 -1.421875 11.734375 6.484375 
Q 5.515625 14.40625 5.515625 27.296875 
Q 5.515625 40.1875 11.734375 48.09375 
Q 17.96875 56 27.875 56 
Q 33.9375 56 38.25 53.625 
Q 42.578125 51.265625 45.40625 46.390625 
L 45.40625 54.6875 
L 54.390625 54.6875 
L 54.390625 -20.796875 
L 45.40625 -20.796875 
z
" id="DejaVuSans-71"/>
      <path d="M 8.5 21.578125 
L 8.5 54.6875 
L 17.484375 54.6875 
L 17.484375 21.921875 
Q 17.484375 14.15625 20.5 10.265625 
Q 23.53125 6.390625 29.59375 6.390625 
Q 36.859375 6.390625 41.078125 11.03125 
Q 45.3125 15.671875 45.3125 23.6875 
L 45.3125 54.6875 
L 54.296875 54.6875 
L 54.296875 0 
L 45.3125 0 
L 45.3125 8.40625 
Q 42.046875 3.421875 37.71875 1 
Q 33.40625 -1.421875 27.6875 -1.421875 
Q 18.265625 -1.421875 13.375 4.4375 
Q 8.5 10.296875 8.5 21.578125 
z
M 31.109375 56 
z
" id="DejaVuSans-75"/>
      <path d="M 44.28125 53.078125 
L 44.28125 44.578125 
Q 40.484375 46.53125 36.375 47.5 
Q 32.28125 48.484375 27.875 48.484375 
Q 21.1875 48.484375 17.84375 46.4375 
Q 14.5 44.390625 14.5 40.28125 
Q 14.5 37.15625 16.890625 35.375 
Q 19.28125 33.59375 26.515625 31.984375 
L 29.59375 31.296875 
Q 39.15625 29.25 43.1875 25.515625 
Q 47.21875 21.78125 47.21875 15.09375 
Q 47.21875 7.46875 41.1875 3.015625 
Q 35.15625 -1.421875 24.609375 -1.421875 
Q 20.21875 -1.421875 15.453125 -0.5625 
Q 10.6875 0.296875 5.421875 2 
L 5.421875 11.28125 
Q 10.40625 8.6875 15.234375 7.390625 
Q 20.0625 6.109375 24.8125 6.109375 
Q 31.15625 6.109375 34.5625 8.28125 
Q 37.984375 10.453125 37.984375 14.40625 
Q 37.984375 18.0625 35.515625 20.015625 
Q 33.0625 21.96875 24.703125 23.78125 
L 21.578125 24.515625 
Q 13.234375 26.265625 9.515625 29.90625 
Q 5.8125 33.546875 5.8125 39.890625 
Q 5.8125 47.609375 11.28125 51.796875 
Q 16.75 56 26.8125 56 
Q 31.78125 56 36.171875 55.265625 
Q 40.578125 54.546875 44.28125 53.078125 
z
" id="DejaVuSans-73"/>
      <path d="M 18.3125 70.21875 
L 18.3125 54.6875 
L 36.8125 54.6875 
L 36.8125 47.703125 
L 18.3125 47.703125 
L 18.3125 18.015625 
Q 18.3125 11.328125 20.140625 9.421875 
Q 21.96875 7.515625 27.59375 7.515625 
L 36.8125 7.515625 
L 36.8125 0 
L 27.59375 0 
Q 17.1875 0 13.234375 3.875 
Q 9.28125 7.765625 9.28125 18.015625 
L 9.28125 47.703125 
L 2.6875 47.703125 
L 2.6875 54.6875 
L 9.28125 54.6875 
L 9.28125 70.21875 
z
" id="DejaVuSans-74"/>
     </defs>
     <g transform="translate(518.116719 368.794806)scale(0.13 -0.13)">
      <use xlink:href="#DejaVuSans-52"/>
      <use x="69.419922" xlink:href="#DejaVuSans-65"/>
      <use x="130.943359" xlink:href="#DejaVuSans-71"/>
      <use x="194.419922" xlink:href="#DejaVuSans-75"/>
      <use x="257.798828" xlink:href="#DejaVuSans-65"/>
      <use x="319.322266" xlink:href="#DejaVuSans-73"/>
      <use x="371.421875" xlink:href="#DejaVuSans-74"/>
     </g>
    </g>
   </g>
  </g>
 </g>
 <defs>
  <clipPath id="p5e1226604d">
   <rect height="331.5312" width="502.2" x="81" y="51.6672"/>
  </clipPath>
 </defs>
</svg>
